%TF.GenerationSoftware,KiCad,Pcbnew,8.0.6*%
%TF.CreationDate,2024-11-03T20:55:08+02:00*%
%TF.ProjectId,G11_EMB_PCB1,4731315f-454d-4425-9f50-4342312e6b69,rev?*%
%TF.SameCoordinates,PX5f7e1b2PY7735940*%
%TF.FileFunction,Copper,L1,Top*%
%TF.FilePolarity,Positive*%
%FSLAX46Y46*%
G04 Gerber Fmt 4.6, Leading zero omitted, Abs format (unit mm)*
G04 Created by KiCad (PCBNEW 8.0.6) date 2024-11-03 20:55:08*
%MOMM*%
%LPD*%
G01*
G04 APERTURE LIST*
G04 Aperture macros list*
%AMRoundRect*
0 Rectangle with rounded corners*
0 $1 Rounding radius*
0 $2 $3 $4 $5 $6 $7 $8 $9 X,Y pos of 4 corners*
0 Add a 4 corners polygon primitive as box body*
4,1,4,$2,$3,$4,$5,$6,$7,$8,$9,$2,$3,0*
0 Add four circle primitives for the rounded corners*
1,1,$1+$1,$2,$3*
1,1,$1+$1,$4,$5*
1,1,$1+$1,$6,$7*
1,1,$1+$1,$8,$9*
0 Add four rect primitives between the rounded corners*
20,1,$1+$1,$2,$3,$4,$5,0*
20,1,$1+$1,$4,$5,$6,$7,0*
20,1,$1+$1,$6,$7,$8,$9,0*
20,1,$1+$1,$8,$9,$2,$3,0*%
G04 Aperture macros list end*
%TA.AperFunction,ComponentPad*%
%ADD10C,0.800000*%
%TD*%
%TA.AperFunction,ComponentPad*%
%ADD11C,6.400000*%
%TD*%
%TA.AperFunction,ComponentPad*%
%ADD12R,1.700000X1.700000*%
%TD*%
%TA.AperFunction,ComponentPad*%
%ADD13O,1.700000X1.700000*%
%TD*%
%TA.AperFunction,SMDPad,CuDef*%
%ADD14RoundRect,0.237500X-0.287500X-0.237500X0.287500X-0.237500X0.287500X0.237500X-0.287500X0.237500X0*%
%TD*%
%TA.AperFunction,SMDPad,CuDef*%
%ADD15RoundRect,0.237500X0.237500X-0.300000X0.237500X0.300000X-0.237500X0.300000X-0.237500X-0.300000X0*%
%TD*%
%TA.AperFunction,SMDPad,CuDef*%
%ADD16RoundRect,0.237500X0.250000X0.237500X-0.250000X0.237500X-0.250000X-0.237500X0.250000X-0.237500X0*%
%TD*%
%TA.AperFunction,SMDPad,CuDef*%
%ADD17RoundRect,0.162500X0.617500X0.162500X-0.617500X0.162500X-0.617500X-0.162500X0.617500X-0.162500X0*%
%TD*%
%TA.AperFunction,SMDPad,CuDef*%
%ADD18RoundRect,0.237500X-0.250000X-0.237500X0.250000X-0.237500X0.250000X0.237500X-0.250000X0.237500X0*%
%TD*%
%TA.AperFunction,SMDPad,CuDef*%
%ADD19RoundRect,0.250000X-0.350000X0.850000X-0.350000X-0.850000X0.350000X-0.850000X0.350000X0.850000X0*%
%TD*%
%TA.AperFunction,SMDPad,CuDef*%
%ADD20RoundRect,0.250000X-1.125000X1.275000X-1.125000X-1.275000X1.125000X-1.275000X1.125000X1.275000X0*%
%TD*%
%TA.AperFunction,SMDPad,CuDef*%
%ADD21RoundRect,0.249997X-2.650003X2.950003X-2.650003X-2.950003X2.650003X-2.950003X2.650003X2.950003X0*%
%TD*%
%TA.AperFunction,SMDPad,CuDef*%
%ADD22RoundRect,0.250000X-0.787500X-1.025000X0.787500X-1.025000X0.787500X1.025000X-0.787500X1.025000X0*%
%TD*%
%TA.AperFunction,SMDPad,CuDef*%
%ADD23RoundRect,0.237500X-0.237500X0.300000X-0.237500X-0.300000X0.237500X-0.300000X0.237500X0.300000X0*%
%TD*%
%TA.AperFunction,SMDPad,CuDef*%
%ADD24R,0.980000X3.400000*%
%TD*%
%TA.AperFunction,SMDPad,CuDef*%
%ADD25RoundRect,0.237500X-0.300000X-0.237500X0.300000X-0.237500X0.300000X0.237500X-0.300000X0.237500X0*%
%TD*%
%TA.AperFunction,ComponentPad*%
%ADD26R,1.600000X1.600000*%
%TD*%
%TA.AperFunction,ComponentPad*%
%ADD27C,1.600000*%
%TD*%
%TA.AperFunction,ComponentPad*%
%ADD28C,4.000000*%
%TD*%
%TA.AperFunction,SMDPad,CuDef*%
%ADD29RoundRect,0.250000X1.500000X0.650000X-1.500000X0.650000X-1.500000X-0.650000X1.500000X-0.650000X0*%
%TD*%
%TA.AperFunction,SMDPad,CuDef*%
%ADD30R,2.100000X0.600000*%
%TD*%
%TA.AperFunction,SMDPad,CuDef*%
%ADD31RoundRect,0.237500X-0.237500X0.250000X-0.237500X-0.250000X0.237500X-0.250000X0.237500X0.250000X0*%
%TD*%
%TA.AperFunction,SMDPad,CuDef*%
%ADD32RoundRect,0.237500X0.300000X0.237500X-0.300000X0.237500X-0.300000X-0.237500X0.300000X-0.237500X0*%
%TD*%
%TA.AperFunction,SMDPad,CuDef*%
%ADD33RoundRect,0.250000X-1.500000X-0.650000X1.500000X-0.650000X1.500000X0.650000X-1.500000X0.650000X0*%
%TD*%
%TA.AperFunction,SMDPad,CuDef*%
%ADD34RoundRect,0.237500X0.237500X-0.250000X0.237500X0.250000X-0.237500X0.250000X-0.237500X-0.250000X0*%
%TD*%
%TA.AperFunction,ViaPad*%
%ADD35C,0.500000*%
%TD*%
%TA.AperFunction,ViaPad*%
%ADD36C,0.600000*%
%TD*%
%TA.AperFunction,Conductor*%
%ADD37C,1.000000*%
%TD*%
%TA.AperFunction,Conductor*%
%ADD38C,0.500000*%
%TD*%
%TA.AperFunction,Conductor*%
%ADD39C,0.200000*%
%TD*%
%TA.AperFunction,Conductor*%
%ADD40C,0.300000*%
%TD*%
%TA.AperFunction,Conductor*%
%ADD41C,0.600000*%
%TD*%
G04 APERTURE END LIST*
D10*
%TO.P,REF\u002A\u002A,1*%
%TO.N,N/C*%
X2600000Y5000000D03*
X3302944Y6697056D03*
X3302944Y3302944D03*
X5000000Y7400000D03*
D11*
X5000000Y5000000D03*
D10*
X5000000Y2600000D03*
X6697056Y6697056D03*
X6697056Y3302944D03*
X7400000Y5000000D03*
%TD*%
%TO.P,REF\u002A\u002A,1*%
%TO.N,N/C*%
X87600000Y70000000D03*
X88302944Y71697056D03*
X88302944Y68302944D03*
X90000000Y72400000D03*
D11*
X90000000Y70000000D03*
D10*
X90000000Y67600000D03*
X91697056Y71697056D03*
X91697056Y68302944D03*
X92400000Y70000000D03*
%TD*%
D12*
%TO.P,J10,1,Pin_1*%
%TO.N,Net-(J10-Pin_1)*%
X31540000Y57975000D03*
D13*
%TO.P,J10,2,Pin_2*%
%TO.N,VIN*%
X29000000Y57975000D03*
%TD*%
D14*
%TO.P,D3,1,K*%
%TO.N,GND*%
X60687500Y41250000D03*
%TO.P,D3,2,A*%
%TO.N,Net-(D3-A)*%
X62437500Y41250000D03*
%TD*%
D12*
%TO.P,J2,1,Pin_1*%
%TO.N,VCC_LM*%
X63250000Y35675000D03*
D13*
%TO.P,J2,2,Pin_2*%
X65790000Y35675000D03*
%TD*%
D14*
%TO.P,D7,1,K*%
%TO.N,GND_ISO*%
X56250000Y65000000D03*
%TO.P,D7,2,A*%
%TO.N,Net-(D7-A)*%
X58000000Y65000000D03*
%TD*%
D12*
%TO.P,J7,1,Pin_1*%
%TO.N,VCC_SY*%
X62525000Y13000000D03*
D13*
%TO.P,J7,2,Pin_2*%
X65065000Y13000000D03*
%TD*%
D12*
%TO.P,J6,1,Pin_1*%
%TO.N,Net-(D5-A)*%
X5460000Y14000000D03*
D13*
%TO.P,J6,2,Pin_2*%
X8000000Y14000000D03*
%TD*%
D12*
%TO.P,J1,1,Pin_1*%
%TO.N,Net-(D1-K)*%
X31500000Y36000000D03*
D13*
%TO.P,J1,2,Pin_2*%
%TO.N,VIN*%
X28960000Y36000000D03*
%TD*%
D15*
%TO.P,C11,1*%
%TO.N,VCC_ISO*%
X56000000Y59000000D03*
%TO.P,C11,2*%
%TO.N,GND_ISO*%
X56000000Y60725000D03*
%TD*%
D16*
%TO.P,R7,1*%
%TO.N,Net-(U2-FB)*%
X46612500Y4600000D03*
%TO.P,R7,2*%
%TO.N,GND*%
X44787500Y4600000D03*
%TD*%
D17*
%TO.P,U2,1,EN*%
%TO.N,Net-(J5-Pin_1)*%
X51400000Y7600000D03*
%TO.P,U2,2,GND*%
%TO.N,GND*%
X51400000Y8550000D03*
%TO.P,U2,3,LX*%
%TO.N,Net-(U2-LX)*%
X51400000Y9500000D03*
%TO.P,U2,4,IN*%
%TO.N,Net-(J5-Pin_1)*%
X48700000Y9500000D03*
%TO.P,U2,5,FB*%
%TO.N,Net-(U2-FB)*%
X48700000Y7600000D03*
%TD*%
D16*
%TO.P,R4,1*%
%TO.N,VIN*%
X20500000Y21500000D03*
%TO.P,R4,2*%
%TO.N,Net-(D4-A)*%
X18675000Y21500000D03*
%TD*%
D10*
%TO.P,REF\u002A\u002A,1*%
%TO.N,N/C*%
X2600000Y70000000D03*
X3302944Y71697056D03*
X3302944Y68302944D03*
X5000000Y72400000D03*
D11*
X5000000Y70000000D03*
D10*
X5000000Y67600000D03*
X6697056Y71697056D03*
X6697056Y68302944D03*
X7400000Y70000000D03*
%TD*%
D18*
%TO.P,R6,1*%
%TO.N,VCC_SY*%
X44787500Y6100000D03*
%TO.P,R6,2*%
%TO.N,Net-(U2-FB)*%
X46612500Y6100000D03*
%TD*%
D12*
%TO.P,J13,1,Pin_1*%
%TO.N,GND_ISO*%
X69500000Y54000000D03*
D13*
%TO.P,J13,2,Pin_2*%
X72040000Y54000000D03*
%TD*%
D19*
%TO.P,U1,1,ADJ*%
%TO.N,Net-(U1-ADJ)*%
X48777500Y36125000D03*
D20*
%TO.P,U1,2,VO*%
%TO.N,VCC_LM*%
X48022500Y31500000D03*
X44972500Y31500000D03*
D21*
X46497500Y29825000D03*
D20*
X48022500Y28150000D03*
X44972500Y28150000D03*
D19*
%TO.P,U1,3,VI*%
%TO.N,Net-(D1-K)*%
X44217500Y36125000D03*
%TD*%
D22*
%TO.P,C3,1*%
%TO.N,VCC_LM*%
X52887500Y29150000D03*
%TO.P,C3,2*%
%TO.N,GND*%
X59112500Y29150000D03*
%TD*%
D12*
%TO.P,J11,1,Pin_1*%
%TO.N,VCC_ISO*%
X69500000Y62500000D03*
D13*
%TO.P,J11,2,Pin_2*%
X72040000Y62500000D03*
%TD*%
D15*
%TO.P,C12,1*%
%TO.N,VCC_ISO*%
X59000000Y59137500D03*
%TO.P,C12,2*%
%TO.N,GND_ISO*%
X59000000Y60862500D03*
%TD*%
D23*
%TO.P,C2,1*%
%TO.N,Net-(D1-K)*%
X40500000Y36000000D03*
%TO.P,C2,2*%
%TO.N,GND*%
X40500000Y34275000D03*
%TD*%
D10*
%TO.P,REF\u002A\u002A,1*%
%TO.N,N/C*%
X87600000Y5000000D03*
X88302944Y6697056D03*
X88302944Y3302944D03*
X90000000Y7400000D03*
D11*
X90000000Y5000000D03*
D10*
X90000000Y2600000D03*
X91697056Y6697056D03*
X91697056Y3302944D03*
X92400000Y5000000D03*
%TD*%
D16*
%TO.P,R8,1*%
%TO.N,VCC_ISO*%
X61500000Y65000000D03*
%TO.P,R8,2*%
%TO.N,Net-(D7-A)*%
X59675000Y65000000D03*
%TD*%
D24*
%TO.P,L1,1,1*%
%TO.N,Net-(U2-LX)*%
X54315000Y8100000D03*
%TO.P,L1,2,2*%
%TO.N,VCC_SY*%
X56685000Y8100000D03*
%TD*%
D25*
%TO.P,C4,1*%
%TO.N,Net-(J5-Pin_1)*%
X46837500Y11500000D03*
%TO.P,C4,2*%
%TO.N,GND*%
X48562500Y11500000D03*
%TD*%
D14*
%TO.P,D6,1,K*%
%TO.N,GND*%
X51450000Y14500000D03*
%TO.P,D6,2,A*%
%TO.N,Net-(D6-A)*%
X53200000Y14500000D03*
%TD*%
D25*
%TO.P,C5,1*%
%TO.N,Net-(J5-Pin_1)*%
X46837500Y13000000D03*
%TO.P,C5,2*%
%TO.N,GND*%
X48562500Y13000000D03*
%TD*%
D26*
%TO.P,J3,1,VBUS*%
%TO.N,Net-(D2-A)*%
X15360000Y38250000D03*
D27*
%TO.P,J3,2,D-*%
%TO.N,unconnected-(J3-D--Pad2)*%
X15360000Y40750000D03*
%TO.P,J3,3,D+*%
%TO.N,unconnected-(J3-D+-Pad3)*%
X13360000Y40750000D03*
%TO.P,J3,4,GND*%
%TO.N,GND*%
X13360000Y38250000D03*
D28*
%TO.P,J3,5,Shield*%
X10500000Y33500000D03*
X10500000Y45500000D03*
%TD*%
D29*
%TO.P,D2,1,K*%
%TO.N,VIN*%
X20500000Y28000000D03*
%TO.P,D2,2,A*%
%TO.N,Net-(D2-A)*%
X15360000Y28000000D03*
%TD*%
D16*
%TO.P,R5,1*%
%TO.N,VCC_SY*%
X57112500Y14500000D03*
%TO.P,R5,2*%
%TO.N,Net-(D6-A)*%
X55287500Y14500000D03*
%TD*%
D12*
%TO.P,J8,1,Pin_1*%
%TO.N,GND*%
X11960000Y5000000D03*
D13*
%TO.P,J8,2,Pin_2*%
X14500000Y5000000D03*
%TD*%
D16*
%TO.P,R2,1*%
%TO.N,VCC_LM*%
X66075000Y41250000D03*
%TO.P,R2,2*%
%TO.N,Net-(D3-A)*%
X64250000Y41250000D03*
%TD*%
D23*
%TO.P,C1,1*%
%TO.N,Net-(D1-K)*%
X37500000Y36000000D03*
%TO.P,C1,2*%
%TO.N,GND*%
X37500000Y34275000D03*
%TD*%
%TO.P,C9,1*%
%TO.N,Net-(J10-Pin_1)*%
X36500000Y58862500D03*
%TO.P,C9,2*%
%TO.N,GND*%
X36500000Y57137500D03*
%TD*%
D30*
%TO.P,U3,1,EN*%
%TO.N,Net-(J10-Pin_1)*%
X43350000Y61445000D03*
%TO.P,U3,2,GNDP*%
%TO.N,GND*%
X43350000Y60175000D03*
%TO.P,U3,3,VINP*%
%TO.N,Net-(J10-Pin_1)*%
X43350000Y58905000D03*
%TO.P,U3,4,SYNC*%
%TO.N,GND*%
X43350000Y57635000D03*
%TO.P,U3,5,SYNC_OK*%
X43350000Y56365000D03*
%TO.P,U3,6,NC*%
X43350000Y55095000D03*
%TO.P,U3,7,NC*%
X43350000Y53825000D03*
%TO.P,U3,8,NC*%
X43350000Y52555000D03*
%TO.P,U3,9,GNDS*%
%TO.N,GND_ISO*%
X52650000Y52555000D03*
%TO.P,U3,10,NC*%
X52650000Y53825000D03*
%TO.P,U3,11,NC*%
X52650000Y55095000D03*
%TO.P,U3,12,NC*%
X52650000Y56365000D03*
%TO.P,U3,13,SEL*%
%TO.N,Net-(J12-Pin_2)*%
X52650000Y57635000D03*
%TO.P,U3,14,VISO*%
%TO.N,VCC_ISO*%
X52650000Y58905000D03*
%TO.P,U3,15,GNDS*%
%TO.N,GND_ISO*%
X52650000Y60175000D03*
%TO.P,U3,16,GNDS*%
X52650000Y61445000D03*
%TD*%
D25*
%TO.P,C7,1*%
%TO.N,VCC_SY*%
X44837500Y7600000D03*
%TO.P,C7,2*%
%TO.N,Net-(U2-FB)*%
X46562500Y7600000D03*
%TD*%
D12*
%TO.P,J9,1,Pin_1*%
%TO.N,GND*%
X62500000Y6500000D03*
D13*
%TO.P,J9,2,Pin_2*%
X65040000Y6500000D03*
%TD*%
D31*
%TO.P,R3,1*%
%TO.N,Net-(U1-ADJ)*%
X51500000Y36650000D03*
%TO.P,R3,2*%
%TO.N,GND*%
X51500000Y34825000D03*
%TD*%
D32*
%TO.P,C8,1*%
%TO.N,VCC_SY*%
X53225000Y11500000D03*
%TO.P,C8,2*%
%TO.N,GND*%
X51500000Y11500000D03*
%TD*%
D33*
%TO.P,D1,1,K*%
%TO.N,Net-(D1-K)*%
X46000000Y41000000D03*
%TO.P,D1,2,A*%
%TO.N,VCC_LM*%
X51000000Y41000000D03*
%TD*%
D29*
%TO.P,D5,1,K*%
%TO.N,VIN*%
X20500000Y14000000D03*
%TO.P,D5,2,A*%
%TO.N,Net-(D5-A)*%
X15500000Y14000000D03*
%TD*%
D23*
%TO.P,C10,1*%
%TO.N,Net-(J10-Pin_1)*%
X39500000Y58862500D03*
%TO.P,C10,2*%
%TO.N,GND*%
X39500000Y57137500D03*
%TD*%
D25*
%TO.P,C6,1*%
%TO.N,Net-(J5-Pin_1)*%
X46837500Y14500000D03*
%TO.P,C6,2*%
%TO.N,GND*%
X48562500Y14500000D03*
%TD*%
D14*
%TO.P,D4,1,K*%
%TO.N,GND*%
X15025000Y21500000D03*
%TO.P,D4,2,A*%
%TO.N,Net-(D4-A)*%
X16775000Y21500000D03*
%TD*%
D12*
%TO.P,J4,1,Pin_1*%
%TO.N,GND*%
X62960000Y29150000D03*
D13*
%TO.P,J4,2,Pin_2*%
X65500000Y29150000D03*
%TD*%
D12*
%TO.P,J12,1,Pin_1*%
%TO.N,VCC_ISO*%
X63000000Y59080000D03*
D13*
%TO.P,J12,2,Pin_2*%
%TO.N,Net-(J12-Pin_2)*%
X63000000Y56540000D03*
%TO.P,J12,3,Pin_3*%
%TO.N,GND_ISO*%
X63000000Y54000000D03*
%TD*%
D12*
%TO.P,J5,1,Pin_1*%
%TO.N,Net-(J5-Pin_1)*%
X42550000Y13175000D03*
D13*
%TO.P,J5,2,Pin_2*%
%TO.N,VIN*%
X40010000Y13175000D03*
%TD*%
D34*
%TO.P,R1,1*%
%TO.N,VCC_LM*%
X53500000Y34825000D03*
%TO.P,R1,2*%
%TO.N,Net-(U1-ADJ)*%
X53500000Y36650000D03*
%TD*%
D35*
%TO.N,GND*%
X900000Y1800000D03*
X92000000Y800000D03*
X900000Y59100000D03*
X4600000Y74100000D03*
X20700000Y74100000D03*
X91000000Y800000D03*
X44500000Y63000000D03*
X32000000Y800000D03*
X44400000Y50200000D03*
X9800000Y74100000D03*
X52300000Y44700000D03*
D36*
X51200000Y13500000D03*
D35*
X900000Y73100000D03*
X67400000Y44700000D03*
X900000Y55100000D03*
X57500000Y44700000D03*
X900000Y25200000D03*
X94100000Y8600000D03*
X86300000Y44700000D03*
X900000Y42000000D03*
X48400000Y44700000D03*
X11900000Y74100000D03*
D36*
X37500000Y33000000D03*
D35*
X53000000Y800000D03*
D36*
X37700000Y57100000D03*
X39500000Y55900000D03*
D35*
X94100000Y36500000D03*
X94100000Y25500000D03*
D36*
X56700000Y33600000D03*
D35*
X84900000Y800000D03*
X41100000Y800000D03*
X36900000Y74100000D03*
X900000Y27100000D03*
D36*
X41375000Y60175000D03*
X43600000Y4300000D03*
X59500000Y31250000D03*
D35*
X94100000Y15400000D03*
X46400000Y44700000D03*
X77100000Y800000D03*
X44400000Y47000000D03*
D36*
X60800000Y28100000D03*
D35*
X50900000Y800000D03*
X900000Y61200000D03*
D36*
X50500000Y34750000D03*
D35*
X40100000Y800000D03*
X14800000Y800000D03*
X94100000Y29600000D03*
X44500000Y73000000D03*
X13900000Y74100000D03*
X1900000Y800000D03*
X71500000Y44700000D03*
X66100000Y800000D03*
X94100000Y32600000D03*
X22700000Y74100000D03*
X31700000Y74100000D03*
X94100000Y10500000D03*
D36*
X38500000Y33100000D03*
D35*
X900000Y34000000D03*
X900000Y35000000D03*
X58900000Y800000D03*
X92800000Y44700000D03*
X94100000Y24400000D03*
X9900000Y800000D03*
X43500000Y51400000D03*
X22800000Y800000D03*
X44400000Y49400000D03*
X47400000Y44700000D03*
X900000Y68000000D03*
X30000000Y800000D03*
X900000Y8000000D03*
X5000000Y800000D03*
X94100000Y35500000D03*
X89000000Y800000D03*
X83000000Y800000D03*
X8000000Y800000D03*
X43100000Y800000D03*
X94100000Y22400000D03*
X900000Y36100000D03*
X37900000Y74100000D03*
X88000000Y800000D03*
X21700000Y74100000D03*
X94100000Y17500000D03*
X48900000Y800000D03*
X900000Y66000000D03*
X44400000Y48600000D03*
X70000000Y800000D03*
X55400000Y44700000D03*
X71000000Y800000D03*
D36*
X49800000Y10600000D03*
X41375000Y52500000D03*
D35*
X30700000Y74100000D03*
X900000Y4100000D03*
X900000Y11000000D03*
X70500000Y44700000D03*
X69500000Y44700000D03*
X73500000Y44700000D03*
X18800000Y74100000D03*
X15900000Y800000D03*
X900000Y32000000D03*
X64100000Y800000D03*
X93800000Y44700000D03*
X900000Y48100000D03*
D36*
X13800000Y21500000D03*
D35*
X57900000Y800000D03*
X53400000Y40000000D03*
X94100000Y33600000D03*
X900000Y26200000D03*
X94100000Y9600000D03*
X90900000Y44700000D03*
X80300000Y44700000D03*
X84000000Y800000D03*
X77400000Y44700000D03*
X94100000Y16500000D03*
X42800000Y74100000D03*
X900000Y6000000D03*
X900000Y21100000D03*
D36*
X41375000Y57575000D03*
D35*
X84300000Y44700000D03*
X94100000Y1500000D03*
D36*
X49700000Y12500000D03*
D35*
X54400000Y44700000D03*
X44500000Y68900000D03*
X82400000Y44700000D03*
X27800000Y74100000D03*
X16900000Y74100000D03*
X900000Y49100000D03*
X91900000Y44700000D03*
X900000Y9000000D03*
X90000000Y800000D03*
X900000Y57100000D03*
X900000Y5100000D03*
X73000000Y800000D03*
X34800000Y74100000D03*
X40900000Y74100000D03*
X61000000Y800000D03*
X94100000Y19500000D03*
X94100000Y14400000D03*
X57000000Y800000D03*
D36*
X36500000Y55800000D03*
X38600000Y55900000D03*
D35*
X900000Y47000000D03*
D36*
X52600000Y6400000D03*
D35*
X94100000Y41300000D03*
X7800000Y74100000D03*
X34900000Y800000D03*
X44500000Y64000000D03*
X6000000Y800000D03*
D36*
X41600000Y34300000D03*
X40500000Y56000000D03*
D35*
X900000Y45000000D03*
X25900000Y800000D03*
X9000000Y800000D03*
X900000Y53200000D03*
X82000000Y800000D03*
X49900000Y800000D03*
X900000Y58100000D03*
X81100000Y800000D03*
D36*
X56700000Y36000000D03*
D35*
X44500000Y74000000D03*
X93000000Y800000D03*
X900000Y38100000D03*
D36*
X57250000Y28750000D03*
X37600000Y55900000D03*
D35*
X76100000Y800000D03*
X46000000Y800000D03*
X900000Y67000000D03*
X44100000Y800000D03*
X44300000Y51700000D03*
D36*
X51500000Y33750000D03*
D35*
X900000Y22100000D03*
X78300000Y44700000D03*
X37000000Y800000D03*
X63400000Y44700000D03*
X94100000Y4600000D03*
D36*
X51200000Y12500000D03*
X43800000Y3600000D03*
D35*
X900000Y7000000D03*
X75400000Y44700000D03*
X13800000Y800000D03*
X17900000Y800000D03*
X24900000Y800000D03*
X94100000Y38400000D03*
X68100000Y800000D03*
X900000Y65100000D03*
D36*
X49700000Y13500000D03*
D35*
X94100000Y26500000D03*
X900000Y17200000D03*
D36*
X50000000Y8500000D03*
D35*
X900000Y70000000D03*
X33000000Y800000D03*
X94100000Y21500000D03*
X24800000Y74100000D03*
X47700000Y37100000D03*
X79300000Y44700000D03*
X62000000Y800000D03*
X38000000Y800000D03*
X43800000Y74100000D03*
X900000Y74100000D03*
X61500000Y44700000D03*
X2300000Y74100000D03*
X15900000Y74100000D03*
X85900000Y800000D03*
X94100000Y30600000D03*
X19900000Y800000D03*
X12800000Y800000D03*
X20900000Y800000D03*
X900000Y69000000D03*
X65400000Y44700000D03*
X69100000Y800000D03*
X94100000Y7600000D03*
X89100000Y44700000D03*
X94100000Y34500000D03*
X67100000Y800000D03*
X56400000Y44700000D03*
X94100000Y23400000D03*
D36*
X41375000Y53800000D03*
X41500000Y33200000D03*
D35*
X94100000Y13400000D03*
X900000Y19100000D03*
X10800000Y74100000D03*
X44400000Y46200000D03*
X93900000Y800000D03*
D36*
X49700000Y14500000D03*
D35*
X900000Y56100000D03*
X900000Y10000000D03*
X900000Y62200000D03*
D36*
X48600000Y10400000D03*
D35*
X86900000Y800000D03*
X94100000Y3500000D03*
X88400000Y44700000D03*
X29700000Y74100000D03*
X900000Y37100000D03*
X900000Y41100000D03*
X900000Y72100000D03*
D36*
X40600000Y57100000D03*
D35*
X94100000Y12500000D03*
X12900000Y74100000D03*
X10900000Y800000D03*
D36*
X57250000Y29750000D03*
D35*
X26900000Y800000D03*
X94100000Y27500000D03*
X80100000Y800000D03*
X94100000Y44100000D03*
X900000Y71000000D03*
X44500000Y65900000D03*
D36*
X36400000Y34300000D03*
D35*
X50400000Y44700000D03*
X65100000Y800000D03*
X75000000Y800000D03*
X7000000Y800000D03*
X59900000Y800000D03*
X44800000Y44700000D03*
X28800000Y74100000D03*
D36*
X52600000Y8400000D03*
D35*
X16900000Y800000D03*
D36*
X50600000Y14500000D03*
D35*
X3493007Y74107902D03*
X900000Y64100000D03*
X62500000Y44700000D03*
D36*
X50500000Y33750000D03*
X41375000Y56375000D03*
D35*
X79100000Y800000D03*
D36*
X58500000Y31250000D03*
D35*
X94100000Y2500000D03*
X87300000Y44700000D03*
X31000000Y800000D03*
D36*
X60700000Y30100000D03*
D35*
X52000000Y800000D03*
X35900000Y800000D03*
X33900000Y800000D03*
X74000000Y800000D03*
X68400000Y44700000D03*
X44500000Y65000000D03*
X94100000Y5600000D03*
X900000Y20100000D03*
X900000Y44000000D03*
X900000Y43000000D03*
X900000Y23100000D03*
X38900000Y74100000D03*
X76400000Y44700000D03*
X94100000Y18500000D03*
X63000000Y800000D03*
X41900000Y51400000D03*
X4000000Y800000D03*
X8800000Y74100000D03*
X59500000Y44700000D03*
X53300000Y44700000D03*
X6800000Y74100000D03*
X21800000Y800000D03*
X72500000Y44700000D03*
X900000Y39100000D03*
X94100000Y20500000D03*
X60500000Y44700000D03*
X94100000Y39400000D03*
X78100000Y800000D03*
X14900000Y74100000D03*
X48000000Y800000D03*
X26800000Y74100000D03*
X900000Y28100000D03*
D36*
X41375000Y55075000D03*
D35*
X56000000Y800000D03*
X44400000Y51000000D03*
X32800000Y74100000D03*
X44400000Y45400000D03*
X900000Y50100000D03*
X900000Y54100000D03*
X66400000Y44700000D03*
X45600000Y44700000D03*
X900000Y52200000D03*
X94100000Y11500000D03*
X44500000Y66900000D03*
X29000000Y800000D03*
D36*
X59500000Y27000000D03*
D35*
X900000Y13100000D03*
D36*
X38600000Y34300000D03*
X58500000Y27000000D03*
X58937500Y41250000D03*
D35*
X94100000Y42200000D03*
X74500000Y44700000D03*
D36*
X35300000Y57100000D03*
D35*
X81400000Y44700000D03*
X900000Y16200000D03*
D36*
X50000000Y7400000D03*
D35*
X23800000Y800000D03*
X900000Y24200000D03*
X900000Y12100000D03*
X900000Y33000000D03*
X900000Y800000D03*
X2900000Y800000D03*
X900000Y40100000D03*
D36*
X35400000Y55900000D03*
D35*
X900000Y29100000D03*
X23800000Y74100000D03*
X44500000Y70900000D03*
X42100000Y800000D03*
X900000Y18100000D03*
D36*
X43600000Y5100000D03*
D35*
X51300000Y44700000D03*
X18900000Y800000D03*
X94100000Y43200000D03*
X45100000Y800000D03*
X44500000Y72000000D03*
X900000Y30000000D03*
X41800000Y74100000D03*
X49400000Y44700000D03*
X85300000Y44700000D03*
X900000Y14100000D03*
X44500000Y69900000D03*
X94100000Y28600000D03*
X5600000Y74100000D03*
D36*
X40500000Y33000000D03*
D35*
X900000Y46000000D03*
X89900000Y44700000D03*
X58500000Y44700000D03*
D36*
X39500000Y33200000D03*
D35*
X39900000Y74100000D03*
D36*
X48300000Y8500000D03*
D35*
X17800000Y74100000D03*
X44500000Y67900000D03*
X94100000Y6600000D03*
X44400000Y47800000D03*
X11900000Y800000D03*
D36*
X39400000Y34300000D03*
D35*
X39000000Y800000D03*
X19800000Y74100000D03*
X900000Y15200000D03*
X54000000Y800000D03*
X64400000Y44700000D03*
X94100000Y31600000D03*
D36*
X36447211Y33270079D03*
D35*
X72000000Y800000D03*
X47000000Y800000D03*
X900000Y31000000D03*
X900000Y63100000D03*
X25800000Y74100000D03*
X900000Y60200000D03*
X42700000Y51400000D03*
X55000000Y800000D03*
X83400000Y44700000D03*
X900000Y3100000D03*
X45500000Y37100000D03*
D36*
X50000000Y9700000D03*
D35*
X28000000Y800000D03*
X94100000Y40300000D03*
X900000Y51200000D03*
X42900000Y37300000D03*
X94100000Y37400000D03*
X33800000Y74100000D03*
X35900000Y74100000D03*
D36*
%TO.N,VCC_SY*%
X43612500Y7600000D03*
X54400000Y11500000D03*
X43612500Y6100000D03*
%TO.N,Net-(J5-Pin_1)*%
X51400000Y6200000D03*
X46875000Y9500000D03*
%TO.N,VCC_LM*%
X48750000Y29250000D03*
X48750000Y28250000D03*
X46500000Y32250000D03*
X48750000Y32250000D03*
X44250000Y32250000D03*
X44250000Y29250000D03*
X46500000Y28250000D03*
X44250000Y28250000D03*
X48750000Y31250000D03*
X46500000Y27250000D03*
X46500000Y31250000D03*
X44250000Y30250000D03*
X48750000Y27250000D03*
X46500000Y29250000D03*
X44250000Y31250000D03*
X48750000Y30250000D03*
X44250000Y27250000D03*
X46500000Y30250000D03*
D35*
%TO.N,GND_ISO*%
X94000000Y50400000D03*
X94000000Y51600000D03*
X57850000Y50400000D03*
X56000000Y57900000D03*
X51300000Y72700000D03*
X60350000Y50400000D03*
X61500000Y50400000D03*
X61400000Y74100000D03*
X79250000Y50400000D03*
X94000000Y60200000D03*
X51300000Y71500000D03*
X70450000Y50400000D03*
X57750000Y74100000D03*
X60100000Y60900000D03*
X94000000Y54150000D03*
X86600000Y74100000D03*
X91500000Y50400000D03*
X51300000Y67900000D03*
X54400000Y61400000D03*
X52500000Y51600000D03*
X84100000Y50400000D03*
X54400000Y53900000D03*
X77950000Y74100000D03*
X51900000Y62400000D03*
X55150000Y74100000D03*
X53900000Y50400000D03*
X60000000Y57400000D03*
X72800000Y74100000D03*
X69050000Y74100000D03*
X54100000Y62300000D03*
X94000000Y72500000D03*
X85350000Y74100000D03*
X76600000Y74100000D03*
X78050000Y50400000D03*
X56400000Y74100000D03*
X51300000Y66600000D03*
X89150000Y74100000D03*
X66500000Y74100000D03*
X94000000Y59250000D03*
X57000000Y60800000D03*
X64000000Y50400000D03*
X71600000Y50400000D03*
X60700000Y58200000D03*
X65250000Y74100000D03*
X59050000Y50400000D03*
X63900000Y74100000D03*
X51300000Y65400000D03*
X94000000Y52800000D03*
X56000000Y61900000D03*
X90450000Y74100000D03*
X94000000Y63900000D03*
X94000000Y65100000D03*
X54400000Y52550000D03*
X94000000Y66450000D03*
X69150000Y50400000D03*
X51400000Y50400000D03*
X51300000Y64050000D03*
X81600000Y50400000D03*
X94000000Y67700000D03*
X51300000Y62800000D03*
X67950000Y50400000D03*
X51700000Y51600000D03*
X52700000Y50400000D03*
X62700000Y74100000D03*
X65350000Y50400000D03*
X93900000Y74100000D03*
X57600000Y57500000D03*
X54900000Y60800000D03*
X75350000Y74100000D03*
X94000000Y61400000D03*
X70350000Y74100000D03*
X58950000Y74100000D03*
X52700000Y62400000D03*
X82800000Y74100000D03*
X71500000Y74100000D03*
X72900000Y50400000D03*
X87950000Y74100000D03*
X89250000Y50400000D03*
X94000000Y70250000D03*
X94000000Y69050000D03*
X92600000Y74100000D03*
X60250000Y74100000D03*
X54400000Y56400000D03*
X52600000Y74100000D03*
X94000000Y57950000D03*
X51300000Y74000000D03*
X92700000Y50400000D03*
X94000000Y55400000D03*
X53400000Y62400000D03*
X54100000Y51600000D03*
X94000000Y56750000D03*
X62800000Y50400000D03*
X58000000Y60800000D03*
X94000000Y62700000D03*
X86700000Y50400000D03*
X66600000Y50400000D03*
X85450000Y50400000D03*
X88050000Y50400000D03*
X67850000Y74100000D03*
X53800000Y74100000D03*
X90550000Y50400000D03*
X75450000Y50400000D03*
X80450000Y74100000D03*
X84000000Y74100000D03*
X51300000Y70150000D03*
X59000000Y62000000D03*
X91400000Y74100000D03*
X54400000Y55100000D03*
X54400000Y60200000D03*
X80550000Y50400000D03*
X55250000Y50400000D03*
X56500000Y50400000D03*
X94000000Y71550000D03*
X79150000Y74100000D03*
X82900000Y50400000D03*
X55300000Y65000000D03*
X76700000Y50400000D03*
X74000000Y74100000D03*
X81500000Y74100000D03*
X74100000Y50400000D03*
X53300000Y51600000D03*
X51300000Y68900000D03*
%TD*%
D37*
%TO.N,VIN*%
X40010000Y13175000D02*
X29125000Y13175000D01*
X25000000Y36000000D02*
X28960000Y36000000D01*
X20500000Y28000000D02*
X20500000Y31500000D01*
X29000000Y36040000D02*
X29000000Y57975000D01*
X20500000Y14000000D02*
X28300000Y14000000D01*
X20500000Y28000000D02*
X20500000Y14000000D01*
X20500000Y31500000D02*
X25000000Y36000000D01*
X29125000Y13175000D02*
X28300000Y14000000D01*
X28960000Y36000000D02*
X29000000Y36040000D01*
D38*
%TO.N,GND*%
X51425000Y34750000D02*
X51500000Y34825000D01*
D37*
X39500000Y57175000D02*
X39500000Y55900000D01*
D38*
X43350000Y52555000D02*
X41355000Y52555000D01*
D39*
X41355000Y52555000D02*
X41300000Y52500000D01*
D38*
X41400000Y60200000D02*
X41375000Y60175000D01*
D37*
X40500000Y34275000D02*
X40500000Y33000000D01*
D38*
X58937500Y41250000D02*
X60750000Y41250000D01*
X43725000Y60200000D02*
X41400000Y60200000D01*
X51500000Y33750000D02*
X51500000Y34825000D01*
X43325000Y57600000D02*
X41400000Y57600000D01*
D37*
X37500000Y34275000D02*
X37500000Y33000000D01*
X36500000Y57075000D02*
X36500000Y55800000D01*
D38*
X43425000Y56400000D02*
X41500000Y56400000D01*
D37*
X59112500Y29150000D02*
X65500000Y29150000D01*
D38*
X43350000Y53825000D02*
X41425000Y53825000D01*
X50500000Y34750000D02*
X51425000Y34750000D01*
X41425000Y53825000D02*
X41400000Y53800000D01*
X43325000Y55100000D02*
X41400000Y55100000D01*
D37*
%TO.N,Net-(D1-K)*%
X44217500Y37717500D02*
X44217500Y36125000D01*
X31500000Y36000000D02*
X37500000Y36000000D01*
X37500000Y36000000D02*
X40500000Y36000000D01*
X44092500Y36000000D02*
X44217500Y36125000D01*
X40500000Y36000000D02*
X44092500Y36000000D01*
X46000000Y41000000D02*
X46000000Y39500000D01*
X46000000Y39500000D02*
X44217500Y37717500D01*
%TO.N,VCC_SY*%
X65065000Y13000000D02*
X58200000Y13000000D01*
D40*
X57112500Y14500000D02*
X57700000Y14500000D01*
D37*
X56700000Y11500000D02*
X53225000Y11500000D01*
D41*
X44787500Y7600000D02*
X43612500Y7600000D01*
D40*
X58200000Y14000000D02*
X58200000Y13000000D01*
D37*
X56700000Y8500000D02*
X56700000Y11500000D01*
D39*
X44837500Y7550000D02*
X44787500Y7600000D01*
D37*
X58200000Y13000000D02*
X56900000Y11700000D01*
D40*
X57700000Y14500000D02*
X58200000Y14000000D01*
D41*
X43612500Y6100000D02*
X44837500Y6100000D01*
%TO.N,Net-(J5-Pin_1)*%
X46875000Y11462500D02*
X46837500Y11500000D01*
D37*
X46837500Y11500000D02*
X46837500Y13000000D01*
D41*
X46875000Y9500000D02*
X46875000Y11462500D01*
X46875000Y9500000D02*
X48700000Y9500000D01*
D37*
X46837500Y14500000D02*
X46837500Y13000000D01*
X46662500Y13175000D02*
X46837500Y13000000D01*
X42550000Y13175000D02*
X46662500Y13175000D01*
D38*
X46837500Y13000000D02*
X46537500Y13300000D01*
D41*
X51400000Y7600000D02*
X51400000Y6200000D01*
D37*
%TO.N,Net-(D2-A)*%
X15360000Y38250000D02*
X15360000Y28000000D01*
D38*
%TO.N,Net-(D3-A)*%
X62437500Y41250000D02*
X64250000Y41250000D01*
D39*
%TO.N,Net-(U2-FB)*%
X46562500Y4600000D02*
X46612500Y4600000D01*
D37*
X46612500Y4600000D02*
X46612500Y7600000D01*
D41*
X48700000Y7600000D02*
X46612500Y7600000D01*
%TO.N,Net-(J10-Pin_1)*%
X40445000Y61445000D02*
X39500000Y60500000D01*
D37*
X33725000Y57975000D02*
X34612500Y58862500D01*
X34612500Y58862500D02*
X36500000Y58862500D01*
D41*
X39500000Y60500000D02*
X39500000Y58862500D01*
X39542500Y58905000D02*
X39500000Y58862500D01*
X43350000Y61445000D02*
X40445000Y61445000D01*
D37*
X31540000Y57975000D02*
X33725000Y57975000D01*
D41*
X43350000Y58905000D02*
X39542500Y58905000D01*
D37*
X36500000Y58862500D02*
X39500000Y58862500D01*
%TO.N,VCC_LM*%
X63250000Y35675000D02*
X61500000Y35675000D01*
D38*
X66075000Y40075000D02*
X65000000Y39000000D01*
D37*
X61500000Y35675000D02*
X58175000Y35675000D01*
X57325000Y34825000D02*
X55500000Y34825000D01*
D39*
X47172500Y29150000D02*
X46497500Y29825000D01*
D38*
X65000000Y39000000D02*
X64250000Y39000000D01*
X63250000Y38000000D02*
X63250000Y35675000D01*
D37*
X55500000Y34825000D02*
X55500000Y39500000D01*
X61500000Y35675000D02*
X65790000Y35675000D01*
X54000000Y41000000D02*
X51000000Y41000000D01*
X58175000Y35675000D02*
X57325000Y34825000D01*
D38*
X66075000Y41250000D02*
X66075000Y40075000D01*
D37*
X55500000Y34825000D02*
X53500000Y34825000D01*
D38*
X64250000Y39000000D02*
X63250000Y38000000D01*
D37*
X55500000Y39500000D02*
X54000000Y41000000D01*
D40*
%TO.N,Net-(D4-A)*%
X16775000Y21500000D02*
X18675000Y21500000D01*
D37*
%TO.N,Net-(D5-A)*%
X5460000Y14000000D02*
X15500000Y14000000D01*
D41*
%TO.N,VCC_ISO*%
X69500000Y62500000D02*
X72040000Y62500000D01*
X61500000Y61000000D02*
X61500000Y65000000D01*
X63000000Y59080000D02*
X63000000Y59500000D01*
X69500000Y60200000D02*
X69500000Y62500000D01*
X63000000Y59500000D02*
X61500000Y61000000D01*
X59057500Y59080000D02*
X59000000Y59137500D01*
X68380000Y59080000D02*
X69500000Y60200000D01*
X63000000Y59080000D02*
X59057500Y59080000D01*
X56000000Y59000000D02*
X58862500Y59000000D01*
X63000000Y59080000D02*
X68380000Y59080000D01*
X52650000Y58905000D02*
X55905000Y58905000D01*
X58862500Y59000000D02*
X59000000Y59137500D01*
X55905000Y58905000D02*
X56000000Y59000000D01*
%TO.N,GND_ISO*%
X52650000Y52555000D02*
X54395000Y52555000D01*
X56250000Y65000000D02*
X55300000Y65000000D01*
X54395000Y52555000D02*
X54400000Y52550000D01*
X72040000Y54000000D02*
X69500000Y54000000D01*
D40*
%TO.N,Net-(D6-A)*%
X55287500Y14500000D02*
X53237500Y14500000D01*
D41*
%TO.N,Net-(D7-A)*%
X59675000Y65000000D02*
X58000000Y65000000D01*
D40*
%TO.N,Net-(J12-Pin_2)*%
X56060000Y56540000D02*
X63000000Y56540000D01*
X54965000Y57635000D02*
X56060000Y56540000D01*
X52650000Y57635000D02*
X54965000Y57635000D01*
D39*
%TO.N,Net-(U2-LX)*%
X54315000Y8785000D02*
X54315000Y8100000D01*
D38*
X54315000Y9500000D02*
X54315000Y8100000D01*
D41*
X51400000Y9500000D02*
X54315000Y9500000D01*
D37*
%TO.N,Net-(U1-ADJ)*%
X51500000Y36650000D02*
X53500000Y36650000D01*
D39*
X49302500Y36650000D02*
X48777500Y36125000D01*
D37*
X51500000Y36650000D02*
X49302500Y36650000D01*
%TD*%
%TA.AperFunction,Conductor*%
%TO.N,Net-(U2-LX)*%
G36*
X55159191Y10481093D02*
G01*
X55195155Y10431593D01*
X55200000Y10401000D01*
X55200000Y6099000D01*
X55181093Y6040809D01*
X55131593Y6004845D01*
X55101000Y6000000D01*
X53299000Y6000000D01*
X53240809Y6018907D01*
X53204845Y6068407D01*
X53200000Y6099000D01*
X53200000Y8999999D01*
X53200000Y9000000D01*
X53199999Y9000000D01*
X52278822Y9000000D01*
X52235342Y9010059D01*
X52225040Y9015096D01*
X52122509Y9065220D01*
X52051949Y9075500D01*
X52051946Y9075500D01*
X50799000Y9075500D01*
X50740809Y9094407D01*
X50704845Y9143907D01*
X50700000Y9174500D01*
X50700000Y10401000D01*
X50718907Y10459191D01*
X50768407Y10495155D01*
X50799000Y10500000D01*
X55101000Y10500000D01*
X55159191Y10481093D01*
G37*
%TD.AperFunction*%
%TD*%
%TA.AperFunction,Conductor*%
%TO.N,VCC_LM*%
G36*
X55508059Y35498939D02*
G01*
X55613223Y35485094D01*
X55644491Y35476716D01*
X55734918Y35439260D01*
X55762952Y35423075D01*
X55840602Y35363491D01*
X55863491Y35340602D01*
X55923074Y35262952D01*
X55939259Y35234919D01*
X55976715Y35144492D01*
X55985093Y35113225D01*
X55998939Y35008061D01*
X56000000Y34991875D01*
X56000000Y27508126D01*
X55998939Y27491940D01*
X55985093Y27386776D01*
X55976715Y27355509D01*
X55939259Y27265082D01*
X55923074Y27237049D01*
X55863491Y27159399D01*
X55840601Y27136509D01*
X55762951Y27076926D01*
X55734918Y27060741D01*
X55644491Y27023285D01*
X55613224Y27014907D01*
X55519398Y27002554D01*
X55508058Y27001061D01*
X55491874Y27000000D01*
X45008126Y27000000D01*
X44991941Y27001061D01*
X44978917Y27002776D01*
X44886775Y27014907D01*
X44855508Y27023285D01*
X44765081Y27060741D01*
X44737048Y27076926D01*
X44659398Y27136509D01*
X44636508Y27159399D01*
X44576925Y27237049D01*
X44560740Y27265082D01*
X44523284Y27355509D01*
X44514906Y27386777D01*
X44501061Y27491941D01*
X44500000Y27508126D01*
X44500000Y32491875D01*
X44501061Y32508060D01*
X44514906Y32613224D01*
X44523284Y32644492D01*
X44560740Y32734919D01*
X44576923Y32762950D01*
X44636513Y32840608D01*
X44659392Y32863487D01*
X44737050Y32923077D01*
X44765079Y32939260D01*
X44855509Y32976717D01*
X44886775Y32985094D01*
X44991941Y32998939D01*
X45008126Y33000000D01*
X51999993Y33000000D01*
X52000000Y33000000D01*
X52500000Y33000000D01*
X52500000Y34991875D01*
X52501061Y35008060D01*
X52514906Y35113224D01*
X52523284Y35144492D01*
X52560740Y35234919D01*
X52576923Y35262950D01*
X52636513Y35340608D01*
X52659392Y35363487D01*
X52737050Y35423077D01*
X52765079Y35439260D01*
X52855509Y35476717D01*
X52886775Y35485094D01*
X52991941Y35498939D01*
X53008126Y35500000D01*
X55491874Y35500000D01*
X55508059Y35498939D01*
G37*
%TD.AperFunction*%
%TD*%
%TA.AperFunction,Conductor*%
%TO.N,GND*%
G36*
X14034075Y5192993D02*
G01*
X14000000Y5065826D01*
X14000000Y4934174D01*
X14034075Y4807007D01*
X14066988Y4750000D01*
X12393012Y4750000D01*
X12425925Y4807007D01*
X12460000Y4934174D01*
X12460000Y5065826D01*
X12425925Y5192993D01*
X12393012Y5250000D01*
X14066988Y5250000D01*
X14034075Y5192993D01*
G37*
%TD.AperFunction*%
%TA.AperFunction,Conductor*%
G36*
X64574075Y6692993D02*
G01*
X64540000Y6565826D01*
X64540000Y6434174D01*
X64574075Y6307007D01*
X64606988Y6250000D01*
X62933012Y6250000D01*
X62965925Y6307007D01*
X63000000Y6434174D01*
X63000000Y6565826D01*
X62965925Y6692993D01*
X62933012Y6750000D01*
X64606988Y6750000D01*
X64574075Y6692993D01*
G37*
%TD.AperFunction*%
%TA.AperFunction,Conductor*%
G36*
X65034075Y29342993D02*
G01*
X65000000Y29215826D01*
X65000000Y29084174D01*
X65034075Y28957007D01*
X65066988Y28900000D01*
X63393012Y28900000D01*
X63425925Y28957007D01*
X63460000Y29084174D01*
X63460000Y29215826D01*
X63425925Y29342993D01*
X63393012Y29400000D01*
X65066988Y29400000D01*
X65034075Y29342993D01*
G37*
%TD.AperFunction*%
%TA.AperFunction,Conductor*%
G36*
X44754157Y74479815D02*
G01*
X44796474Y74433955D01*
X44818122Y74393456D01*
X44827424Y74370999D01*
X44877240Y74206776D01*
X44881982Y74182935D01*
X44899403Y74006062D01*
X44900000Y73993908D01*
X44900000Y45100000D01*
X93896128Y45100000D01*
X93908264Y45099406D01*
X94084900Y45082033D01*
X94108702Y45077305D01*
X94272718Y45027627D01*
X94295144Y45018351D01*
X94433878Y44944319D01*
X94483756Y44895391D01*
X94499500Y44834921D01*
X94499500Y624500D01*
X94479815Y557461D01*
X94427011Y511706D01*
X94375500Y500500D01*
X624500Y500500D01*
X557461Y520185D01*
X511706Y572989D01*
X500500Y624500D01*
X500500Y5000000D01*
X1594506Y5000000D01*
X1608060Y4750000D01*
X1614469Y4631804D01*
X1614470Y4631787D01*
X1674122Y4267932D01*
X1674128Y4267906D01*
X1772768Y3912635D01*
X1772770Y3912629D01*
X1772772Y3912623D01*
X1772773Y3912621D01*
X1774651Y3907907D01*
X1909255Y3570074D01*
X1909261Y3570062D01*
X2081973Y3244292D01*
X2081976Y3244287D01*
X2081978Y3244284D01*
X2288910Y2939083D01*
X2527627Y2658044D01*
X2795330Y2404462D01*
X3088881Y2181310D01*
X3404838Y1991205D01*
X3404840Y1991204D01*
X3404842Y1991203D01*
X3404846Y1991201D01*
X3739486Y1836380D01*
X3739497Y1836375D01*
X4088934Y1718636D01*
X4449052Y1639368D01*
X4815630Y1599500D01*
X4815636Y1599500D01*
X5184364Y1599500D01*
X5184370Y1599500D01*
X5550948Y1639368D01*
X5911066Y1718636D01*
X6260503Y1836375D01*
X6595162Y1991205D01*
X6911119Y2181310D01*
X7204670Y2404462D01*
X7472373Y2658044D01*
X7711090Y2939083D01*
X7918022Y3244284D01*
X8090743Y3570070D01*
X8227227Y3912621D01*
X8325875Y4267919D01*
X8363923Y4500000D01*
X8385529Y4631787D01*
X8385529Y4631790D01*
X8385531Y4631801D01*
X8405494Y5000000D01*
X8385531Y5368199D01*
X8380301Y5400099D01*
X8325877Y5732069D01*
X8325876Y5732070D01*
X8325875Y5732081D01*
X8287282Y5871080D01*
X8279851Y5897845D01*
X10610000Y5897845D01*
X10610000Y5250000D01*
X11526988Y5250000D01*
X11494075Y5192993D01*
X11460000Y5065826D01*
X11460000Y4934174D01*
X11494075Y4807007D01*
X11526988Y4750000D01*
X10610000Y4750000D01*
X10610000Y4102156D01*
X10616401Y4042628D01*
X10616403Y4042621D01*
X10666645Y3907914D01*
X10666649Y3907907D01*
X10752809Y3792813D01*
X10752812Y3792810D01*
X10867906Y3706650D01*
X10867913Y3706646D01*
X11002620Y3656404D01*
X11002627Y3656402D01*
X11062155Y3650001D01*
X11062172Y3650000D01*
X11710000Y3650000D01*
X11710000Y4566988D01*
X11767007Y4534075D01*
X11894174Y4500000D01*
X12025826Y4500000D01*
X12152993Y4534075D01*
X12210000Y4566988D01*
X12210000Y3650000D01*
X12857828Y3650000D01*
X12857844Y3650001D01*
X12917372Y3656402D01*
X12917379Y3656404D01*
X13052086Y3706646D01*
X13052093Y3706650D01*
X13167187Y3792810D01*
X13167190Y3792813D01*
X13253350Y3907907D01*
X13253354Y3907914D01*
X13302614Y4039987D01*
X13344485Y4095921D01*
X13409949Y4120338D01*
X13478222Y4105487D01*
X13506477Y4084335D01*
X13628917Y3961895D01*
X13822421Y3826400D01*
X14036507Y3726571D01*
X14036516Y3726567D01*
X14250000Y3669366D01*
X14250000Y4566988D01*
X14307007Y4534075D01*
X14434174Y4500000D01*
X14565826Y4500000D01*
X14692993Y4534075D01*
X14750000Y4566988D01*
X14750000Y3669367D01*
X14963483Y3726567D01*
X14963492Y3726571D01*
X15177578Y3826400D01*
X15371082Y3961895D01*
X15538105Y4128918D01*
X15673600Y4322422D01*
X15773429Y4536508D01*
X15773432Y4536514D01*
X15830636Y4750000D01*
X14933012Y4750000D01*
X14965925Y4807007D01*
X15000000Y4934174D01*
X15000000Y5065826D01*
X14965925Y5192993D01*
X14933012Y5250000D01*
X15830636Y5250000D01*
X15830635Y5250001D01*
X15773432Y5463487D01*
X15773429Y5463493D01*
X15673600Y5677578D01*
X15673599Y5677580D01*
X15538113Y5871074D01*
X15538108Y5871080D01*
X15371082Y6038106D01*
X15177578Y6173601D01*
X14963492Y6273430D01*
X14963486Y6273433D01*
X14750000Y6330636D01*
X14750000Y5433012D01*
X14692993Y5465925D01*
X14565826Y5500000D01*
X14434174Y5500000D01*
X14307007Y5465925D01*
X14250000Y5433012D01*
X14250000Y6330636D01*
X14249999Y6330636D01*
X14036513Y6273433D01*
X14036507Y6273430D01*
X13822422Y6173601D01*
X13822420Y6173600D01*
X13628926Y6038114D01*
X13506477Y5915665D01*
X13445154Y5882181D01*
X13375462Y5887165D01*
X13319529Y5929037D01*
X13302614Y5960014D01*
X13253354Y6092087D01*
X13253350Y6092094D01*
X13167190Y6207188D01*
X13167187Y6207191D01*
X13052093Y6293351D01*
X13052086Y6293355D01*
X12917379Y6343597D01*
X12917372Y6343599D01*
X12857844Y6350000D01*
X12210000Y6350000D01*
X12210000Y5433012D01*
X12152993Y5465925D01*
X12025826Y5500000D01*
X11894174Y5500000D01*
X11767007Y5465925D01*
X11710000Y5433012D01*
X11710000Y6350000D01*
X11062155Y6350000D01*
X11002627Y6343599D01*
X11002620Y6343597D01*
X10867913Y6293355D01*
X10867906Y6293351D01*
X10752812Y6207191D01*
X10752809Y6207188D01*
X10666649Y6092094D01*
X10666645Y6092087D01*
X10616403Y5957380D01*
X10616401Y5957373D01*
X10610000Y5897845D01*
X8279851Y5897845D01*
X8227231Y6087366D01*
X8227229Y6087372D01*
X8227228Y6087373D01*
X8227227Y6087379D01*
X8090743Y6429930D01*
X7932125Y6729115D01*
X7918026Y6755709D01*
X7918024Y6755712D01*
X7918022Y6755716D01*
X7711090Y7060917D01*
X7472373Y7341956D01*
X7204670Y7595538D01*
X7198800Y7600000D01*
X43106853Y7600000D01*
X43107495Y7595538D01*
X43110738Y7572980D01*
X43112000Y7555333D01*
X43112000Y7534106D01*
X43119423Y7506404D01*
X43122385Y7491963D01*
X43127335Y7457544D01*
X43127337Y7457536D01*
X43135569Y7439511D01*
X43142550Y7420093D01*
X43146107Y7406817D01*
X43146110Y7406810D01*
X43164181Y7375509D01*
X43169586Y7365026D01*
X43187123Y7326627D01*
X43195194Y7317313D01*
X43208868Y7298110D01*
X43211997Y7292690D01*
X43212001Y7292685D01*
X43242822Y7261864D01*
X43248854Y7255385D01*
X43281370Y7217859D01*
X43281374Y7217855D01*
X43285428Y7215250D01*
X43300711Y7202934D01*
X43305184Y7199502D01*
X43305186Y7199500D01*
X43349387Y7173981D01*
X43354371Y7170944D01*
X43402447Y7140047D01*
X43402450Y7140046D01*
X43402452Y7140045D01*
X43403494Y7139569D01*
X43413121Y7136173D01*
X43419311Y7133610D01*
X43419314Y7133608D01*
X43475761Y7118484D01*
X43478598Y7117688D01*
X43540539Y7099500D01*
X43546608Y7099500D01*
X44124634Y7099500D01*
X44191673Y7079815D01*
X44217480Y7055623D01*
X44217718Y7055860D01*
X44224288Y7049290D01*
X44224289Y7049289D01*
X44330525Y6970884D01*
X44341508Y6967041D01*
X44398283Y6926318D01*
X44424029Y6861365D01*
X44410572Y6792803D01*
X44362183Y6742401D01*
X44341508Y6732959D01*
X44330522Y6729115D01*
X44224289Y6650712D01*
X44217718Y6644140D01*
X44216779Y6645079D01*
X44168758Y6608616D01*
X44124634Y6600500D01*
X43540539Y6600500D01*
X43478645Y6582327D01*
X43475807Y6581531D01*
X43419317Y6566394D01*
X43413109Y6563823D01*
X43403485Y6560428D01*
X43402449Y6559955D01*
X43354415Y6529086D01*
X43349380Y6526017D01*
X43305189Y6500503D01*
X43300766Y6497108D01*
X43285445Y6484762D01*
X43281377Y6482148D01*
X43281368Y6482140D01*
X43248855Y6444617D01*
X43242824Y6438140D01*
X43211998Y6407314D01*
X43208864Y6401885D01*
X43195201Y6382697D01*
X43187123Y6373374D01*
X43187123Y6373373D01*
X43169588Y6334981D01*
X43164187Y6324505D01*
X43146107Y6293187D01*
X43146106Y6293184D01*
X43142546Y6279897D01*
X43135569Y6260489D01*
X43127335Y6242459D01*
X43122386Y6208044D01*
X43119425Y6193606D01*
X43112000Y6165895D01*
X43112000Y6144669D01*
X43110738Y6127023D01*
X43106853Y6100000D01*
X43107990Y6092094D01*
X43110738Y6072980D01*
X43112000Y6055333D01*
X43112000Y6034106D01*
X43119423Y6006404D01*
X43122385Y5991963D01*
X43127335Y5957544D01*
X43127337Y5957536D01*
X43135569Y5939511D01*
X43142550Y5920093D01*
X43146107Y5906817D01*
X43146110Y5906810D01*
X43164181Y5875509D01*
X43169586Y5865026D01*
X43187123Y5826627D01*
X43194722Y5817857D01*
X43195194Y5817313D01*
X43208868Y5798110D01*
X43211997Y5792690D01*
X43212001Y5792685D01*
X43242822Y5761864D01*
X43248854Y5755385D01*
X43281370Y5717859D01*
X43281374Y5717855D01*
X43285428Y5715250D01*
X43300711Y5702934D01*
X43305184Y5699502D01*
X43305186Y5699500D01*
X43349387Y5673981D01*
X43354371Y5670944D01*
X43402447Y5640047D01*
X43402450Y5640046D01*
X43402452Y5640045D01*
X43403494Y5639569D01*
X43413121Y5636173D01*
X43419311Y5633610D01*
X43419314Y5633608D01*
X43468841Y5620338D01*
X43475761Y5618484D01*
X43478598Y5617688D01*
X43540539Y5599500D01*
X43546608Y5599500D01*
X44124634Y5599500D01*
X44191673Y5579815D01*
X44217480Y5555623D01*
X44217718Y5555860D01*
X44224289Y5549289D01*
X44330523Y5470885D01*
X44330524Y5470885D01*
X44330525Y5470884D01*
X44455151Y5427275D01*
X44455150Y5427275D01*
X44484740Y5424500D01*
X44484744Y5424500D01*
X45090260Y5424500D01*
X45119849Y5427275D01*
X45244475Y5470884D01*
X45350711Y5549289D01*
X45429116Y5655525D01*
X45472725Y5780151D01*
X45473900Y5792685D01*
X45475500Y5809740D01*
X45475500Y6390261D01*
X45472725Y6419850D01*
X45429115Y6544477D01*
X45350712Y6650710D01*
X45350709Y6650712D01*
X45283909Y6700013D01*
X45243188Y6730066D01*
X45200938Y6785713D01*
X45195479Y6855369D01*
X45228546Y6916919D01*
X45275864Y6946877D01*
X45344475Y6970884D01*
X45450711Y7049289D01*
X45529116Y7155525D01*
X45572725Y7280151D01*
X45573900Y7292685D01*
X45575500Y7309740D01*
X45575500Y7890261D01*
X45824500Y7890261D01*
X45824500Y7309740D01*
X45827274Y7280151D01*
X45849985Y7215250D01*
X45870884Y7155525D01*
X45887060Y7133608D01*
X45887770Y7132646D01*
X45911741Y7067017D01*
X45912000Y7059012D01*
X45912000Y4531006D01*
X45922117Y4480148D01*
X45924500Y4455955D01*
X45924500Y4309740D01*
X45927274Y4280151D01*
X45970884Y4155524D01*
X46049288Y4049290D01*
X46049289Y4049289D01*
X46155523Y3970885D01*
X46155524Y3970885D01*
X46155525Y3970884D01*
X46280151Y3927275D01*
X46280150Y3927275D01*
X46309740Y3924500D01*
X46309744Y3924500D01*
X46405613Y3924500D01*
X46429803Y3922118D01*
X46455963Y3916914D01*
X46543504Y3899500D01*
X46543507Y3899500D01*
X46681495Y3899500D01*
X46760005Y3915118D01*
X46795196Y3922118D01*
X46819387Y3924500D01*
X46915260Y3924500D01*
X46944849Y3927275D01*
X47069475Y3970884D01*
X47175711Y4049289D01*
X47254116Y4155525D01*
X47297725Y4280151D01*
X47300500Y4309744D01*
X47300500Y4455955D01*
X47302883Y4480148D01*
X47313000Y4531006D01*
X47313000Y5000000D01*
X86594506Y5000000D01*
X86608060Y4750000D01*
X86614469Y4631804D01*
X86614470Y4631787D01*
X86674122Y4267932D01*
X86674128Y4267906D01*
X86772768Y3912635D01*
X86772770Y3912629D01*
X86772772Y3912623D01*
X86772773Y3912621D01*
X86774651Y3907907D01*
X86909255Y3570074D01*
X86909261Y3570062D01*
X87081973Y3244292D01*
X87081976Y3244287D01*
X87081978Y3244284D01*
X87288910Y2939083D01*
X87527627Y2658044D01*
X87795330Y2404462D01*
X88088881Y2181310D01*
X88404838Y1991205D01*
X88404840Y1991204D01*
X88404842Y1991203D01*
X88404846Y1991201D01*
X88739486Y1836380D01*
X88739497Y1836375D01*
X89088934Y1718636D01*
X89449052Y1639368D01*
X89815630Y1599500D01*
X89815636Y1599500D01*
X90184364Y1599500D01*
X90184370Y1599500D01*
X90550948Y1639368D01*
X90911066Y1718636D01*
X91260503Y1836375D01*
X91595162Y1991205D01*
X91911119Y2181310D01*
X92204670Y2404462D01*
X92472373Y2658044D01*
X92711090Y2939083D01*
X92918022Y3244284D01*
X93090743Y3570070D01*
X93227227Y3912621D01*
X93325875Y4267919D01*
X93363923Y4500000D01*
X93385529Y4631787D01*
X93385529Y4631790D01*
X93385531Y4631801D01*
X93405494Y5000000D01*
X93385531Y5368199D01*
X93380301Y5400099D01*
X93325877Y5732069D01*
X93325876Y5732070D01*
X93325875Y5732081D01*
X93287282Y5871080D01*
X93227231Y6087366D01*
X93227229Y6087372D01*
X93227228Y6087373D01*
X93227227Y6087379D01*
X93090743Y6429930D01*
X92932125Y6729115D01*
X92918026Y6755709D01*
X92918024Y6755712D01*
X92918022Y6755716D01*
X92711090Y7060917D01*
X92472373Y7341956D01*
X92204670Y7595538D01*
X92198800Y7600000D01*
X92101980Y7673601D01*
X91911119Y7818690D01*
X91595162Y8008795D01*
X91595161Y8008796D01*
X91595157Y8008798D01*
X91595153Y8008800D01*
X91260513Y8163621D01*
X91260508Y8163623D01*
X91260503Y8163625D01*
X91066133Y8229116D01*
X90911065Y8281365D01*
X90550946Y8360633D01*
X90184371Y8400500D01*
X90184370Y8400500D01*
X89815630Y8400500D01*
X89815628Y8400500D01*
X89449053Y8360633D01*
X89088934Y8281365D01*
X88818812Y8190350D01*
X88739497Y8163625D01*
X88739494Y8163624D01*
X88739486Y8163621D01*
X88404846Y8008800D01*
X88404842Y8008798D01*
X88179765Y7873373D01*
X88088881Y7818690D01*
X88037850Y7779897D01*
X87795330Y7595539D01*
X87795330Y7595538D01*
X87527626Y7341956D01*
X87288909Y7060917D01*
X87081979Y6755718D01*
X87081973Y6755709D01*
X86909261Y6429939D01*
X86909255Y6429927D01*
X86772770Y6087372D01*
X86772768Y6087366D01*
X86674128Y5732095D01*
X86674122Y5732069D01*
X86614470Y5368214D01*
X86614469Y5368201D01*
X86614469Y5368199D01*
X86594506Y5000000D01*
X47313000Y5000000D01*
X47313000Y6975500D01*
X47332685Y7042539D01*
X47385489Y7088294D01*
X47437000Y7099500D01*
X47918693Y7099500D01*
X47973154Y7086900D01*
X47977488Y7084781D01*
X47977489Y7084781D01*
X47977491Y7084780D01*
X48048051Y7074500D01*
X49351948Y7074501D01*
X49351950Y7074501D01*
X49388426Y7079815D01*
X49422509Y7084780D01*
X49531347Y7137988D01*
X49617012Y7223653D01*
X49670220Y7332491D01*
X49680500Y7403051D01*
X49680499Y7796948D01*
X49680499Y7796949D01*
X50419500Y7796949D01*
X50419500Y7796945D01*
X50419500Y7796944D01*
X50419500Y7403050D01*
X50429779Y7332494D01*
X50429779Y7332493D01*
X50429780Y7332491D01*
X50441576Y7308363D01*
X50482989Y7223651D01*
X50568651Y7137989D01*
X50677488Y7084781D01*
X50677489Y7084781D01*
X50677491Y7084780D01*
X50748051Y7074500D01*
X50775498Y7074501D01*
X50842536Y7054819D01*
X50888293Y7002016D01*
X50899500Y6950501D01*
X50899500Y6244669D01*
X50898238Y6227023D01*
X50895387Y6207191D01*
X50894353Y6200000D01*
X50895996Y6188573D01*
X50898238Y6172980D01*
X50899500Y6155333D01*
X50899500Y6134106D01*
X50906923Y6106404D01*
X50909885Y6091963D01*
X50914835Y6057544D01*
X50914837Y6057536D01*
X50923069Y6039511D01*
X50930050Y6020093D01*
X50933607Y6006817D01*
X50933610Y6006810D01*
X50951681Y5975509D01*
X50957086Y5965026D01*
X50974623Y5926627D01*
X50982694Y5917313D01*
X50996368Y5898110D01*
X50999497Y5892690D01*
X50999501Y5892685D01*
X51030322Y5861864D01*
X51036354Y5855385D01*
X51068870Y5817859D01*
X51068874Y5817855D01*
X51072928Y5815250D01*
X51088211Y5802934D01*
X51092689Y5799498D01*
X51101346Y5794500D01*
X51136887Y5773981D01*
X51141871Y5770944D01*
X51189947Y5740047D01*
X51189950Y5740046D01*
X51189952Y5740045D01*
X51190994Y5739569D01*
X51200621Y5736173D01*
X51206811Y5733610D01*
X51206814Y5733608D01*
X51263246Y5718488D01*
X51263261Y5718484D01*
X51266098Y5717688D01*
X51328039Y5699500D01*
X51471963Y5699500D01*
X51471963Y5699501D01*
X51510226Y5710737D01*
X51533902Y5717688D01*
X51536681Y5718469D01*
X51593186Y5733608D01*
X51593189Y5733611D01*
X51599367Y5736168D01*
X51608996Y5739566D01*
X51610045Y5740045D01*
X51610053Y5740047D01*
X51658087Y5770918D01*
X51663102Y5773975D01*
X51707314Y5799500D01*
X51707321Y5799508D01*
X51711828Y5802965D01*
X51727067Y5815248D01*
X51731128Y5817857D01*
X51763653Y5855395D01*
X51769673Y5861860D01*
X51783322Y5875509D01*
X51800500Y5892686D01*
X51803628Y5898106D01*
X51817306Y5917313D01*
X51825377Y5926627D01*
X51842912Y5965026D01*
X51848311Y5975498D01*
X51866392Y6006814D01*
X51869952Y6020102D01*
X51876934Y6039521D01*
X51885164Y6057541D01*
X51885163Y6057541D01*
X51885165Y6057543D01*
X51890111Y6091947D01*
X51893074Y6106394D01*
X51894263Y6110835D01*
X51900500Y6134108D01*
X51900500Y6155333D01*
X51901762Y6172980D01*
X51904004Y6188573D01*
X51905647Y6200000D01*
X51904613Y6207191D01*
X51901762Y6227023D01*
X51900500Y6244669D01*
X51900500Y6950501D01*
X51920185Y7017540D01*
X51972989Y7063295D01*
X52024500Y7074501D01*
X52051950Y7074501D01*
X52088426Y7079815D01*
X52122509Y7084780D01*
X52231347Y7137988D01*
X52317012Y7223653D01*
X52370220Y7332491D01*
X52380500Y7403051D01*
X52380499Y7796948D01*
X52375591Y7830636D01*
X52370220Y7867507D01*
X52370220Y7867509D01*
X52317012Y7976347D01*
X52317010Y7976349D01*
X52317010Y7976350D01*
X52231348Y8062012D01*
X52122511Y8115220D01*
X52104869Y8117790D01*
X52051949Y8125500D01*
X52051943Y8125500D01*
X50748049Y8125500D01*
X50677493Y8115221D01*
X50568650Y8062011D01*
X50482988Y7976349D01*
X50429780Y7867512D01*
X50426296Y7843597D01*
X50419500Y7796949D01*
X49680499Y7796949D01*
X49675591Y7830636D01*
X49670220Y7867507D01*
X49670220Y7867509D01*
X49617012Y7976347D01*
X49617010Y7976349D01*
X49617010Y7976350D01*
X49531348Y8062012D01*
X49422511Y8115220D01*
X49404869Y8117790D01*
X49351949Y8125500D01*
X49351943Y8125500D01*
X48048049Y8125500D01*
X47977492Y8115221D01*
X47973155Y8113100D01*
X47918694Y8100500D01*
X47275366Y8100500D01*
X47208327Y8120185D01*
X47182519Y8144378D01*
X47182282Y8144140D01*
X47175710Y8150712D01*
X47069476Y8229116D01*
X46944848Y8272726D01*
X46944849Y8272726D01*
X46915260Y8275500D01*
X46915256Y8275500D01*
X46819387Y8275500D01*
X46795196Y8277883D01*
X46760005Y8284883D01*
X46681495Y8300500D01*
X46681493Y8300500D01*
X46543507Y8300500D01*
X46543505Y8300500D01*
X46464994Y8284883D01*
X46429803Y8277883D01*
X46405613Y8275500D01*
X46209740Y8275500D01*
X46180150Y8272726D01*
X46055523Y8229116D01*
X45949289Y8150712D01*
X45949288Y8150711D01*
X45870884Y8044477D01*
X45827274Y7919850D01*
X45824500Y7890261D01*
X45575500Y7890261D01*
X45572725Y7919850D01*
X45529115Y8044477D01*
X45450711Y8150711D01*
X45450710Y8150712D01*
X45344476Y8229116D01*
X45219848Y8272726D01*
X45219849Y8272726D01*
X45190260Y8275500D01*
X45190256Y8275500D01*
X44484744Y8275500D01*
X44484740Y8275500D01*
X44455150Y8272726D01*
X44330523Y8229116D01*
X44224289Y8150712D01*
X44217718Y8144140D01*
X44216779Y8145079D01*
X44168758Y8108616D01*
X44124634Y8100500D01*
X43540539Y8100500D01*
X43478645Y8082327D01*
X43475807Y8081531D01*
X43419317Y8066394D01*
X43413109Y8063823D01*
X43403485Y8060428D01*
X43402449Y8059955D01*
X43354415Y8029086D01*
X43349380Y8026017D01*
X43305189Y8000503D01*
X43300766Y7997108D01*
X43285445Y7984762D01*
X43281377Y7982148D01*
X43281368Y7982140D01*
X43248855Y7944617D01*
X43242824Y7938140D01*
X43211998Y7907314D01*
X43208864Y7901885D01*
X43195201Y7882697D01*
X43187123Y7873374D01*
X43187123Y7873373D01*
X43169588Y7834981D01*
X43164187Y7824505D01*
X43146107Y7793187D01*
X43146106Y7793184D01*
X43142546Y7779897D01*
X43135569Y7760489D01*
X43127335Y7742459D01*
X43122386Y7708044D01*
X43119425Y7693606D01*
X43112000Y7665895D01*
X43112000Y7644669D01*
X43110738Y7627023D01*
X43106853Y7600000D01*
X7198800Y7600000D01*
X7101980Y7673601D01*
X6911119Y7818690D01*
X6595162Y8008795D01*
X6595161Y8008796D01*
X6595157Y8008798D01*
X6595153Y8008800D01*
X6260513Y8163621D01*
X6260508Y8163623D01*
X6260503Y8163625D01*
X6066133Y8229116D01*
X5911065Y8281365D01*
X5550946Y8360633D01*
X5184371Y8400500D01*
X5184370Y8400500D01*
X4815630Y8400500D01*
X4815628Y8400500D01*
X4449053Y8360633D01*
X4088934Y8281365D01*
X3818812Y8190350D01*
X3739497Y8163625D01*
X3739494Y8163624D01*
X3739486Y8163621D01*
X3404846Y8008800D01*
X3404842Y8008798D01*
X3179765Y7873373D01*
X3088881Y7818690D01*
X3037850Y7779897D01*
X2795330Y7595539D01*
X2795330Y7595538D01*
X2527626Y7341956D01*
X2288909Y7060917D01*
X2081979Y6755718D01*
X2081973Y6755709D01*
X1909261Y6429939D01*
X1909255Y6429927D01*
X1772770Y6087372D01*
X1772768Y6087366D01*
X1674128Y5732095D01*
X1674122Y5732069D01*
X1614470Y5368214D01*
X1614469Y5368201D01*
X1614469Y5368199D01*
X1594506Y5000000D01*
X500500Y5000000D01*
X500500Y14869753D01*
X4409500Y14869753D01*
X4409500Y13130248D01*
X4421131Y13071771D01*
X4421132Y13071770D01*
X4465447Y13005448D01*
X4531769Y12961133D01*
X4531770Y12961132D01*
X4590247Y12949501D01*
X4590250Y12949500D01*
X4590252Y12949500D01*
X6329750Y12949500D01*
X6329751Y12949501D01*
X6344568Y12952448D01*
X6388229Y12961132D01*
X6388229Y12961133D01*
X6388231Y12961133D01*
X6454552Y13005448D01*
X6498867Y13071769D01*
X6498867Y13071771D01*
X6498868Y13071771D01*
X6510499Y13130248D01*
X6510500Y13130250D01*
X6510500Y13175500D01*
X6530185Y13242539D01*
X6582989Y13288294D01*
X6634500Y13299500D01*
X7157265Y13299500D01*
X7224304Y13279815D01*
X7249119Y13257726D01*
X7249287Y13257893D01*
X7252165Y13255015D01*
X7253114Y13254170D01*
X7253590Y13253590D01*
X7413550Y13122315D01*
X7596046Y13024768D01*
X7794066Y12964700D01*
X7794065Y12964700D01*
X7812529Y12962882D01*
X8000000Y12944417D01*
X8205934Y12964700D01*
X8403954Y13024768D01*
X8586450Y13122315D01*
X8746410Y13253590D01*
X8746885Y13254170D01*
X8747212Y13254392D01*
X8750713Y13257893D01*
X8751377Y13257229D01*
X8804632Y13293501D01*
X8842735Y13299500D01*
X13452404Y13299500D01*
X13519443Y13279815D01*
X13565198Y13227011D01*
X13569445Y13216456D01*
X13597206Y13137120D01*
X13597207Y13137118D01*
X13677850Y13027850D01*
X13787118Y12947207D01*
X13829845Y12932256D01*
X13915299Y12902354D01*
X13945730Y12899500D01*
X13945734Y12899500D01*
X17054270Y12899500D01*
X17084699Y12902354D01*
X17084701Y12902354D01*
X17148790Y12924781D01*
X17212882Y12947207D01*
X17322150Y13027850D01*
X17402793Y13137118D01*
X17426873Y13205934D01*
X17447646Y13265299D01*
X17447646Y13265301D01*
X17450500Y13295731D01*
X17450500Y14704270D01*
X17447646Y14734700D01*
X17447646Y14734702D01*
X17411352Y14838421D01*
X17402793Y14862882D01*
X17322150Y14972150D01*
X17212882Y15052793D01*
X17212880Y15052794D01*
X17084700Y15097647D01*
X17054270Y15100500D01*
X17054266Y15100500D01*
X13945734Y15100500D01*
X13945730Y15100500D01*
X13915300Y15097647D01*
X13915298Y15097647D01*
X13787119Y15052794D01*
X13787117Y15052793D01*
X13677850Y14972150D01*
X13597207Y14862883D01*
X13569445Y14783544D01*
X13528723Y14726769D01*
X13463770Y14701022D01*
X13452404Y14700500D01*
X8842735Y14700500D01*
X8775696Y14720185D01*
X8750880Y14742275D01*
X8750713Y14742107D01*
X8747834Y14744986D01*
X8746885Y14745831D01*
X8746408Y14746412D01*
X8651256Y14824500D01*
X8586450Y14877685D01*
X8403954Y14975232D01*
X8205934Y15035300D01*
X8205932Y15035301D01*
X8205934Y15035301D01*
X8000000Y15055583D01*
X7794067Y15035301D01*
X7596043Y14975231D01*
X7538504Y14944475D01*
X7413550Y14877685D01*
X7413548Y14877684D01*
X7413547Y14877683D01*
X7253591Y14746412D01*
X7253115Y14745831D01*
X7252787Y14745609D01*
X7249287Y14742107D01*
X7248622Y14742772D01*
X7195368Y14706499D01*
X7157265Y14700500D01*
X6634500Y14700500D01*
X6567461Y14720185D01*
X6521706Y14772989D01*
X6510500Y14824500D01*
X6510500Y14869751D01*
X6510499Y14869753D01*
X6498868Y14928230D01*
X6498867Y14928231D01*
X6454552Y14994553D01*
X6388230Y15038868D01*
X6388229Y15038869D01*
X6329752Y15050500D01*
X6329748Y15050500D01*
X4590252Y15050500D01*
X4590247Y15050500D01*
X4531770Y15038869D01*
X4531769Y15038868D01*
X4465447Y14994553D01*
X4421132Y14928231D01*
X4421131Y14928230D01*
X4409500Y14869753D01*
X500500Y14869753D01*
X500500Y21790261D01*
X16049500Y21790261D01*
X16049500Y21209740D01*
X16052274Y21180151D01*
X16095884Y21055524D01*
X16174288Y20949290D01*
X16174289Y20949289D01*
X16280523Y20870885D01*
X16280524Y20870885D01*
X16280525Y20870884D01*
X16405151Y20827275D01*
X16405150Y20827275D01*
X16434740Y20824500D01*
X16434744Y20824500D01*
X17115260Y20824500D01*
X17144849Y20827275D01*
X17269475Y20870884D01*
X17375711Y20949289D01*
X17454116Y21055525D01*
X17457941Y21066457D01*
X17498664Y21123232D01*
X17563617Y21148978D01*
X17574982Y21149500D01*
X17912518Y21149500D01*
X17979557Y21129815D01*
X18025312Y21077011D01*
X18029559Y21066456D01*
X18033384Y21055524D01*
X18111788Y20949290D01*
X18111789Y20949289D01*
X18218023Y20870885D01*
X18218024Y20870885D01*
X18218025Y20870884D01*
X18342651Y20827275D01*
X18342650Y20827275D01*
X18372240Y20824500D01*
X18372244Y20824500D01*
X18977760Y20824500D01*
X19007349Y20827275D01*
X19131975Y20870884D01*
X19238211Y20949289D01*
X19316616Y21055525D01*
X19360225Y21180151D01*
X19363000Y21209744D01*
X19363000Y21790256D01*
X19360225Y21819849D01*
X19342611Y21870185D01*
X19316615Y21944477D01*
X19238211Y22050711D01*
X19238210Y22050712D01*
X19131976Y22129116D01*
X19007348Y22172726D01*
X19007349Y22172726D01*
X18977760Y22175500D01*
X18977756Y22175500D01*
X18372244Y22175500D01*
X18372240Y22175500D01*
X18342650Y22172726D01*
X18218023Y22129116D01*
X18111789Y22050712D01*
X18111788Y22050711D01*
X18033384Y21944477D01*
X18029559Y21933544D01*
X17988836Y21876768D01*
X17923883Y21851022D01*
X17912518Y21850500D01*
X17574982Y21850500D01*
X17507943Y21870185D01*
X17462188Y21922989D01*
X17457941Y21933544D01*
X17454115Y21944477D01*
X17375711Y22050711D01*
X17375710Y22050712D01*
X17269476Y22129116D01*
X17144848Y22172726D01*
X17144849Y22172726D01*
X17115260Y22175500D01*
X17115256Y22175500D01*
X16434744Y22175500D01*
X16434740Y22175500D01*
X16405150Y22172726D01*
X16280523Y22129116D01*
X16174289Y22050712D01*
X16174288Y22050711D01*
X16095884Y21944477D01*
X16052274Y21819850D01*
X16049500Y21790261D01*
X500500Y21790261D01*
X500500Y33500006D01*
X7995057Y33500006D01*
X7995057Y33499995D01*
X8014807Y33186058D01*
X8014808Y33186051D01*
X8073755Y32877042D01*
X8170963Y32577868D01*
X8170965Y32577863D01*
X8304900Y32293239D01*
X8304903Y32293233D01*
X8473457Y32027633D01*
X8473460Y32027629D01*
X8564286Y31917840D01*
X9527913Y32881467D01*
X9622829Y32750825D01*
X9750825Y32622829D01*
X9881465Y32527914D01*
X8914971Y31561421D01*
X8914972Y31561419D01*
X9157772Y31385015D01*
X9157790Y31385004D01*
X9433447Y31233460D01*
X9433455Y31233456D01*
X9725926Y31117660D01*
X10030620Y31039427D01*
X10030629Y31039425D01*
X10342701Y31000001D01*
X10342715Y31000000D01*
X10657285Y31000000D01*
X10657298Y31000001D01*
X10969370Y31039425D01*
X10969379Y31039427D01*
X11274073Y31117660D01*
X11566544Y31233456D01*
X11566552Y31233460D01*
X11842209Y31385004D01*
X11842219Y31385010D01*
X12085026Y31561421D01*
X12085027Y31561421D01*
X11118533Y32527914D01*
X11249175Y32622829D01*
X11377171Y32750825D01*
X11472086Y32881466D01*
X12435712Y31917840D01*
X12526544Y32027636D01*
X12695096Y32293233D01*
X12695099Y32293239D01*
X12829034Y32577863D01*
X12829036Y32577868D01*
X12926244Y32877042D01*
X12985191Y33186051D01*
X12985192Y33186058D01*
X13004943Y33499995D01*
X13004943Y33500006D01*
X12985192Y33813943D01*
X12985191Y33813950D01*
X12926244Y34122959D01*
X12829036Y34422133D01*
X12829034Y34422138D01*
X12695099Y34706762D01*
X12695096Y34706768D01*
X12526542Y34972368D01*
X12526539Y34972372D01*
X12435712Y35082162D01*
X11472085Y34118535D01*
X11377171Y34249175D01*
X11249175Y34377171D01*
X11118533Y34472087D01*
X12085027Y35438581D01*
X12085026Y35438583D01*
X11842227Y35614986D01*
X11842209Y35614997D01*
X11566552Y35766541D01*
X11566544Y35766545D01*
X11274073Y35882341D01*
X10969379Y35960574D01*
X10969370Y35960576D01*
X10657298Y36000000D01*
X10342701Y36000000D01*
X10030629Y35960576D01*
X10030620Y35960574D01*
X9725926Y35882341D01*
X9433455Y35766545D01*
X9433447Y35766541D01*
X9157787Y35614996D01*
X9157782Y35614993D01*
X8914972Y35438582D01*
X8914971Y35438581D01*
X9881466Y34472087D01*
X9750825Y34377171D01*
X9622829Y34249175D01*
X9527913Y34118535D01*
X8564286Y35082162D01*
X8564285Y35082162D01*
X8473459Y34972371D01*
X8473457Y34972368D01*
X8304903Y34706768D01*
X8304900Y34706762D01*
X8170965Y34422138D01*
X8170963Y34422133D01*
X8073755Y34122959D01*
X8014808Y33813950D01*
X8014807Y33813943D01*
X7995057Y33500006D01*
X500500Y33500006D01*
X500500Y38250003D01*
X12055034Y38250003D01*
X12055034Y38249998D01*
X12074858Y38023401D01*
X12074860Y38023390D01*
X12133730Y37803683D01*
X12133735Y37803669D01*
X12229863Y37597522D01*
X12280974Y37524528D01*
X12897449Y38141003D01*
X12917370Y38066657D01*
X12979905Y37958343D01*
X13068343Y37869905D01*
X13176657Y37807370D01*
X13251002Y37787450D01*
X12634526Y37170975D01*
X12707513Y37119868D01*
X12707521Y37119864D01*
X12913668Y37023736D01*
X12913682Y37023731D01*
X13133389Y36964861D01*
X13133400Y36964859D01*
X13359998Y36945034D01*
X13360002Y36945034D01*
X13586599Y36964859D01*
X13586610Y36964861D01*
X13806317Y37023731D01*
X13806331Y37023736D01*
X14012478Y37119864D01*
X14085471Y37170976D01*
X13468997Y37787450D01*
X13543343Y37807370D01*
X13651657Y37869905D01*
X13740095Y37958343D01*
X13802630Y38066657D01*
X13822550Y38141003D01*
X14323181Y37640372D01*
X14356666Y37579049D01*
X14359500Y37552691D01*
X14359500Y37430248D01*
X14371131Y37371771D01*
X14371132Y37371770D01*
X14415447Y37305448D01*
X14481769Y37261133D01*
X14481770Y37261132D01*
X14539852Y37249580D01*
X14540252Y37249500D01*
X14540257Y37249500D01*
X14546312Y37248903D01*
X14546065Y37246398D01*
X14602539Y37229815D01*
X14648294Y37177011D01*
X14659500Y37125500D01*
X14659500Y29224500D01*
X14639815Y29157461D01*
X14587011Y29111706D01*
X14535500Y29100500D01*
X13805730Y29100500D01*
X13775300Y29097647D01*
X13775298Y29097647D01*
X13647119Y29052794D01*
X13647117Y29052793D01*
X13537850Y28972150D01*
X13457207Y28862883D01*
X13457206Y28862881D01*
X13412353Y28734702D01*
X13412353Y28734700D01*
X13409500Y28704270D01*
X13409500Y27295731D01*
X13412353Y27265301D01*
X13412353Y27265299D01*
X13457206Y27137120D01*
X13457207Y27137118D01*
X13537850Y27027850D01*
X13647118Y26947207D01*
X13689845Y26932256D01*
X13775299Y26902354D01*
X13805730Y26899500D01*
X13805734Y26899500D01*
X16914270Y26899500D01*
X16944699Y26902354D01*
X16944701Y26902354D01*
X17008790Y26924781D01*
X17072882Y26947207D01*
X17182150Y27027850D01*
X17262793Y27137118D01*
X17285219Y27201210D01*
X17307646Y27265299D01*
X17307646Y27265301D01*
X17310500Y27295731D01*
X17310500Y28704270D01*
X18549500Y28704270D01*
X18549500Y27295731D01*
X18552353Y27265301D01*
X18552353Y27265299D01*
X18597206Y27137120D01*
X18597207Y27137118D01*
X18677850Y27027850D01*
X18787118Y26947207D01*
X18829845Y26932256D01*
X18915299Y26902354D01*
X18945730Y26899500D01*
X18945734Y26899500D01*
X19675500Y26899500D01*
X19742539Y26879815D01*
X19788294Y26827011D01*
X19799500Y26775500D01*
X19799500Y15224500D01*
X19779815Y15157461D01*
X19727011Y15111706D01*
X19675500Y15100500D01*
X18945730Y15100500D01*
X18915300Y15097647D01*
X18915298Y15097647D01*
X18787119Y15052794D01*
X18787117Y15052793D01*
X18677850Y14972150D01*
X18597207Y14862883D01*
X18597206Y14862881D01*
X18552353Y14734702D01*
X18552353Y14734700D01*
X18549500Y14704270D01*
X18549500Y13295731D01*
X18552353Y13265301D01*
X18552353Y13265299D01*
X18597206Y13137120D01*
X18597207Y13137118D01*
X18677850Y13027850D01*
X18787118Y12947207D01*
X18829845Y12932256D01*
X18915299Y12902354D01*
X18945730Y12899500D01*
X18945734Y12899500D01*
X22054270Y12899500D01*
X22084699Y12902354D01*
X22084701Y12902354D01*
X22148790Y12924781D01*
X22212882Y12947207D01*
X22322150Y13027850D01*
X22402793Y13137118D01*
X22420827Y13188659D01*
X22430555Y13216456D01*
X22471277Y13273231D01*
X22536230Y13298978D01*
X22547596Y13299500D01*
X27958481Y13299500D01*
X28025520Y13279815D01*
X28046162Y13263181D01*
X28678453Y12630889D01*
X28678454Y12630888D01*
X28793190Y12554224D01*
X28891790Y12513383D01*
X28920671Y12501420D01*
X28920672Y12501420D01*
X28920677Y12501418D01*
X28947545Y12496075D01*
X28947551Y12496074D01*
X28947591Y12496066D01*
X29037937Y12478095D01*
X29056006Y12474500D01*
X29056007Y12474500D01*
X39167265Y12474500D01*
X39234304Y12454815D01*
X39259119Y12432726D01*
X39259287Y12432893D01*
X39262165Y12430015D01*
X39263114Y12429170D01*
X39263590Y12428590D01*
X39423550Y12297315D01*
X39606046Y12199768D01*
X39804066Y12139700D01*
X39804065Y12139700D01*
X39822529Y12137882D01*
X40010000Y12119417D01*
X40215934Y12139700D01*
X40413954Y12199768D01*
X40596450Y12297315D01*
X40756410Y12428590D01*
X40887685Y12588550D01*
X40985232Y12771046D01*
X41045300Y12969066D01*
X41065583Y13175000D01*
X41045300Y13380934D01*
X40985232Y13578954D01*
X40887685Y13761450D01*
X40831580Y13829814D01*
X40756410Y13921411D01*
X40617634Y14035300D01*
X40606115Y14044753D01*
X41499500Y14044753D01*
X41499500Y12305248D01*
X41511131Y12246771D01*
X41511132Y12246770D01*
X41555447Y12180448D01*
X41621769Y12136133D01*
X41621770Y12136132D01*
X41680247Y12124501D01*
X41680250Y12124500D01*
X41680252Y12124500D01*
X43419750Y12124500D01*
X43419751Y12124501D01*
X43434568Y12127448D01*
X43478229Y12136132D01*
X43478229Y12136133D01*
X43478231Y12136133D01*
X43544552Y12180448D01*
X43588867Y12246769D01*
X43588867Y12246771D01*
X43588868Y12246771D01*
X43600499Y12305248D01*
X43600500Y12305250D01*
X43600500Y12350500D01*
X43620185Y12417539D01*
X43672989Y12463294D01*
X43724500Y12474500D01*
X46013000Y12474500D01*
X46080039Y12454815D01*
X46125794Y12402011D01*
X46137000Y12350500D01*
X46137000Y11940155D01*
X46130041Y11899199D01*
X46102276Y11819854D01*
X46102274Y11819845D01*
X46099500Y11790261D01*
X46099500Y11209740D01*
X46102274Y11180151D01*
X46145884Y11055524D01*
X46224288Y10949290D01*
X46224289Y10949289D01*
X46324133Y10875601D01*
X46366384Y10819954D01*
X46374500Y10775831D01*
X46374500Y9544669D01*
X46373238Y9527023D01*
X46369353Y9500001D01*
X46373238Y9472980D01*
X46374500Y9455333D01*
X46374500Y9434106D01*
X46381923Y9406404D01*
X46384885Y9391963D01*
X46389835Y9357544D01*
X46389837Y9357536D01*
X46398069Y9339511D01*
X46405050Y9320093D01*
X46408607Y9306817D01*
X46408610Y9306810D01*
X46426681Y9275509D01*
X46432086Y9265026D01*
X46449623Y9226627D01*
X46457694Y9217313D01*
X46471368Y9198110D01*
X46474497Y9192690D01*
X46474501Y9192685D01*
X46505322Y9161864D01*
X46511354Y9155385D01*
X46543870Y9117859D01*
X46543874Y9117855D01*
X46547928Y9115250D01*
X46563211Y9102934D01*
X46567684Y9099502D01*
X46567686Y9099500D01*
X46611887Y9073981D01*
X46616871Y9070944D01*
X46664947Y9040047D01*
X46664950Y9040046D01*
X46664952Y9040045D01*
X46665994Y9039569D01*
X46675621Y9036173D01*
X46681811Y9033610D01*
X46681814Y9033608D01*
X46738261Y9018484D01*
X46741098Y9017688D01*
X46803039Y8999500D01*
X46809108Y8999500D01*
X47918693Y8999500D01*
X47973154Y8986900D01*
X47977488Y8984781D01*
X47977489Y8984781D01*
X47977491Y8984780D01*
X48048051Y8974500D01*
X49351948Y8974501D01*
X49351950Y8974501D01*
X49380172Y8978613D01*
X49422509Y8984780D01*
X49531347Y9037988D01*
X49617012Y9123653D01*
X49670220Y9232491D01*
X49680500Y9303051D01*
X49680499Y9696948D01*
X49680499Y9696949D01*
X50419500Y9696949D01*
X50419500Y9696945D01*
X50419500Y9696944D01*
X50419500Y9303050D01*
X50429779Y9232494D01*
X50482987Y9123654D01*
X50482988Y9123653D01*
X50488120Y9118521D01*
X50514460Y9079575D01*
X50538592Y9023117D01*
X50574556Y8973617D01*
X50598797Y8945872D01*
X50677307Y8898964D01*
X50735498Y8880057D01*
X50764268Y8875501D01*
X50798996Y8870000D01*
X50799000Y8870000D01*
X52025249Y8870000D01*
X52079709Y8857401D01*
X52134786Y8830476D01*
X52134785Y8830475D01*
X52134793Y8830473D01*
X52145078Y8825444D01*
X52145084Y8825442D01*
X52189014Y8809850D01*
X52189015Y8809850D01*
X52189023Y8809847D01*
X52232503Y8799788D01*
X52278822Y8794500D01*
X52870500Y8794500D01*
X52937539Y8774815D01*
X52983294Y8722011D01*
X52994500Y8670500D01*
X52994500Y6098995D01*
X52997029Y6066862D01*
X53001881Y6036223D01*
X53002646Y6031718D01*
X53002647Y6031715D01*
X53002648Y6031713D01*
X53038592Y5947617D01*
X53068240Y5906810D01*
X53074557Y5898116D01*
X53098797Y5870372D01*
X53113043Y5861860D01*
X53177307Y5823464D01*
X53235498Y5804557D01*
X53264268Y5800001D01*
X53298996Y5794500D01*
X53299000Y5794500D01*
X55100994Y5794500D01*
X55101000Y5794500D01*
X55133144Y5797030D01*
X55142264Y5798475D01*
X55161654Y5800000D01*
X57300000Y5800000D01*
X57300000Y6188573D01*
X57319685Y6255612D01*
X57320830Y6257361D01*
X57363867Y6321769D01*
X57364412Y6324505D01*
X57375499Y6380248D01*
X57375500Y6380250D01*
X57375500Y7397845D01*
X61150000Y7397845D01*
X61150000Y6750000D01*
X62066988Y6750000D01*
X62034075Y6692993D01*
X62000000Y6565826D01*
X62000000Y6434174D01*
X62034075Y6307007D01*
X62066988Y6250000D01*
X61150000Y6250000D01*
X61150000Y5602156D01*
X61156401Y5542628D01*
X61156403Y5542621D01*
X61206645Y5407914D01*
X61206649Y5407907D01*
X61292809Y5292813D01*
X61292812Y5292810D01*
X61407906Y5206650D01*
X61407913Y5206646D01*
X61542620Y5156404D01*
X61542627Y5156402D01*
X61602155Y5150001D01*
X61602172Y5150000D01*
X62250000Y5150000D01*
X62250000Y6066988D01*
X62307007Y6034075D01*
X62434174Y6000000D01*
X62565826Y6000000D01*
X62692993Y6034075D01*
X62750000Y6066988D01*
X62750000Y5150000D01*
X63397828Y5150000D01*
X63397844Y5150001D01*
X63457372Y5156402D01*
X63457379Y5156404D01*
X63592086Y5206646D01*
X63592093Y5206650D01*
X63707187Y5292810D01*
X63707190Y5292813D01*
X63793350Y5407907D01*
X63793354Y5407914D01*
X63842614Y5539987D01*
X63884485Y5595921D01*
X63949949Y5620338D01*
X64018222Y5605487D01*
X64046477Y5584335D01*
X64168917Y5461895D01*
X64362421Y5326400D01*
X64576507Y5226571D01*
X64576516Y5226567D01*
X64790000Y5169366D01*
X64790000Y6066988D01*
X64847007Y6034075D01*
X64974174Y6000000D01*
X65105826Y6000000D01*
X65232993Y6034075D01*
X65290000Y6066988D01*
X65290000Y5169367D01*
X65503483Y5226567D01*
X65503492Y5226571D01*
X65717578Y5326400D01*
X65911082Y5461895D01*
X66078105Y5628918D01*
X66213600Y5822422D01*
X66313429Y6036508D01*
X66313432Y6036514D01*
X66370636Y6250000D01*
X65473012Y6250000D01*
X65505925Y6307007D01*
X65540000Y6434174D01*
X65540000Y6565826D01*
X65505925Y6692993D01*
X65473012Y6750000D01*
X66370636Y6750000D01*
X66370635Y6750001D01*
X66313432Y6963487D01*
X66313429Y6963493D01*
X66213600Y7177578D01*
X66213599Y7177580D01*
X66078113Y7371074D01*
X66078108Y7371080D01*
X65911082Y7538106D01*
X65717578Y7673601D01*
X65503492Y7773430D01*
X65503486Y7773433D01*
X65290000Y7830636D01*
X65290000Y6933012D01*
X65232993Y6965925D01*
X65105826Y7000000D01*
X64974174Y7000000D01*
X64847007Y6965925D01*
X64790000Y6933012D01*
X64790000Y7830636D01*
X64789999Y7830636D01*
X64576513Y7773433D01*
X64576507Y7773430D01*
X64362422Y7673601D01*
X64362420Y7673600D01*
X64168926Y7538114D01*
X64046477Y7415665D01*
X63985154Y7382181D01*
X63915462Y7387165D01*
X63859529Y7429037D01*
X63842614Y7460014D01*
X63793354Y7592087D01*
X63793350Y7592094D01*
X63707190Y7707188D01*
X63707187Y7707191D01*
X63592093Y7793351D01*
X63592086Y7793355D01*
X63457379Y7843597D01*
X63457372Y7843599D01*
X63397844Y7850000D01*
X62750000Y7850000D01*
X62750000Y6933012D01*
X62692993Y6965925D01*
X62565826Y7000000D01*
X62434174Y7000000D01*
X62307007Y6965925D01*
X62250000Y6933012D01*
X62250000Y7850000D01*
X61602155Y7850000D01*
X61542627Y7843599D01*
X61542620Y7843597D01*
X61407913Y7793355D01*
X61407906Y7793351D01*
X61292812Y7707191D01*
X61292809Y7707188D01*
X61206649Y7592094D01*
X61206645Y7592087D01*
X61156403Y7457380D01*
X61156401Y7457373D01*
X61150000Y7397845D01*
X57375500Y7397845D01*
X57375500Y8293114D01*
X57377883Y8317306D01*
X57400500Y8431005D01*
X57400500Y11158481D01*
X57420185Y11225520D01*
X57436819Y11246162D01*
X58453838Y12263181D01*
X58515161Y12296666D01*
X58541519Y12299500D01*
X61350500Y12299500D01*
X61417539Y12279815D01*
X61463294Y12227011D01*
X61474500Y12175500D01*
X61474500Y12130248D01*
X61486131Y12071771D01*
X61486132Y12071770D01*
X61530447Y12005448D01*
X61596769Y11961133D01*
X61596770Y11961132D01*
X61655247Y11949501D01*
X61655250Y11949500D01*
X61655252Y11949500D01*
X63394750Y11949500D01*
X63394751Y11949501D01*
X63409568Y11952448D01*
X63453229Y11961132D01*
X63453229Y11961133D01*
X63453231Y11961133D01*
X63519552Y12005448D01*
X63563867Y12071769D01*
X63563867Y12071771D01*
X63563868Y12071771D01*
X63575499Y12130248D01*
X63575500Y12130250D01*
X63575500Y12175500D01*
X63595185Y12242539D01*
X63647989Y12288294D01*
X63699500Y12299500D01*
X64222265Y12299500D01*
X64289304Y12279815D01*
X64314119Y12257726D01*
X64314287Y12257893D01*
X64317165Y12255015D01*
X64318114Y12254170D01*
X64318590Y12253590D01*
X64478550Y12122315D01*
X64661046Y12024768D01*
X64859066Y11964700D01*
X64859065Y11964700D01*
X64877529Y11962882D01*
X65065000Y11944417D01*
X65270934Y11964700D01*
X65468954Y12024768D01*
X65651450Y12122315D01*
X65811410Y12253590D01*
X65942685Y12413550D01*
X66040232Y12596046D01*
X66100300Y12794066D01*
X66120583Y13000000D01*
X66100300Y13205934D01*
X66040232Y13403954D01*
X65942685Y13586450D01*
X65870369Y13674568D01*
X65811410Y13746411D01*
X65661121Y13869748D01*
X65651450Y13877685D01*
X65468954Y13975232D01*
X65270934Y14035300D01*
X65270932Y14035301D01*
X65270934Y14035301D01*
X65065000Y14055583D01*
X64859067Y14035301D01*
X64661043Y13975231D01*
X64573168Y13928260D01*
X64478550Y13877685D01*
X64478548Y13877684D01*
X64478547Y13877683D01*
X64318591Y13746412D01*
X64318115Y13745831D01*
X64317787Y13745609D01*
X64314287Y13742107D01*
X64313622Y13742772D01*
X64260368Y13706499D01*
X64222265Y13700500D01*
X63699500Y13700500D01*
X63632461Y13720185D01*
X63586706Y13772989D01*
X63575500Y13824500D01*
X63575500Y13869751D01*
X63575499Y13869753D01*
X63563868Y13928230D01*
X63563867Y13928231D01*
X63519552Y13994553D01*
X63453230Y14038868D01*
X63453229Y14038869D01*
X63394752Y14050500D01*
X63394748Y14050500D01*
X61655252Y14050500D01*
X61655247Y14050500D01*
X61596770Y14038869D01*
X61596769Y14038868D01*
X61530447Y13994553D01*
X61486132Y13928231D01*
X61486131Y13928230D01*
X61474500Y13869753D01*
X61474500Y13824500D01*
X61454815Y13757461D01*
X61402011Y13711706D01*
X61350500Y13700500D01*
X58674500Y13700500D01*
X58607461Y13720185D01*
X58561706Y13772989D01*
X58550500Y13824500D01*
X58550500Y14046142D01*
X58550500Y14046144D01*
X58526614Y14135288D01*
X58517986Y14150232D01*
X58480470Y14215212D01*
X57915212Y14780470D01*
X57915211Y14780471D01*
X57915208Y14780473D01*
X57828249Y14830678D01*
X57829587Y14832997D01*
X57785452Y14868557D01*
X57770264Y14898325D01*
X57754116Y14944475D01*
X57675711Y15050711D01*
X57612116Y15097646D01*
X57569476Y15129116D01*
X57444848Y15172726D01*
X57444849Y15172726D01*
X57415260Y15175500D01*
X57415256Y15175500D01*
X56809744Y15175500D01*
X56809740Y15175500D01*
X56780150Y15172726D01*
X56655523Y15129116D01*
X56549289Y15050712D01*
X56549288Y15050711D01*
X56470884Y14944477D01*
X56427274Y14819850D01*
X56424500Y14790261D01*
X56424500Y14209740D01*
X56427274Y14180151D01*
X56470884Y14055524D01*
X56549288Y13949290D01*
X56549289Y13949289D01*
X56655523Y13870885D01*
X56655524Y13870885D01*
X56655525Y13870884D01*
X56780151Y13827275D01*
X56780150Y13827275D01*
X56809740Y13824500D01*
X56809744Y13824500D01*
X57415260Y13824500D01*
X57444849Y13827275D01*
X57452105Y13829814D01*
X57569475Y13870884D01*
X57635489Y13919605D01*
X57701117Y13943575D01*
X57769288Y13928260D01*
X57796803Y13907515D01*
X57813181Y13891137D01*
X57846666Y13829814D01*
X57849500Y13803456D01*
X57849500Y13674568D01*
X57829815Y13607529D01*
X57794391Y13571466D01*
X57753457Y13544115D01*
X57753453Y13544112D01*
X56446162Y12236819D01*
X56384839Y12203334D01*
X56358481Y12200500D01*
X53156005Y12200500D01*
X53077494Y12184883D01*
X53042303Y12177883D01*
X53018113Y12175500D01*
X52872240Y12175500D01*
X52842650Y12172726D01*
X52718023Y12129116D01*
X52611789Y12050712D01*
X52611788Y12050711D01*
X52533384Y11944477D01*
X52489774Y11819850D01*
X52487000Y11790261D01*
X52487000Y11209740D01*
X52489774Y11180151D01*
X52533384Y11055524D01*
X52594158Y10973179D01*
X52611789Y10949289D01*
X52638915Y10929269D01*
X52681165Y10873624D01*
X52686624Y10803967D01*
X52653557Y10742418D01*
X52592463Y10708516D01*
X52565281Y10705500D01*
X50798994Y10705500D01*
X50766861Y10702971D01*
X50736222Y10698119D01*
X50731717Y10697354D01*
X50731714Y10697353D01*
X50647617Y10661408D01*
X50598115Y10625443D01*
X50570371Y10601203D01*
X50523464Y10522695D01*
X50504557Y10464506D01*
X50504557Y10464503D01*
X50494500Y10401005D01*
X50494500Y9928584D01*
X50481901Y9874124D01*
X50429780Y9767511D01*
X50426842Y9747349D01*
X50419500Y9696949D01*
X49680499Y9696949D01*
X49670220Y9767509D01*
X49617012Y9876347D01*
X49617010Y9876349D01*
X49617010Y9876350D01*
X49531348Y9962012D01*
X49422511Y10015220D01*
X49404869Y10017790D01*
X49351949Y10025500D01*
X49351943Y10025500D01*
X48048049Y10025500D01*
X47977492Y10015221D01*
X47973155Y10013100D01*
X47918694Y10000500D01*
X47499500Y10000500D01*
X47432461Y10020185D01*
X47386706Y10072989D01*
X47375500Y10124500D01*
X47375500Y10831183D01*
X47395185Y10898222D01*
X47425866Y10930954D01*
X47450711Y10949289D01*
X47529116Y11055525D01*
X47572725Y11180151D01*
X47575500Y11209744D01*
X47575500Y11790256D01*
X47572725Y11819849D01*
X47544958Y11899200D01*
X47538000Y11940155D01*
X47538000Y12559846D01*
X47544959Y12600802D01*
X47572725Y12680152D01*
X47575500Y12709740D01*
X47575500Y13290261D01*
X47572725Y13319845D01*
X47572725Y13319849D01*
X47544958Y13399200D01*
X47538000Y13440155D01*
X47538000Y14059846D01*
X47544959Y14100802D01*
X47555111Y14129815D01*
X47572725Y14180151D01*
X47575500Y14209744D01*
X47575500Y14790256D01*
X47575500Y14790261D01*
X52474500Y14790261D01*
X52474500Y14209740D01*
X52477274Y14180151D01*
X52520884Y14055524D01*
X52599288Y13949290D01*
X52599289Y13949289D01*
X52705523Y13870885D01*
X52705524Y13870885D01*
X52705525Y13870884D01*
X52830151Y13827275D01*
X52830150Y13827275D01*
X52859740Y13824500D01*
X52859744Y13824500D01*
X53540260Y13824500D01*
X53569849Y13827275D01*
X53577105Y13829814D01*
X53694475Y13870884D01*
X53800711Y13949289D01*
X53879116Y14055525D01*
X53882941Y14066457D01*
X53923664Y14123232D01*
X53988617Y14148978D01*
X53999982Y14149500D01*
X54525018Y14149500D01*
X54592057Y14129815D01*
X54637812Y14077011D01*
X54642059Y14066456D01*
X54645884Y14055524D01*
X54724288Y13949290D01*
X54724289Y13949289D01*
X54830523Y13870885D01*
X54830524Y13870885D01*
X54830525Y13870884D01*
X54955151Y13827275D01*
X54955150Y13827275D01*
X54984740Y13824500D01*
X54984744Y13824500D01*
X55590260Y13824500D01*
X55619849Y13827275D01*
X55627105Y13829814D01*
X55744475Y13870884D01*
X55850711Y13949289D01*
X55929116Y14055525D01*
X55972725Y14180151D01*
X55975500Y14209744D01*
X55975500Y14790256D01*
X55972725Y14819849D01*
X55968539Y14831811D01*
X55929115Y14944477D01*
X55850711Y15050711D01*
X55850710Y15050712D01*
X55744476Y15129116D01*
X55619848Y15172726D01*
X55619849Y15172726D01*
X55590260Y15175500D01*
X55590256Y15175500D01*
X54984744Y15175500D01*
X54984740Y15175500D01*
X54955150Y15172726D01*
X54830523Y15129116D01*
X54724289Y15050712D01*
X54724288Y15050711D01*
X54645884Y14944477D01*
X54642059Y14933544D01*
X54601336Y14876768D01*
X54536383Y14851022D01*
X54525018Y14850500D01*
X53999982Y14850500D01*
X53932943Y14870185D01*
X53887188Y14922989D01*
X53882941Y14933544D01*
X53879115Y14944477D01*
X53800711Y15050711D01*
X53800710Y15050712D01*
X53694476Y15129116D01*
X53569848Y15172726D01*
X53569849Y15172726D01*
X53540260Y15175500D01*
X53540256Y15175500D01*
X52859744Y15175500D01*
X52859740Y15175500D01*
X52830150Y15172726D01*
X52705523Y15129116D01*
X52599289Y15050712D01*
X52599288Y15050711D01*
X52520884Y14944477D01*
X52477274Y14819850D01*
X52474500Y14790261D01*
X47575500Y14790261D01*
X47572725Y14819849D01*
X47568539Y14831811D01*
X47529115Y14944477D01*
X47450711Y15050711D01*
X47450710Y15050712D01*
X47344476Y15129116D01*
X47219848Y15172726D01*
X47219849Y15172726D01*
X47190260Y15175500D01*
X47190256Y15175500D01*
X47044387Y15175500D01*
X47020196Y15177883D01*
X46985005Y15184883D01*
X46906495Y15200500D01*
X46906493Y15200500D01*
X46768507Y15200500D01*
X46768505Y15200500D01*
X46689994Y15184883D01*
X46654803Y15177883D01*
X46630613Y15175500D01*
X46484740Y15175500D01*
X46455150Y15172726D01*
X46330523Y15129116D01*
X46224289Y15050712D01*
X46224288Y15050711D01*
X46145884Y14944477D01*
X46102274Y14819850D01*
X46099500Y14790261D01*
X46099500Y14209740D01*
X46102274Y14180152D01*
X46130041Y14100802D01*
X46137000Y14059846D01*
X46137000Y13999500D01*
X46117315Y13932461D01*
X46064511Y13886706D01*
X46013000Y13875500D01*
X43724500Y13875500D01*
X43657461Y13895185D01*
X43611706Y13947989D01*
X43600500Y13999500D01*
X43600500Y14044751D01*
X43600499Y14044753D01*
X43588868Y14103230D01*
X43588867Y14103231D01*
X43544552Y14169553D01*
X43478230Y14213868D01*
X43478229Y14213869D01*
X43419752Y14225500D01*
X43419748Y14225500D01*
X41680252Y14225500D01*
X41680247Y14225500D01*
X41621770Y14213869D01*
X41621769Y14213868D01*
X41555447Y14169553D01*
X41511132Y14103231D01*
X41511131Y14103230D01*
X41499500Y14044753D01*
X40606115Y14044753D01*
X40596450Y14052685D01*
X40416300Y14148978D01*
X40413956Y14150231D01*
X40413955Y14150232D01*
X40413954Y14150232D01*
X40215934Y14210300D01*
X40215932Y14210301D01*
X40215934Y14210301D01*
X40010000Y14230583D01*
X39804067Y14210301D01*
X39669736Y14169552D01*
X39606050Y14150233D01*
X39606043Y14150231D01*
X39518114Y14103231D01*
X39423550Y14052685D01*
X39423548Y14052684D01*
X39423547Y14052683D01*
X39263591Y13921412D01*
X39263115Y13920831D01*
X39262787Y13920609D01*
X39259287Y13917107D01*
X39258622Y13917772D01*
X39205368Y13881499D01*
X39167265Y13875500D01*
X29466519Y13875500D01*
X29399480Y13895185D01*
X29378838Y13911819D01*
X28746546Y14544112D01*
X28746545Y14544113D01*
X28631807Y14620778D01*
X28504332Y14673579D01*
X28504322Y14673582D01*
X28368996Y14700500D01*
X28368994Y14700500D01*
X28368993Y14700500D01*
X22547596Y14700500D01*
X22480557Y14720185D01*
X22434802Y14772989D01*
X22430555Y14783544D01*
X22415484Y14826614D01*
X22402793Y14862882D01*
X22322150Y14972150D01*
X22212882Y15052793D01*
X22212880Y15052794D01*
X22084700Y15097647D01*
X22054270Y15100500D01*
X22054266Y15100500D01*
X21324500Y15100500D01*
X21257461Y15120185D01*
X21211706Y15172989D01*
X21200500Y15224500D01*
X21200500Y26775500D01*
X21220185Y26842539D01*
X21272989Y26888294D01*
X21324500Y26899500D01*
X22054270Y26899500D01*
X22084699Y26902354D01*
X22084701Y26902354D01*
X22148790Y26924781D01*
X22212882Y26947207D01*
X22322150Y27027850D01*
X22402793Y27137118D01*
X22425219Y27201210D01*
X22447646Y27265299D01*
X22447646Y27265301D01*
X22450500Y27295731D01*
X22450500Y28704270D01*
X22447646Y28734700D01*
X22447646Y28734702D01*
X22402793Y28862881D01*
X22402792Y28862883D01*
X22322150Y28972150D01*
X22212882Y29052793D01*
X22212880Y29052794D01*
X22084700Y29097647D01*
X22054270Y29100500D01*
X22054266Y29100500D01*
X21324500Y29100500D01*
X21257461Y29120185D01*
X21211706Y29172989D01*
X21200500Y29224500D01*
X21200500Y31158481D01*
X21220185Y31225520D01*
X21236819Y31246162D01*
X22819938Y32829281D01*
X43397000Y32829281D01*
X43397000Y26820720D01*
X43399852Y26790303D01*
X43399854Y26790291D01*
X43444705Y26662118D01*
X43525348Y26552849D01*
X43579982Y26512528D01*
X43634616Y26472206D01*
X43673642Y26458551D01*
X43762790Y26427355D01*
X43762794Y26427355D01*
X43762798Y26427353D01*
X43778011Y26425927D01*
X43793220Y26424500D01*
X43793224Y26424500D01*
X49201780Y26424500D01*
X49215298Y26425768D01*
X49232202Y26427353D01*
X49232206Y26427355D01*
X49232209Y26427355D01*
X49282331Y26444895D01*
X49360384Y26472206D01*
X49469651Y26552849D01*
X49550294Y26662116D01*
X49567559Y26711455D01*
X49608281Y26768231D01*
X49673234Y26793978D01*
X49684600Y26794500D01*
X55491861Y26794500D01*
X55491874Y26794500D01*
X55505317Y26794940D01*
X55521501Y26796001D01*
X55534882Y26797319D01*
X55546222Y26798812D01*
X55640048Y26811165D01*
X55666412Y26816409D01*
X55697679Y26824787D01*
X55723132Y26833428D01*
X55813559Y26870884D01*
X55819038Y26873587D01*
X55837635Y26882756D01*
X55837640Y26882759D01*
X55837669Y26882773D01*
X55865702Y26898958D01*
X55888052Y26913892D01*
X55965702Y26973475D01*
X55985911Y26991199D01*
X56008801Y27014089D01*
X56026525Y27034298D01*
X56086108Y27111948D01*
X56101042Y27134298D01*
X56117227Y27162331D01*
X56129116Y27186441D01*
X56166572Y27276868D01*
X56175213Y27302321D01*
X56183591Y27333588D01*
X56188835Y27359951D01*
X56202681Y27465115D01*
X56203999Y27478498D01*
X56205060Y27494684D01*
X56205500Y27508126D01*
X56205500Y30047845D01*
X61610000Y30047845D01*
X61610000Y29400000D01*
X62526988Y29400000D01*
X62494075Y29342993D01*
X62460000Y29215826D01*
X62460000Y29084174D01*
X62494075Y28957007D01*
X62526988Y28900000D01*
X61610000Y28900000D01*
X61610000Y28252156D01*
X61616401Y28192628D01*
X61616403Y28192621D01*
X61666645Y28057914D01*
X61666649Y28057907D01*
X61752809Y27942813D01*
X61752812Y27942810D01*
X61867906Y27856650D01*
X61867913Y27856646D01*
X62002620Y27806404D01*
X62002627Y27806402D01*
X62062155Y27800001D01*
X62062172Y27800000D01*
X62710000Y27800000D01*
X62710000Y28716988D01*
X62767007Y28684075D01*
X62894174Y28650000D01*
X63025826Y28650000D01*
X63152993Y28684075D01*
X63210000Y28716988D01*
X63210000Y27800000D01*
X63857828Y27800000D01*
X63857844Y27800001D01*
X63917372Y27806402D01*
X63917379Y27806404D01*
X64052086Y27856646D01*
X64052093Y27856650D01*
X64167187Y27942810D01*
X64167190Y27942813D01*
X64253350Y28057907D01*
X64253354Y28057914D01*
X64302614Y28189987D01*
X64344485Y28245921D01*
X64409949Y28270338D01*
X64478222Y28255487D01*
X64506477Y28234335D01*
X64628917Y28111895D01*
X64822421Y27976400D01*
X65036507Y27876571D01*
X65036516Y27876567D01*
X65250000Y27819366D01*
X65250000Y28716988D01*
X65307007Y28684075D01*
X65434174Y28650000D01*
X65565826Y28650000D01*
X65692993Y28684075D01*
X65750000Y28716988D01*
X65750000Y27819367D01*
X65963483Y27876567D01*
X65963492Y27876571D01*
X66177578Y27976400D01*
X66371082Y28111895D01*
X66538105Y28278918D01*
X66673600Y28472422D01*
X66773429Y28686508D01*
X66773432Y28686514D01*
X66830636Y28900000D01*
X65933012Y28900000D01*
X65965925Y28957007D01*
X66000000Y29084174D01*
X66000000Y29215826D01*
X65965925Y29342993D01*
X65933012Y29400000D01*
X66830636Y29400000D01*
X66830635Y29400001D01*
X66773432Y29613487D01*
X66773429Y29613493D01*
X66673600Y29827578D01*
X66673599Y29827580D01*
X66538113Y30021074D01*
X66538108Y30021080D01*
X66371082Y30188106D01*
X66177578Y30323601D01*
X65963492Y30423430D01*
X65963486Y30423433D01*
X65750000Y30480636D01*
X65750000Y29583012D01*
X65692993Y29615925D01*
X65565826Y29650000D01*
X65434174Y29650000D01*
X65307007Y29615925D01*
X65250000Y29583012D01*
X65250000Y30480636D01*
X65249999Y30480636D01*
X65036513Y30423433D01*
X65036507Y30423430D01*
X64822422Y30323601D01*
X64822420Y30323600D01*
X64628926Y30188114D01*
X64506477Y30065665D01*
X64445154Y30032181D01*
X64375462Y30037165D01*
X64319529Y30079037D01*
X64302614Y30110014D01*
X64253354Y30242087D01*
X64253350Y30242094D01*
X64167190Y30357188D01*
X64167187Y30357191D01*
X64052093Y30443351D01*
X64052086Y30443355D01*
X63917379Y30493597D01*
X63917372Y30493599D01*
X63857844Y30500000D01*
X63210000Y30500000D01*
X63210000Y29583012D01*
X63152993Y29615925D01*
X63025826Y29650000D01*
X62894174Y29650000D01*
X62767007Y29615925D01*
X62710000Y29583012D01*
X62710000Y30500000D01*
X62062155Y30500000D01*
X62002627Y30493599D01*
X62002620Y30493597D01*
X61867913Y30443355D01*
X61867906Y30443351D01*
X61752812Y30357191D01*
X61752809Y30357188D01*
X61666649Y30242094D01*
X61666645Y30242087D01*
X61616403Y30107380D01*
X61616401Y30107373D01*
X61610000Y30047845D01*
X56205500Y30047845D01*
X56205500Y34000500D01*
X56225185Y34067539D01*
X56277989Y34113294D01*
X56329500Y34124500D01*
X57393996Y34124500D01*
X57485040Y34142611D01*
X57529328Y34151420D01*
X57593069Y34177823D01*
X57656807Y34204223D01*
X57656808Y34204224D01*
X57656811Y34204225D01*
X57771543Y34280886D01*
X58428838Y34938181D01*
X58490161Y34971666D01*
X58516519Y34974500D01*
X61431007Y34974500D01*
X62075500Y34974500D01*
X62142539Y34954815D01*
X62188294Y34902011D01*
X62199500Y34850500D01*
X62199500Y34805248D01*
X62211131Y34746771D01*
X62211132Y34746770D01*
X62255447Y34680448D01*
X62321769Y34636133D01*
X62321770Y34636132D01*
X62380247Y34624501D01*
X62380250Y34624500D01*
X62380252Y34624500D01*
X64119750Y34624500D01*
X64119751Y34624501D01*
X64134568Y34627448D01*
X64178229Y34636132D01*
X64178229Y34636133D01*
X64178231Y34636133D01*
X64244552Y34680448D01*
X64288867Y34746769D01*
X64288867Y34746771D01*
X64288868Y34746771D01*
X64300499Y34805248D01*
X64300500Y34805250D01*
X64300500Y34850500D01*
X64320185Y34917539D01*
X64372989Y34963294D01*
X64424500Y34974500D01*
X64947265Y34974500D01*
X65014304Y34954815D01*
X65039119Y34932726D01*
X65039287Y34932893D01*
X65042165Y34930015D01*
X65043114Y34929170D01*
X65043590Y34928590D01*
X65203550Y34797315D01*
X65386046Y34699768D01*
X65584066Y34639700D01*
X65584065Y34639700D01*
X65602529Y34637882D01*
X65790000Y34619417D01*
X65995934Y34639700D01*
X66193954Y34699768D01*
X66376450Y34797315D01*
X66536410Y34928590D01*
X66667685Y35088550D01*
X66765232Y35271046D01*
X66825300Y35469066D01*
X66845583Y35675000D01*
X66825300Y35880934D01*
X66765232Y36078954D01*
X66667685Y36261450D01*
X66615702Y36324791D01*
X66536410Y36421411D01*
X66386121Y36544748D01*
X66376450Y36552685D01*
X66193954Y36650232D01*
X65995934Y36710300D01*
X65995932Y36710301D01*
X65995934Y36710301D01*
X65790000Y36730583D01*
X65584067Y36710301D01*
X65386043Y36650231D01*
X65330936Y36620775D01*
X65203550Y36552685D01*
X65203548Y36552684D01*
X65203547Y36552683D01*
X65043591Y36421412D01*
X65043115Y36420831D01*
X65042787Y36420609D01*
X65039287Y36417107D01*
X65038622Y36417772D01*
X64985368Y36381499D01*
X64947265Y36375500D01*
X64424500Y36375500D01*
X64357461Y36395185D01*
X64311706Y36447989D01*
X64300500Y36499500D01*
X64300500Y36544751D01*
X64300499Y36544753D01*
X64288868Y36603230D01*
X64288867Y36603231D01*
X64244552Y36669553D01*
X64178230Y36713868D01*
X64178229Y36713869D01*
X64119752Y36725500D01*
X64119748Y36725500D01*
X63824500Y36725500D01*
X63757461Y36745185D01*
X63711706Y36797989D01*
X63700500Y36849500D01*
X63700500Y37762035D01*
X63720185Y37829074D01*
X63736819Y37849716D01*
X64400284Y38513181D01*
X64461607Y38546666D01*
X64487965Y38549500D01*
X65059308Y38549500D01*
X65059309Y38549500D01*
X65149673Y38573714D01*
X65173887Y38580201D01*
X65276614Y38639511D01*
X66435490Y39798386D01*
X66494799Y39901114D01*
X66506971Y39946542D01*
X66525500Y40015691D01*
X66525500Y40553508D01*
X66545185Y40620547D01*
X66575862Y40653275D01*
X66638211Y40699289D01*
X66716616Y40805525D01*
X66760225Y40930151D01*
X66763000Y40959740D01*
X66763000Y41540261D01*
X66760225Y41569850D01*
X66723928Y41673579D01*
X66716616Y41694475D01*
X66712169Y41700500D01*
X66638211Y41800711D01*
X66638210Y41800712D01*
X66531976Y41879116D01*
X66407348Y41922726D01*
X66407349Y41922726D01*
X66377760Y41925500D01*
X66377756Y41925500D01*
X65772244Y41925500D01*
X65772240Y41925500D01*
X65742650Y41922726D01*
X65618023Y41879116D01*
X65511789Y41800712D01*
X65511788Y41800711D01*
X65433384Y41694477D01*
X65389774Y41569850D01*
X65387000Y41540261D01*
X65387000Y40959740D01*
X65389774Y40930151D01*
X65433384Y40805524D01*
X65474363Y40750000D01*
X65511789Y40699289D01*
X65574135Y40653276D01*
X65616384Y40597632D01*
X65624500Y40553508D01*
X65624500Y40312966D01*
X65604815Y40245927D01*
X65588181Y40225285D01*
X64849716Y39486819D01*
X64788393Y39453334D01*
X64762035Y39450500D01*
X64190691Y39450500D01*
X64121944Y39432080D01*
X64076112Y39419799D01*
X64076107Y39419796D01*
X63973393Y39360495D01*
X63973385Y39360489D01*
X62889513Y38276617D01*
X62889511Y38276614D01*
X62830201Y38173889D01*
X62827562Y38164038D01*
X62799500Y38059309D01*
X62799500Y36849500D01*
X62779815Y36782461D01*
X62727011Y36736706D01*
X62675500Y36725500D01*
X62380247Y36725500D01*
X62321770Y36713869D01*
X62321769Y36713868D01*
X62255447Y36669553D01*
X62211132Y36603231D01*
X62211131Y36603230D01*
X62199500Y36544753D01*
X62199500Y36499500D01*
X62179815Y36432461D01*
X62127011Y36386706D01*
X62075500Y36375500D01*
X58106005Y36375500D01*
X57970677Y36348582D01*
X57970667Y36348579D01*
X57843192Y36295778D01*
X57728454Y36219113D01*
X57728453Y36219112D01*
X57071162Y35561819D01*
X57009839Y35528334D01*
X56983481Y35525500D01*
X56324500Y35525500D01*
X56257461Y35545185D01*
X56211706Y35597989D01*
X56200500Y35649500D01*
X56200500Y39568996D01*
X56173581Y39704323D01*
X56173580Y39704324D01*
X56173580Y39704328D01*
X56173578Y39704333D01*
X56156912Y39744568D01*
X56156903Y39744588D01*
X56156874Y39744659D01*
X56134620Y39798386D01*
X56120775Y39831811D01*
X56120771Y39831818D01*
X56044115Y39946541D01*
X56043448Y39947208D01*
X55946542Y40044114D01*
X55625383Y40365273D01*
X54450397Y41540261D01*
X61712000Y41540261D01*
X61712000Y40959740D01*
X61714774Y40930151D01*
X61758384Y40805524D01*
X61836788Y40699290D01*
X61836789Y40699289D01*
X61943023Y40620885D01*
X61943024Y40620885D01*
X61943025Y40620884D01*
X62067651Y40577275D01*
X62067650Y40577275D01*
X62097240Y40574500D01*
X62097244Y40574500D01*
X62777760Y40574500D01*
X62807349Y40577275D01*
X62931975Y40620884D01*
X63038211Y40699289D01*
X63074998Y40749134D01*
X63130646Y40791385D01*
X63174768Y40799500D01*
X63550232Y40799500D01*
X63617271Y40779815D01*
X63650002Y40749134D01*
X63686788Y40699290D01*
X63686790Y40699288D01*
X63793023Y40620885D01*
X63793024Y40620885D01*
X63793025Y40620884D01*
X63917651Y40577275D01*
X63917650Y40577275D01*
X63947240Y40574500D01*
X63947244Y40574500D01*
X64552760Y40574500D01*
X64582349Y40577275D01*
X64706975Y40620884D01*
X64813211Y40699289D01*
X64891616Y40805525D01*
X64935225Y40930151D01*
X64938000Y40959740D01*
X64938000Y41540261D01*
X64935225Y41569850D01*
X64898928Y41673579D01*
X64891616Y41694475D01*
X64887169Y41700500D01*
X64813211Y41800711D01*
X64813210Y41800712D01*
X64706976Y41879116D01*
X64582348Y41922726D01*
X64582349Y41922726D01*
X64552760Y41925500D01*
X64552756Y41925500D01*
X63947244Y41925500D01*
X63947240Y41925500D01*
X63917650Y41922726D01*
X63793023Y41879116D01*
X63686790Y41800713D01*
X63650002Y41750866D01*
X63594354Y41708615D01*
X63550232Y41700500D01*
X63174768Y41700500D01*
X63107729Y41720185D01*
X63074998Y41750866D01*
X63058670Y41772989D01*
X63038211Y41800711D01*
X63038209Y41800712D01*
X63038209Y41800713D01*
X62931976Y41879116D01*
X62807348Y41922726D01*
X62807349Y41922726D01*
X62777760Y41925500D01*
X62777756Y41925500D01*
X62097244Y41925500D01*
X62097240Y41925500D01*
X62067650Y41922726D01*
X61943023Y41879116D01*
X61836789Y41800712D01*
X61836788Y41800711D01*
X61758384Y41694477D01*
X61714774Y41569850D01*
X61712000Y41540261D01*
X54450397Y41540261D01*
X54446546Y41544112D01*
X54446545Y41544113D01*
X54331807Y41620778D01*
X54204332Y41673579D01*
X54204322Y41673582D01*
X54068996Y41700500D01*
X54068994Y41700500D01*
X54068993Y41700500D01*
X53047596Y41700500D01*
X52980557Y41720185D01*
X52934802Y41772989D01*
X52930555Y41783544D01*
X52902793Y41862881D01*
X52902793Y41862882D01*
X52822150Y41972150D01*
X52712882Y42052793D01*
X52712880Y42052794D01*
X52584700Y42097647D01*
X52554270Y42100500D01*
X52554266Y42100500D01*
X49445734Y42100500D01*
X49445730Y42100500D01*
X49415300Y42097647D01*
X49415298Y42097647D01*
X49287119Y42052794D01*
X49287117Y42052793D01*
X49177850Y41972150D01*
X49097207Y41862883D01*
X49097206Y41862881D01*
X49052353Y41734702D01*
X49052353Y41734700D01*
X49049500Y41704270D01*
X49049500Y40295731D01*
X49052353Y40265301D01*
X49052353Y40265299D01*
X49097206Y40137120D01*
X49097207Y40137118D01*
X49177850Y40027850D01*
X49287118Y39947207D01*
X49329845Y39932256D01*
X49415299Y39902354D01*
X49445730Y39899500D01*
X49445734Y39899500D01*
X52554270Y39899500D01*
X52584699Y39902354D01*
X52584701Y39902354D01*
X52648790Y39924781D01*
X52712882Y39947207D01*
X52822150Y40027850D01*
X52902793Y40137118D01*
X52921811Y40191468D01*
X52930555Y40216456D01*
X52971277Y40273231D01*
X53036230Y40298978D01*
X53047596Y40299500D01*
X53658481Y40299500D01*
X53725520Y40279815D01*
X53746162Y40263181D01*
X54763181Y39246163D01*
X54796666Y39184840D01*
X54799500Y39158482D01*
X54799500Y35829500D01*
X54779815Y35762461D01*
X54727011Y35716706D01*
X54675500Y35705500D01*
X53601316Y35705500D01*
X53534277Y35725185D01*
X53488522Y35777989D01*
X53478578Y35847147D01*
X53507603Y35910703D01*
X53566381Y35948477D01*
X53577124Y35951117D01*
X53619854Y35959617D01*
X53644046Y35962000D01*
X53790260Y35962000D01*
X53819849Y35964775D01*
X53944475Y36008384D01*
X54050711Y36086789D01*
X54129116Y36193025D01*
X54172725Y36317651D01*
X54175500Y36347244D01*
X54175500Y36443114D01*
X54177883Y36467306D01*
X54200500Y36581005D01*
X54200500Y36718996D01*
X54177883Y36832696D01*
X54175500Y36856888D01*
X54175500Y36952761D01*
X54172725Y36982350D01*
X54129115Y37106977D01*
X54050711Y37213211D01*
X54050710Y37213212D01*
X53944476Y37291616D01*
X53819848Y37335226D01*
X53819849Y37335226D01*
X53790260Y37338000D01*
X53790256Y37338000D01*
X53644046Y37338000D01*
X53619854Y37340383D01*
X53568995Y37350500D01*
X53568993Y37350500D01*
X51568993Y37350500D01*
X49418166Y37350500D01*
X49351127Y37370185D01*
X49344542Y37374723D01*
X49340382Y37377793D01*
X49340380Y37377794D01*
X49212200Y37422647D01*
X49181770Y37425500D01*
X49181766Y37425500D01*
X48373234Y37425500D01*
X48373230Y37425500D01*
X48342800Y37422647D01*
X48342798Y37422647D01*
X48214619Y37377794D01*
X48214617Y37377793D01*
X48105350Y37297150D01*
X48024707Y37187883D01*
X48024706Y37187881D01*
X47979853Y37059702D01*
X47979853Y37059700D01*
X47977000Y37029270D01*
X47977000Y35220731D01*
X47979853Y35190301D01*
X47979853Y35190299D01*
X48021330Y35071769D01*
X48024707Y35062118D01*
X48105350Y34952850D01*
X48214618Y34872207D01*
X48257345Y34857256D01*
X48342799Y34827354D01*
X48373230Y34824500D01*
X48373234Y34824500D01*
X49181770Y34824500D01*
X49212199Y34827354D01*
X49212201Y34827354D01*
X49278347Y34850500D01*
X49340382Y34872207D01*
X49449650Y34952850D01*
X49530293Y35062118D01*
X49557561Y35140045D01*
X49575146Y35190299D01*
X49575146Y35190301D01*
X49578000Y35220731D01*
X49578000Y35825500D01*
X49597685Y35892539D01*
X49650489Y35938294D01*
X49702000Y35949500D01*
X52948020Y35949500D01*
X53015059Y35929815D01*
X53060814Y35877011D01*
X53070758Y35807853D01*
X53041733Y35744297D01*
X52982955Y35706523D01*
X52964205Y35702561D01*
X52859949Y35688836D01*
X52833582Y35683591D01*
X52802326Y35675217D01*
X52776855Y35666570D01*
X52686447Y35629122D01*
X52662336Y35617232D01*
X52662315Y35617221D01*
X52634300Y35601046D01*
X52611955Y35586116D01*
X52611946Y35586109D01*
X52534293Y35526524D01*
X52534292Y35526523D01*
X52514073Y35508789D01*
X52491211Y35485927D01*
X52473477Y35465708D01*
X52473476Y35465707D01*
X52413888Y35388050D01*
X52398948Y35365690D01*
X52382774Y35337675D01*
X52370881Y35313558D01*
X52333426Y35223133D01*
X52324787Y35197682D01*
X52324778Y35197653D01*
X52316407Y35166409D01*
X52311163Y35140045D01*
X52297320Y35034896D01*
X52296001Y35021503D01*
X52294940Y35005321D01*
X52294500Y34991862D01*
X52294500Y33329500D01*
X52274815Y33262461D01*
X52222011Y33216706D01*
X52170500Y33205500D01*
X49302273Y33205500D01*
X49261318Y33212459D01*
X49244102Y33218483D01*
X49232203Y33222647D01*
X49232197Y33222648D01*
X49201780Y33225500D01*
X49201776Y33225500D01*
X43793224Y33225500D01*
X43793220Y33225500D01*
X43762802Y33222648D01*
X43762790Y33222646D01*
X43634617Y33177795D01*
X43525348Y33097152D01*
X43444705Y32987883D01*
X43399854Y32859710D01*
X43399852Y32859698D01*
X43397000Y32829281D01*
X22819938Y32829281D01*
X25253838Y35263181D01*
X25315161Y35296666D01*
X25341519Y35299500D01*
X28117265Y35299500D01*
X28184304Y35279815D01*
X28209119Y35257726D01*
X28209287Y35257893D01*
X28212165Y35255015D01*
X28213114Y35254170D01*
X28213590Y35253590D01*
X28373550Y35122315D01*
X28556046Y35024768D01*
X28754066Y34964700D01*
X28754065Y34964700D01*
X28768341Y34963294D01*
X28960000Y34944417D01*
X29165934Y34964700D01*
X29363954Y35024768D01*
X29546450Y35122315D01*
X29706410Y35253590D01*
X29837685Y35413550D01*
X29935232Y35596046D01*
X29995300Y35794066D01*
X30015583Y36000000D01*
X29995300Y36205934D01*
X29935232Y36403954D01*
X29837685Y36586450D01*
X29785341Y36650232D01*
X29728646Y36719316D01*
X29701334Y36783626D01*
X29700500Y36797980D01*
X29700500Y36869753D01*
X30449500Y36869753D01*
X30449500Y35130248D01*
X30461131Y35071771D01*
X30461132Y35071770D01*
X30505447Y35005448D01*
X30571769Y34961133D01*
X30571770Y34961132D01*
X30630247Y34949501D01*
X30630250Y34949500D01*
X30630252Y34949500D01*
X32369750Y34949500D01*
X32369751Y34949501D01*
X32386595Y34952851D01*
X32428229Y34961132D01*
X32428229Y34961133D01*
X32428231Y34961133D01*
X32494552Y35005448D01*
X32538867Y35071769D01*
X32538867Y35071771D01*
X32538868Y35071771D01*
X32550499Y35130248D01*
X32550500Y35130250D01*
X32550500Y35175500D01*
X32570185Y35242539D01*
X32622989Y35288294D01*
X32674500Y35299500D01*
X37059846Y35299500D01*
X37100800Y35292542D01*
X37180151Y35264775D01*
X37180150Y35264775D01*
X37209740Y35262000D01*
X37209744Y35262000D01*
X37790260Y35262000D01*
X37813930Y35264220D01*
X37819849Y35264775D01*
X37899199Y35292542D01*
X37940154Y35299500D01*
X40059846Y35299500D01*
X40100800Y35292542D01*
X40180151Y35264775D01*
X40180150Y35264775D01*
X40209740Y35262000D01*
X40209744Y35262000D01*
X40790260Y35262000D01*
X40813930Y35264220D01*
X40819849Y35264775D01*
X40899199Y35292542D01*
X40940154Y35299500D01*
X43296698Y35299500D01*
X43363737Y35279815D01*
X43409492Y35227011D01*
X43417377Y35197481D01*
X43418244Y35197670D01*
X43419853Y35190299D01*
X43461330Y35071769D01*
X43464707Y35062118D01*
X43545350Y34952850D01*
X43654618Y34872207D01*
X43697345Y34857256D01*
X43782799Y34827354D01*
X43813230Y34824500D01*
X43813234Y34824500D01*
X44621770Y34824500D01*
X44652199Y34827354D01*
X44652201Y34827354D01*
X44718347Y34850500D01*
X44780382Y34872207D01*
X44889650Y34952850D01*
X44970293Y35062118D01*
X44997561Y35140045D01*
X45015146Y35190299D01*
X45015146Y35190301D01*
X45018000Y35220731D01*
X45018000Y37029270D01*
X45015146Y37059700D01*
X45015146Y37059702D01*
X44976209Y37170975D01*
X44970293Y37187882D01*
X44970291Y37187885D01*
X44970290Y37187887D01*
X44942230Y37225907D01*
X44918259Y37291536D01*
X44918000Y37299540D01*
X44918000Y37375981D01*
X44937685Y37443020D01*
X44954319Y37463662D01*
X46544112Y39053455D01*
X46544114Y39053457D01*
X46620775Y39168189D01*
X46673580Y39295672D01*
X46686474Y39360495D01*
X46700500Y39431004D01*
X46700500Y39775500D01*
X46720185Y39842539D01*
X46772989Y39888294D01*
X46824500Y39899500D01*
X47554270Y39899500D01*
X47584699Y39902354D01*
X47584701Y39902354D01*
X47648790Y39924781D01*
X47712882Y39947207D01*
X47822150Y40027850D01*
X47902793Y40137118D01*
X47925219Y40201210D01*
X47947646Y40265299D01*
X47947646Y40265301D01*
X47950500Y40295731D01*
X47950500Y41704270D01*
X47947646Y41734700D01*
X47947646Y41734702D01*
X47902793Y41862881D01*
X47902792Y41862883D01*
X47822150Y41972150D01*
X47712882Y42052793D01*
X47712880Y42052794D01*
X47584700Y42097647D01*
X47554270Y42100500D01*
X47554266Y42100500D01*
X44445734Y42100500D01*
X44445730Y42100500D01*
X44415300Y42097647D01*
X44415298Y42097647D01*
X44287119Y42052794D01*
X44287117Y42052793D01*
X44177850Y41972150D01*
X44097207Y41862883D01*
X44097206Y41862881D01*
X44052353Y41734702D01*
X44052353Y41734700D01*
X44049500Y41704270D01*
X44049500Y40295731D01*
X44052353Y40265301D01*
X44052353Y40265299D01*
X44097206Y40137120D01*
X44097207Y40137118D01*
X44177850Y40027850D01*
X44287118Y39947207D01*
X44329845Y39932256D01*
X44415299Y39902354D01*
X44445730Y39899500D01*
X44445734Y39899500D01*
X45109481Y39899500D01*
X45176520Y39879815D01*
X45222275Y39827011D01*
X45232219Y39757853D01*
X45203194Y39694297D01*
X45197162Y39687819D01*
X43673388Y38164047D01*
X43673387Y38164046D01*
X43603405Y38059310D01*
X43603405Y38059309D01*
X43596725Y38049311D01*
X43596724Y38049309D01*
X43543920Y37921829D01*
X43543918Y37921823D01*
X43517000Y37786496D01*
X43517000Y37299540D01*
X43497315Y37232501D01*
X43492770Y37225907D01*
X43464709Y37187887D01*
X43464706Y37187881D01*
X43419853Y37059702D01*
X43419853Y37059700D01*
X43417000Y37029270D01*
X43417000Y36824500D01*
X43397315Y36757461D01*
X43344511Y36711706D01*
X43293000Y36700500D01*
X40940154Y36700500D01*
X40899199Y36707459D01*
X40866237Y36718993D01*
X40819848Y36735226D01*
X40819849Y36735226D01*
X40790260Y36738000D01*
X40790256Y36738000D01*
X40209744Y36738000D01*
X40209740Y36738000D01*
X40180151Y36735226D01*
X40119120Y36713869D01*
X40100800Y36707459D01*
X40059846Y36700500D01*
X37940154Y36700500D01*
X37899199Y36707459D01*
X37866237Y36718993D01*
X37819848Y36735226D01*
X37819849Y36735226D01*
X37790260Y36738000D01*
X37790256Y36738000D01*
X37209744Y36738000D01*
X37209740Y36738000D01*
X37180151Y36735226D01*
X37119120Y36713869D01*
X37100800Y36707459D01*
X37059846Y36700500D01*
X32674500Y36700500D01*
X32607461Y36720185D01*
X32561706Y36772989D01*
X32550500Y36824500D01*
X32550500Y36869751D01*
X32550499Y36869753D01*
X32538868Y36928230D01*
X32538867Y36928231D01*
X32494552Y36994553D01*
X32428230Y37038868D01*
X32428229Y37038869D01*
X32369752Y37050500D01*
X32369748Y37050500D01*
X30630252Y37050500D01*
X30630247Y37050500D01*
X30571770Y37038869D01*
X30571769Y37038868D01*
X30505447Y36994553D01*
X30461132Y36928231D01*
X30461131Y36928230D01*
X30449500Y36869753D01*
X29700500Y36869753D01*
X29700500Y57132266D01*
X29720185Y57199305D01*
X29742275Y57224119D01*
X29742107Y57224287D01*
X29745003Y57227184D01*
X29745838Y57228121D01*
X29746410Y57228590D01*
X29877685Y57388550D01*
X29975232Y57571046D01*
X30035300Y57769066D01*
X30055583Y57975000D01*
X30035300Y58180934D01*
X29975232Y58378954D01*
X29877685Y58561450D01*
X29825702Y58624791D01*
X29746410Y58721411D01*
X29596121Y58844748D01*
X29596115Y58844753D01*
X30489500Y58844753D01*
X30489500Y57105248D01*
X30501131Y57046771D01*
X30501132Y57046770D01*
X30545447Y56980448D01*
X30611769Y56936133D01*
X30611770Y56936132D01*
X30670247Y56924501D01*
X30670250Y56924500D01*
X30670252Y56924500D01*
X32409750Y56924500D01*
X32409751Y56924501D01*
X32424568Y56927448D01*
X32468229Y56936132D01*
X32468229Y56936133D01*
X32468231Y56936133D01*
X32534552Y56980448D01*
X32578867Y57046769D01*
X32578867Y57046771D01*
X32578868Y57046771D01*
X32590499Y57105248D01*
X32590500Y57105250D01*
X32590500Y57150500D01*
X32610185Y57217539D01*
X32662989Y57263294D01*
X32714500Y57274500D01*
X33793996Y57274500D01*
X33885040Y57292611D01*
X33929328Y57301420D01*
X34022469Y57340000D01*
X34056807Y57354223D01*
X34056808Y57354224D01*
X34056811Y57354225D01*
X34171543Y57430886D01*
X34866338Y58125681D01*
X34927661Y58159166D01*
X34954019Y58162000D01*
X36059846Y58162000D01*
X36100800Y58155042D01*
X36180151Y58127275D01*
X36180150Y58127275D01*
X36209740Y58124500D01*
X36209744Y58124500D01*
X36790260Y58124500D01*
X36813930Y58126720D01*
X36819849Y58127275D01*
X36899199Y58155042D01*
X36940154Y58162000D01*
X39059846Y58162000D01*
X39100800Y58155042D01*
X39180151Y58127275D01*
X39180150Y58127275D01*
X39209740Y58124500D01*
X39209744Y58124500D01*
X39790260Y58124500D01*
X39819849Y58127275D01*
X39944475Y58170884D01*
X40050711Y58249289D01*
X40128089Y58354133D01*
X40183736Y58396384D01*
X40227859Y58404500D01*
X44419750Y58404500D01*
X44419751Y58404501D01*
X44434568Y58407448D01*
X44478229Y58416132D01*
X44478229Y58416133D01*
X44478231Y58416133D01*
X44544552Y58460448D01*
X44588867Y58526769D01*
X44588867Y58526771D01*
X44588868Y58526771D01*
X44600499Y58585248D01*
X44600500Y58585250D01*
X44600500Y59224751D01*
X44600499Y59224753D01*
X44588868Y59283230D01*
X44588867Y59283231D01*
X44544552Y59349553D01*
X44478230Y59393868D01*
X44478229Y59393869D01*
X44419752Y59405500D01*
X44419748Y59405500D01*
X43415892Y59405500D01*
X40165127Y59405500D01*
X40098088Y59425185D01*
X40065357Y59455866D01*
X40050711Y59475711D01*
X40050707Y59475714D01*
X40044137Y59482285D01*
X40045075Y59483224D01*
X40008615Y59531246D01*
X40000500Y59575367D01*
X40000500Y60241324D01*
X40020185Y60308363D01*
X40036819Y60329005D01*
X40615995Y60908181D01*
X40677318Y60941666D01*
X40703676Y60944500D01*
X44419750Y60944500D01*
X44419751Y60944501D01*
X44434568Y60947448D01*
X44478229Y60956132D01*
X44478229Y60956133D01*
X44478231Y60956133D01*
X44544552Y61000448D01*
X44588867Y61066769D01*
X44588867Y61066771D01*
X44588868Y61066771D01*
X44600499Y61125248D01*
X44600500Y61125250D01*
X44600500Y61764751D01*
X44600499Y61764753D01*
X44588868Y61823230D01*
X44588867Y61823231D01*
X44544552Y61889553D01*
X44478230Y61933868D01*
X44478229Y61933869D01*
X44419752Y61945500D01*
X44419748Y61945500D01*
X43415892Y61945500D01*
X40510893Y61945500D01*
X40379108Y61945500D01*
X40251812Y61911392D01*
X40137686Y61845500D01*
X40137683Y61845498D01*
X39099502Y60807317D01*
X39099500Y60807314D01*
X39033608Y60693188D01*
X38999500Y60565892D01*
X38999500Y59687000D01*
X38979815Y59619961D01*
X38927011Y59574206D01*
X38875500Y59563000D01*
X36940154Y59563000D01*
X36899199Y59569959D01*
X36880051Y59576660D01*
X36819848Y59597726D01*
X36819849Y59597726D01*
X36790260Y59600500D01*
X36790256Y59600500D01*
X36209744Y59600500D01*
X36209740Y59600500D01*
X36180151Y59597726D01*
X36116256Y59575367D01*
X36100800Y59569959D01*
X36059846Y59563000D01*
X34543505Y59563000D01*
X34408177Y59536082D01*
X34408167Y59536079D01*
X34280692Y59483278D01*
X34165954Y59406613D01*
X34165953Y59406612D01*
X33471162Y58711819D01*
X33409839Y58678334D01*
X33383481Y58675500D01*
X32714500Y58675500D01*
X32647461Y58695185D01*
X32601706Y58747989D01*
X32590500Y58799500D01*
X32590500Y58844751D01*
X32590499Y58844753D01*
X32578868Y58903230D01*
X32578867Y58903231D01*
X32534552Y58969553D01*
X32468230Y59013868D01*
X32468229Y59013869D01*
X32409752Y59025500D01*
X32409748Y59025500D01*
X30670252Y59025500D01*
X30670247Y59025500D01*
X30611770Y59013869D01*
X30611769Y59013868D01*
X30545447Y58969553D01*
X30501132Y58903231D01*
X30501131Y58903230D01*
X30489500Y58844753D01*
X29596115Y58844753D01*
X29586450Y58852685D01*
X29403954Y58950232D01*
X29205934Y59010300D01*
X29205932Y59010301D01*
X29205934Y59010301D01*
X29000000Y59030583D01*
X28794067Y59010301D01*
X28596043Y58950231D01*
X28508114Y58903231D01*
X28413550Y58852685D01*
X28413548Y58852684D01*
X28413547Y58852683D01*
X28253589Y58721411D01*
X28141845Y58585248D01*
X28122315Y58561450D01*
X28083643Y58489102D01*
X28024769Y58378957D01*
X27964699Y58180933D01*
X27944417Y57975000D01*
X27964699Y57769068D01*
X27964700Y57769066D01*
X28024768Y57571046D01*
X28122315Y57388550D01*
X28253590Y57228590D01*
X28254159Y57228123D01*
X28254379Y57227801D01*
X28257893Y57224287D01*
X28257226Y57223621D01*
X28293496Y57170382D01*
X28299500Y57132266D01*
X28299500Y36875563D01*
X28279815Y36808524D01*
X28254167Y36779711D01*
X28213588Y36746408D01*
X28213115Y36745831D01*
X28212788Y36745609D01*
X28209282Y36742102D01*
X28208616Y36742768D01*
X28155368Y36706499D01*
X28117265Y36700500D01*
X24931004Y36700500D01*
X24795677Y36673582D01*
X24795667Y36673579D01*
X24668192Y36620778D01*
X24553454Y36544113D01*
X19955887Y31946546D01*
X19879222Y31831808D01*
X19826421Y31704333D01*
X19826418Y31704321D01*
X19801303Y31578056D01*
X19801302Y31578050D01*
X19799500Y31568994D01*
X19799500Y29224500D01*
X19779815Y29157461D01*
X19727011Y29111706D01*
X19675500Y29100500D01*
X18945730Y29100500D01*
X18915300Y29097647D01*
X18915298Y29097647D01*
X18787119Y29052794D01*
X18787117Y29052793D01*
X18677850Y28972150D01*
X18597207Y28862883D01*
X18597206Y28862881D01*
X18552353Y28734702D01*
X18552353Y28734700D01*
X18549500Y28704270D01*
X17310500Y28704270D01*
X17307646Y28734700D01*
X17307646Y28734702D01*
X17262793Y28862881D01*
X17262792Y28862883D01*
X17182150Y28972150D01*
X17072882Y29052793D01*
X17072880Y29052794D01*
X16944700Y29097647D01*
X16914270Y29100500D01*
X16914266Y29100500D01*
X16184500Y29100500D01*
X16117461Y29120185D01*
X16071706Y29172989D01*
X16060500Y29224500D01*
X16060500Y37125500D01*
X16080185Y37192539D01*
X16132989Y37238294D01*
X16173857Y37247185D01*
X16173688Y37248903D01*
X16179742Y37249500D01*
X16179748Y37249500D01*
X16194568Y37252448D01*
X16238229Y37261132D01*
X16238229Y37261133D01*
X16238231Y37261133D01*
X16304552Y37305448D01*
X16348867Y37371769D01*
X16348867Y37371771D01*
X16348868Y37371771D01*
X16360499Y37430248D01*
X16360500Y37430250D01*
X16360500Y39069751D01*
X16360499Y39069753D01*
X16348868Y39128230D01*
X16348867Y39128231D01*
X16304552Y39194553D01*
X16238230Y39238868D01*
X16238229Y39238869D01*
X16179752Y39250500D01*
X16179748Y39250500D01*
X14540252Y39250500D01*
X14540247Y39250500D01*
X14481770Y39238869D01*
X14481769Y39238868D01*
X14415447Y39194553D01*
X14371132Y39128231D01*
X14371131Y39128230D01*
X14359500Y39069753D01*
X14359500Y38947309D01*
X14339815Y38880270D01*
X14323181Y38859628D01*
X13822550Y38358998D01*
X13802630Y38433343D01*
X13740095Y38541657D01*
X13651657Y38630095D01*
X13543343Y38692630D01*
X13468998Y38712551D01*
X14085472Y39329026D01*
X14012478Y39380137D01*
X13806331Y39476265D01*
X13806320Y39476269D01*
X13589300Y39534419D01*
X13529640Y39570784D01*
X13499111Y39633631D01*
X13507406Y39703007D01*
X13551891Y39756885D01*
X13585393Y39772853D01*
X13744727Y39821186D01*
X13918538Y39914090D01*
X14070883Y40039117D01*
X14195910Y40191462D01*
X14235378Y40265301D01*
X14250642Y40293857D01*
X14299604Y40343701D01*
X14367742Y40359162D01*
X14433421Y40335330D01*
X14469358Y40293857D01*
X14524086Y40191468D01*
X14524090Y40191461D01*
X14649116Y40039117D01*
X14801460Y39914091D01*
X14801467Y39914087D01*
X14975266Y39821189D01*
X14975269Y39821189D01*
X14975273Y39821186D01*
X15163868Y39763976D01*
X15360000Y39744659D01*
X15556132Y39763976D01*
X15744727Y39821186D01*
X15918538Y39914090D01*
X16070883Y40039117D01*
X16195910Y40191462D01*
X16288814Y40365273D01*
X16346024Y40553868D01*
X16365341Y40750000D01*
X16346024Y40946132D01*
X16288814Y41134727D01*
X16288811Y41134731D01*
X16288811Y41134734D01*
X16195913Y41308533D01*
X16195909Y41308540D01*
X16070883Y41460884D01*
X15918539Y41585910D01*
X15918532Y41585914D01*
X15744733Y41678812D01*
X15744727Y41678814D01*
X15556132Y41736024D01*
X15556129Y41736025D01*
X15360000Y41755341D01*
X15163870Y41736025D01*
X14975266Y41678812D01*
X14801467Y41585914D01*
X14801460Y41585910D01*
X14649116Y41460884D01*
X14524090Y41308540D01*
X14524085Y41308533D01*
X14469358Y41206144D01*
X14420396Y41156299D01*
X14352258Y41140839D01*
X14286578Y41164671D01*
X14250642Y41206144D01*
X14195914Y41308533D01*
X14195909Y41308540D01*
X14070883Y41460884D01*
X13918539Y41585910D01*
X13918532Y41585914D01*
X13744733Y41678812D01*
X13744727Y41678814D01*
X13556132Y41736024D01*
X13556129Y41736025D01*
X13360000Y41755341D01*
X13163870Y41736025D01*
X12975266Y41678812D01*
X12801467Y41585914D01*
X12801460Y41585910D01*
X12649116Y41460884D01*
X12524090Y41308540D01*
X12524086Y41308533D01*
X12431188Y41134734D01*
X12373975Y40946130D01*
X12354659Y40750000D01*
X12373975Y40553871D01*
X12431188Y40365267D01*
X12524086Y40191468D01*
X12524090Y40191461D01*
X12649116Y40039117D01*
X12801460Y39914091D01*
X12801467Y39914087D01*
X12975268Y39821188D01*
X12975270Y39821188D01*
X12975273Y39821186D01*
X13134601Y39772854D01*
X13193039Y39734557D01*
X13221495Y39670745D01*
X13210935Y39601678D01*
X13164711Y39549284D01*
X13130699Y39534419D01*
X12913680Y39476269D01*
X12913673Y39476266D01*
X12707516Y39380134D01*
X12707512Y39380132D01*
X12634526Y39329027D01*
X12634526Y39329026D01*
X13251002Y38712551D01*
X13176657Y38692630D01*
X13068343Y38630095D01*
X12979905Y38541657D01*
X12917370Y38433343D01*
X12897449Y38358999D01*
X12280974Y38975474D01*
X12280973Y38975474D01*
X12229868Y38902488D01*
X12229866Y38902484D01*
X12133734Y38696327D01*
X12133730Y38696318D01*
X12074860Y38476611D01*
X12074858Y38476600D01*
X12055034Y38250003D01*
X500500Y38250003D01*
X500500Y45500006D01*
X7995057Y45500006D01*
X7995057Y45499995D01*
X8014807Y45186058D01*
X8014808Y45186051D01*
X8073755Y44877042D01*
X8170963Y44577868D01*
X8170965Y44577863D01*
X8304900Y44293239D01*
X8304903Y44293233D01*
X8473457Y44027633D01*
X8473460Y44027629D01*
X8564286Y43917840D01*
X9527913Y44881467D01*
X9622829Y44750825D01*
X9750825Y44622829D01*
X9881465Y44527914D01*
X8914971Y43561421D01*
X8914972Y43561419D01*
X9157772Y43385015D01*
X9157790Y43385004D01*
X9433447Y43233460D01*
X9433455Y43233456D01*
X9725926Y43117660D01*
X10030620Y43039427D01*
X10030629Y43039425D01*
X10342701Y43000001D01*
X10342715Y43000000D01*
X10657285Y43000000D01*
X10657298Y43000001D01*
X10969370Y43039425D01*
X10969379Y43039427D01*
X11274073Y43117660D01*
X11566544Y43233456D01*
X11566552Y43233460D01*
X11842209Y43385004D01*
X11842219Y43385010D01*
X12085026Y43561421D01*
X12085027Y43561421D01*
X11118533Y44527914D01*
X11249175Y44622829D01*
X11377171Y44750825D01*
X11472086Y44881466D01*
X12435712Y43917840D01*
X12526544Y44027636D01*
X12695096Y44293233D01*
X12695099Y44293239D01*
X12829034Y44577863D01*
X12829036Y44577868D01*
X12926244Y44877042D01*
X12985191Y45186051D01*
X12985192Y45186058D01*
X13004943Y45499995D01*
X13004943Y45500006D01*
X12985192Y45813943D01*
X12985191Y45813950D01*
X12926244Y46122959D01*
X12829036Y46422133D01*
X12829034Y46422138D01*
X12695099Y46706762D01*
X12695096Y46706768D01*
X12526542Y46972368D01*
X12526539Y46972372D01*
X12435712Y47082162D01*
X11472085Y46118535D01*
X11377171Y46249175D01*
X11249175Y46377171D01*
X11118533Y46472087D01*
X12085027Y47438581D01*
X12085026Y47438583D01*
X11842227Y47614986D01*
X11842209Y47614997D01*
X11566552Y47766541D01*
X11566544Y47766545D01*
X11274073Y47882341D01*
X10969379Y47960574D01*
X10969370Y47960576D01*
X10657298Y48000000D01*
X10342701Y48000000D01*
X10030629Y47960576D01*
X10030620Y47960574D01*
X9725926Y47882341D01*
X9433455Y47766545D01*
X9433447Y47766541D01*
X9157787Y47614996D01*
X9157782Y47614993D01*
X8914972Y47438582D01*
X8914971Y47438581D01*
X9881466Y46472087D01*
X9750825Y46377171D01*
X9622829Y46249175D01*
X9527913Y46118535D01*
X8564286Y47082162D01*
X8564285Y47082162D01*
X8473459Y46972371D01*
X8473457Y46972368D01*
X8304903Y46706768D01*
X8304900Y46706762D01*
X8170965Y46422138D01*
X8170963Y46422133D01*
X8073755Y46122959D01*
X8014808Y45813950D01*
X8014807Y45813943D01*
X7995057Y45500006D01*
X500500Y45500006D01*
X500500Y70000003D01*
X1594506Y70000003D01*
X1594506Y69999998D01*
X1614469Y69631804D01*
X1614470Y69631787D01*
X1674122Y69267932D01*
X1674128Y69267906D01*
X1772768Y68912635D01*
X1772770Y68912629D01*
X1909255Y68570074D01*
X1909261Y68570062D01*
X2081973Y68244292D01*
X2081976Y68244287D01*
X2081978Y68244284D01*
X2288910Y67939083D01*
X2527627Y67658044D01*
X2795330Y67404462D01*
X3088881Y67181310D01*
X3404838Y66991205D01*
X3404840Y66991204D01*
X3404842Y66991203D01*
X3404846Y66991201D01*
X3739486Y66836380D01*
X3739497Y66836375D01*
X4088934Y66718636D01*
X4449052Y66639368D01*
X4815630Y66599500D01*
X4815636Y66599500D01*
X5184364Y66599500D01*
X5184370Y66599500D01*
X5550948Y66639368D01*
X5911066Y66718636D01*
X6260503Y66836375D01*
X6595162Y66991205D01*
X6911119Y67181310D01*
X7204670Y67404462D01*
X7472373Y67658044D01*
X7711090Y67939083D01*
X7918022Y68244284D01*
X8090743Y68570070D01*
X8227227Y68912621D01*
X8325875Y69267919D01*
X8385531Y69631801D01*
X8405494Y70000000D01*
X8385531Y70368199D01*
X8325875Y70732081D01*
X8227227Y71087379D01*
X8090743Y71429930D01*
X7918022Y71755716D01*
X7711090Y72060917D01*
X7472373Y72341956D01*
X7204670Y72595538D01*
X6911119Y72818690D01*
X6595162Y73008795D01*
X6595161Y73008796D01*
X6595157Y73008798D01*
X6595153Y73008800D01*
X6260513Y73163621D01*
X6260508Y73163623D01*
X6260503Y73163625D01*
X6090172Y73221017D01*
X5911065Y73281365D01*
X5550946Y73360633D01*
X5184371Y73400500D01*
X5184370Y73400500D01*
X4815630Y73400500D01*
X4815628Y73400500D01*
X4449053Y73360633D01*
X4088934Y73281365D01*
X3818812Y73190350D01*
X3739497Y73163625D01*
X3739494Y73163624D01*
X3739486Y73163621D01*
X3404846Y73008800D01*
X3404842Y73008798D01*
X3169538Y72867221D01*
X3088881Y72818690D01*
X2988410Y72742315D01*
X2795330Y72595539D01*
X2795330Y72595538D01*
X2527626Y72341956D01*
X2288909Y72060917D01*
X2081979Y71755718D01*
X2081973Y71755709D01*
X1909261Y71429939D01*
X1909255Y71429927D01*
X1772770Y71087372D01*
X1772768Y71087366D01*
X1674128Y70732095D01*
X1674122Y70732069D01*
X1614470Y70368214D01*
X1614469Y70368197D01*
X1594506Y70000003D01*
X500500Y70000003D01*
X500500Y74375500D01*
X520185Y74442539D01*
X572989Y74488294D01*
X624500Y74499500D01*
X44687118Y74499500D01*
X44754157Y74479815D01*
G37*
%TD.AperFunction*%
%TD*%
%TA.AperFunction,Conductor*%
%TO.N,GND_ISO*%
G36*
X71574075Y54192993D02*
G01*
X71540000Y54065826D01*
X71540000Y53934174D01*
X71574075Y53807007D01*
X71606988Y53750000D01*
X69933012Y53750000D01*
X69965925Y53807007D01*
X70000000Y53934174D01*
X70000000Y54065826D01*
X69965925Y54192993D01*
X69933012Y54250000D01*
X71606988Y54250000D01*
X71574075Y54192993D01*
G37*
%TD.AperFunction*%
%TA.AperFunction,Conductor*%
G36*
X94442539Y74479815D02*
G01*
X94488294Y74427011D01*
X94499500Y74375500D01*
X94499500Y50222582D01*
X94479815Y50155543D01*
X94427011Y50109788D01*
X94375782Y50098583D01*
X60101136Y50020685D01*
X59787042Y50019972D01*
X51509275Y50001158D01*
X51493064Y50002185D01*
X51387717Y50015831D01*
X51356389Y50024162D01*
X51265772Y50061516D01*
X51237673Y50077682D01*
X51159832Y50137248D01*
X51136884Y50160144D01*
X51077141Y50237850D01*
X51060913Y50265906D01*
X51023347Y50356452D01*
X51014949Y50387751D01*
X51001064Y50493069D01*
X51000000Y50509276D01*
X51000000Y57954753D01*
X51399500Y57954753D01*
X51399500Y57315248D01*
X51411131Y57256771D01*
X51411132Y57256770D01*
X51455447Y57190448D01*
X51521769Y57146133D01*
X51521770Y57146132D01*
X51580247Y57134501D01*
X51580250Y57134500D01*
X51580252Y57134500D01*
X53719750Y57134500D01*
X53719751Y57134501D01*
X53734568Y57137448D01*
X53778229Y57146132D01*
X53778229Y57146133D01*
X53778231Y57146133D01*
X53844552Y57190448D01*
X53844553Y57190449D01*
X53870575Y57229392D01*
X53924187Y57274196D01*
X53973676Y57284500D01*
X54768456Y57284500D01*
X54835495Y57264815D01*
X54856137Y57248181D01*
X55844788Y56259530D01*
X55924712Y56213386D01*
X56013856Y56189500D01*
X56106144Y56189500D01*
X61921873Y56189500D01*
X61988912Y56169815D01*
X62031231Y56123954D01*
X62122315Y55953550D01*
X62122317Y55953548D01*
X62253589Y55793590D01*
X62350209Y55714298D01*
X62413550Y55662315D01*
X62596046Y55564768D01*
X62662551Y55544595D01*
X62720989Y55506298D01*
X62749446Y55442486D01*
X62738887Y55373419D01*
X62692663Y55321025D01*
X62658650Y55306159D01*
X62536514Y55273433D01*
X62536507Y55273430D01*
X62322422Y55173601D01*
X62322420Y55173600D01*
X62128926Y55038114D01*
X62128920Y55038109D01*
X61961891Y54871080D01*
X61961886Y54871074D01*
X61826400Y54677580D01*
X61826399Y54677578D01*
X61726570Y54463493D01*
X61726567Y54463487D01*
X61669364Y54250001D01*
X61669364Y54250000D01*
X62566988Y54250000D01*
X62534075Y54192993D01*
X62500000Y54065826D01*
X62500000Y53934174D01*
X62534075Y53807007D01*
X62566988Y53750000D01*
X61669364Y53750000D01*
X61726567Y53536514D01*
X61726570Y53536508D01*
X61826399Y53322422D01*
X61961894Y53128918D01*
X62128917Y52961895D01*
X62322421Y52826400D01*
X62536507Y52726571D01*
X62536516Y52726567D01*
X62750000Y52669366D01*
X62750000Y53566988D01*
X62807007Y53534075D01*
X62934174Y53500000D01*
X63065826Y53500000D01*
X63192993Y53534075D01*
X63250000Y53566988D01*
X63250000Y52669367D01*
X63463483Y52726567D01*
X63463492Y52726571D01*
X63677578Y52826400D01*
X63871082Y52961895D01*
X64038105Y53128918D01*
X64173600Y53322422D01*
X64273429Y53536508D01*
X64273432Y53536514D01*
X64330636Y53750000D01*
X63433012Y53750000D01*
X63465925Y53807007D01*
X63500000Y53934174D01*
X63500000Y54065826D01*
X63465925Y54192993D01*
X63433012Y54250000D01*
X64330636Y54250000D01*
X64330635Y54250001D01*
X64273432Y54463487D01*
X64273429Y54463493D01*
X64173600Y54677578D01*
X64173599Y54677580D01*
X64038113Y54871074D01*
X64038108Y54871080D01*
X64011343Y54897845D01*
X68150000Y54897845D01*
X68150000Y54250000D01*
X69066988Y54250000D01*
X69034075Y54192993D01*
X69000000Y54065826D01*
X69000000Y53934174D01*
X69034075Y53807007D01*
X69066988Y53750000D01*
X68150000Y53750000D01*
X68150000Y53102156D01*
X68156401Y53042628D01*
X68156403Y53042621D01*
X68206645Y52907914D01*
X68206649Y52907907D01*
X68292809Y52792813D01*
X68292812Y52792810D01*
X68407906Y52706650D01*
X68407913Y52706646D01*
X68542620Y52656404D01*
X68542627Y52656402D01*
X68602155Y52650001D01*
X68602172Y52650000D01*
X69250000Y52650000D01*
X69250000Y53566988D01*
X69307007Y53534075D01*
X69434174Y53500000D01*
X69565826Y53500000D01*
X69692993Y53534075D01*
X69750000Y53566988D01*
X69750000Y52650000D01*
X70397828Y52650000D01*
X70397844Y52650001D01*
X70457372Y52656402D01*
X70457379Y52656404D01*
X70592086Y52706646D01*
X70592093Y52706650D01*
X70707187Y52792810D01*
X70707190Y52792813D01*
X70793350Y52907907D01*
X70793354Y52907914D01*
X70842614Y53039987D01*
X70884485Y53095921D01*
X70949949Y53120338D01*
X71018222Y53105487D01*
X71046477Y53084335D01*
X71168917Y52961895D01*
X71362421Y52826400D01*
X71576507Y52726571D01*
X71576516Y52726567D01*
X71790000Y52669366D01*
X71790000Y53566988D01*
X71847007Y53534075D01*
X71974174Y53500000D01*
X72105826Y53500000D01*
X72232993Y53534075D01*
X72290000Y53566988D01*
X72290000Y52669367D01*
X72503483Y52726567D01*
X72503492Y52726571D01*
X72717578Y52826400D01*
X72911082Y52961895D01*
X73078105Y53128918D01*
X73213600Y53322422D01*
X73313429Y53536508D01*
X73313432Y53536514D01*
X73370636Y53750000D01*
X72473012Y53750000D01*
X72505925Y53807007D01*
X72540000Y53934174D01*
X72540000Y54065826D01*
X72505925Y54192993D01*
X72473012Y54250000D01*
X73370636Y54250000D01*
X73370635Y54250001D01*
X73313432Y54463487D01*
X73313429Y54463493D01*
X73213600Y54677578D01*
X73213599Y54677580D01*
X73078113Y54871074D01*
X73078108Y54871080D01*
X72911082Y55038106D01*
X72717578Y55173601D01*
X72503492Y55273430D01*
X72503486Y55273433D01*
X72290000Y55330636D01*
X72290000Y54433012D01*
X72232993Y54465925D01*
X72105826Y54500000D01*
X71974174Y54500000D01*
X71847007Y54465925D01*
X71790000Y54433012D01*
X71790000Y55330636D01*
X71789999Y55330636D01*
X71576513Y55273433D01*
X71576507Y55273430D01*
X71362422Y55173601D01*
X71362420Y55173600D01*
X71168926Y55038114D01*
X71046477Y54915665D01*
X70985154Y54882181D01*
X70915462Y54887165D01*
X70859529Y54929037D01*
X70842614Y54960014D01*
X70793354Y55092087D01*
X70793350Y55092094D01*
X70707190Y55207188D01*
X70707187Y55207191D01*
X70592093Y55293351D01*
X70592086Y55293355D01*
X70457379Y55343597D01*
X70457372Y55343599D01*
X70397844Y55350000D01*
X69750000Y55350000D01*
X69750000Y54433012D01*
X69692993Y54465925D01*
X69565826Y54500000D01*
X69434174Y54500000D01*
X69307007Y54465925D01*
X69250000Y54433012D01*
X69250000Y55350000D01*
X68602155Y55350000D01*
X68542627Y55343599D01*
X68542620Y55343597D01*
X68407913Y55293355D01*
X68407906Y55293351D01*
X68292812Y55207191D01*
X68292809Y55207188D01*
X68206649Y55092094D01*
X68206645Y55092087D01*
X68156403Y54957380D01*
X68156401Y54957373D01*
X68150000Y54897845D01*
X64011343Y54897845D01*
X63871082Y55038106D01*
X63677578Y55173601D01*
X63463492Y55273430D01*
X63463486Y55273433D01*
X63341349Y55306159D01*
X63281689Y55342524D01*
X63251160Y55405371D01*
X63259455Y55474747D01*
X63303940Y55528625D01*
X63337444Y55544593D01*
X63403954Y55564768D01*
X63586450Y55662315D01*
X63746410Y55793590D01*
X63877685Y55953550D01*
X63975232Y56136046D01*
X64035300Y56334066D01*
X64055583Y56540000D01*
X64035300Y56745934D01*
X63975232Y56943954D01*
X63877685Y57126450D01*
X63825163Y57190449D01*
X63746410Y57286411D01*
X63586452Y57417683D01*
X63586453Y57417683D01*
X63586450Y57417685D01*
X63403954Y57515232D01*
X63205934Y57575300D01*
X63205932Y57575301D01*
X63205934Y57575301D01*
X63000000Y57595583D01*
X62794067Y57575301D01*
X62596043Y57515231D01*
X62485898Y57456357D01*
X62413550Y57417685D01*
X62413548Y57417684D01*
X62413547Y57417683D01*
X62253589Y57286411D01*
X62122317Y57126453D01*
X62031231Y56956046D01*
X61982268Y56906202D01*
X61921873Y56890500D01*
X56256544Y56890500D01*
X56189505Y56910185D01*
X56168863Y56926819D01*
X55180213Y57915469D01*
X55180208Y57915473D01*
X55100290Y57961613D01*
X55100289Y57961614D01*
X55100288Y57961614D01*
X55011144Y57985500D01*
X55011143Y57985500D01*
X53973676Y57985500D01*
X53906637Y58005185D01*
X53870575Y58040608D01*
X53844553Y58079552D01*
X53778230Y58123868D01*
X53778229Y58123869D01*
X53719752Y58135500D01*
X53719748Y58135500D01*
X51580252Y58135500D01*
X51580247Y58135500D01*
X51521770Y58123869D01*
X51521769Y58123868D01*
X51455447Y58079553D01*
X51411132Y58013231D01*
X51411131Y58013230D01*
X51399500Y57954753D01*
X51000000Y57954753D01*
X51000000Y59224753D01*
X51399500Y59224753D01*
X51399500Y58585248D01*
X51411131Y58526771D01*
X51411132Y58526770D01*
X51455447Y58460448D01*
X51521769Y58416133D01*
X51521770Y58416132D01*
X51580247Y58404501D01*
X51580250Y58404500D01*
X51580252Y58404500D01*
X52584108Y58404500D01*
X55384489Y58404500D01*
X55451528Y58384815D01*
X55458108Y58380281D01*
X55555525Y58308384D01*
X55680151Y58264775D01*
X55680150Y58264775D01*
X55709740Y58262000D01*
X55709744Y58262000D01*
X56290260Y58262000D01*
X56319849Y58264775D01*
X56444475Y58308384D01*
X56550711Y58386789D01*
X56594325Y58445884D01*
X56596723Y58449133D01*
X56652370Y58491384D01*
X56696493Y58499500D01*
X58442074Y58499500D01*
X58509113Y58479815D01*
X58515707Y58475271D01*
X58555525Y58445884D01*
X58680151Y58402275D01*
X58680150Y58402275D01*
X58709740Y58399500D01*
X58709744Y58399500D01*
X59290260Y58399500D01*
X59319849Y58402275D01*
X59326210Y58404501D01*
X59444475Y58445884D01*
X59550711Y58524289D01*
X59554285Y58529133D01*
X59609932Y58571384D01*
X59654056Y58579500D01*
X61825500Y58579500D01*
X61892539Y58559815D01*
X61938294Y58507011D01*
X61949500Y58455500D01*
X61949500Y58210248D01*
X61961131Y58151771D01*
X61961132Y58151770D01*
X62005447Y58085448D01*
X62071769Y58041133D01*
X62071770Y58041132D01*
X62130247Y58029501D01*
X62130250Y58029500D01*
X62130252Y58029500D01*
X63869750Y58029500D01*
X63869751Y58029501D01*
X63884568Y58032448D01*
X63928229Y58041132D01*
X63928229Y58041133D01*
X63928231Y58041133D01*
X63994552Y58085448D01*
X64038867Y58151769D01*
X64038867Y58151771D01*
X64038868Y58151771D01*
X64050499Y58210248D01*
X64050500Y58210250D01*
X64050500Y58455500D01*
X64070185Y58522539D01*
X64122989Y58568294D01*
X64174500Y58579500D01*
X68445890Y58579500D01*
X68445892Y58579500D01*
X68573186Y58613608D01*
X68687314Y58679500D01*
X69797104Y59789293D01*
X69797109Y59789296D01*
X69807312Y59799500D01*
X69807314Y59799500D01*
X69900500Y59892686D01*
X69966392Y60006814D01*
X69996416Y60118867D01*
X70000500Y60134107D01*
X70000500Y60265892D01*
X70000500Y61325500D01*
X70020185Y61392539D01*
X70072989Y61438294D01*
X70124500Y61449500D01*
X70369750Y61449500D01*
X70369751Y61449501D01*
X70384568Y61452448D01*
X70428229Y61461132D01*
X70428229Y61461133D01*
X70428231Y61461133D01*
X70494552Y61505448D01*
X70538867Y61571769D01*
X70538867Y61571771D01*
X70538868Y61571771D01*
X70550499Y61630248D01*
X70550500Y61630250D01*
X70550500Y61875500D01*
X70570185Y61942539D01*
X70622989Y61988294D01*
X70674500Y61999500D01*
X71042051Y61999500D01*
X71109090Y61979815D01*
X71151408Y61933955D01*
X71162315Y61913549D01*
X71293589Y61753590D01*
X71390209Y61674298D01*
X71453550Y61622315D01*
X71636046Y61524768D01*
X71834066Y61464700D01*
X71834065Y61464700D01*
X71852529Y61462882D01*
X72040000Y61444417D01*
X72245934Y61464700D01*
X72443954Y61524768D01*
X72626450Y61622315D01*
X72786410Y61753590D01*
X72917685Y61913550D01*
X73015232Y62096046D01*
X73075300Y62294066D01*
X73095583Y62500000D01*
X73075300Y62705934D01*
X73015232Y62903954D01*
X72917685Y63086450D01*
X72865702Y63149791D01*
X72786410Y63246411D01*
X72636121Y63369748D01*
X72626450Y63377685D01*
X72443954Y63475232D01*
X72245934Y63535300D01*
X72245932Y63535301D01*
X72245934Y63535301D01*
X72040000Y63555583D01*
X71834067Y63535301D01*
X71636043Y63475231D01*
X71548114Y63428231D01*
X71453550Y63377685D01*
X71453548Y63377684D01*
X71453547Y63377683D01*
X71293589Y63246411D01*
X71162315Y63086452D01*
X71151408Y63066045D01*
X71102445Y63016202D01*
X71042051Y63000500D01*
X70674500Y63000500D01*
X70607461Y63020185D01*
X70561706Y63072989D01*
X70550500Y63124500D01*
X70550500Y63369751D01*
X70550499Y63369753D01*
X70538868Y63428230D01*
X70538867Y63428231D01*
X70494552Y63494553D01*
X70428230Y63538868D01*
X70428229Y63538869D01*
X70369752Y63550500D01*
X70369748Y63550500D01*
X68630252Y63550500D01*
X68630247Y63550500D01*
X68571770Y63538869D01*
X68571769Y63538868D01*
X68505447Y63494553D01*
X68461132Y63428231D01*
X68461131Y63428230D01*
X68449500Y63369753D01*
X68449500Y61630248D01*
X68461131Y61571771D01*
X68461132Y61571770D01*
X68505447Y61505448D01*
X68571769Y61461133D01*
X68571770Y61461132D01*
X68630247Y61449501D01*
X68630250Y61449500D01*
X68630252Y61449500D01*
X68875500Y61449500D01*
X68942539Y61429815D01*
X68988294Y61377011D01*
X68999500Y61325500D01*
X68999500Y60458676D01*
X68979815Y60391637D01*
X68963181Y60370995D01*
X68209005Y59616819D01*
X68147682Y59583334D01*
X68121324Y59580500D01*
X64174500Y59580500D01*
X64107461Y59600185D01*
X64061706Y59652989D01*
X64050500Y59704500D01*
X64050500Y59949751D01*
X64050499Y59949753D01*
X64038868Y60008230D01*
X64038867Y60008231D01*
X63994552Y60074553D01*
X63928230Y60118868D01*
X63928229Y60118869D01*
X63869752Y60130500D01*
X63869748Y60130500D01*
X63128676Y60130500D01*
X63061637Y60150185D01*
X63040995Y60166819D01*
X62036819Y61170995D01*
X62003334Y61232318D01*
X62000500Y61258676D01*
X62000500Y64340409D01*
X62020185Y64407448D01*
X62050866Y64440179D01*
X62063211Y64449289D01*
X62141616Y64555525D01*
X62185225Y64680151D01*
X62188000Y64709744D01*
X62188000Y65290256D01*
X62185225Y65319849D01*
X62141616Y65444475D01*
X62063211Y65550711D01*
X62063210Y65550712D01*
X61956976Y65629116D01*
X61832348Y65672726D01*
X61832349Y65672726D01*
X61802760Y65675500D01*
X61802756Y65675500D01*
X61197244Y65675500D01*
X61197240Y65675500D01*
X61167650Y65672726D01*
X61043023Y65629116D01*
X60936789Y65550712D01*
X60936788Y65550711D01*
X60858384Y65444477D01*
X60814774Y65319850D01*
X60812000Y65290261D01*
X60812000Y64709740D01*
X60814774Y64680151D01*
X60858384Y64555524D01*
X60936788Y64449290D01*
X60936789Y64449289D01*
X60949132Y64440180D01*
X60991384Y64384534D01*
X60999500Y64340409D01*
X60999500Y60934109D01*
X61033608Y60806813D01*
X61066554Y60749750D01*
X61099500Y60692686D01*
X61099502Y60692684D01*
X61913181Y59879005D01*
X61946666Y59817682D01*
X61949500Y59791324D01*
X61949500Y59704500D01*
X61929815Y59637461D01*
X61877011Y59591706D01*
X61825500Y59580500D01*
X59737645Y59580500D01*
X59670606Y59600185D01*
X59635921Y59637950D01*
X59634634Y59636999D01*
X59550711Y59750711D01*
X59550710Y59750712D01*
X59444476Y59829116D01*
X59319848Y59872726D01*
X59319849Y59872726D01*
X59290260Y59875500D01*
X59290256Y59875500D01*
X58709744Y59875500D01*
X58709740Y59875500D01*
X58680150Y59872726D01*
X58555523Y59829116D01*
X58449289Y59750712D01*
X58449288Y59750711D01*
X58370884Y59644477D01*
X58370883Y59644476D01*
X58349563Y59583545D01*
X58308841Y59526769D01*
X58243888Y59501022D01*
X58232522Y59500500D01*
X56696493Y59500500D01*
X56629454Y59520185D01*
X56596723Y59550867D01*
X56550711Y59613211D01*
X56550710Y59613212D01*
X56444476Y59691616D01*
X56319848Y59735226D01*
X56319849Y59735226D01*
X56290260Y59738000D01*
X56290256Y59738000D01*
X55709744Y59738000D01*
X55709740Y59738000D01*
X55680150Y59735226D01*
X55555523Y59691616D01*
X55449289Y59613212D01*
X55449288Y59613211D01*
X55370885Y59506978D01*
X55370884Y59506975D01*
X55364434Y59488545D01*
X55323714Y59431769D01*
X55258761Y59406022D01*
X55247394Y59405500D01*
X51580247Y59405500D01*
X51521770Y59393869D01*
X51521769Y59393868D01*
X51455447Y59349553D01*
X51411132Y59283231D01*
X51411131Y59283230D01*
X51399500Y59224753D01*
X51000000Y59224753D01*
X51000000Y65290261D01*
X57274500Y65290261D01*
X57274500Y64709740D01*
X57277274Y64680151D01*
X57320884Y64555524D01*
X57399288Y64449290D01*
X57399289Y64449289D01*
X57505523Y64370885D01*
X57505524Y64370885D01*
X57505525Y64370884D01*
X57630151Y64327275D01*
X57630150Y64327275D01*
X57659740Y64324500D01*
X57659744Y64324500D01*
X58340260Y64324500D01*
X58369849Y64327275D01*
X58407383Y64340409D01*
X58494475Y64370884D01*
X58600711Y64449289D01*
X58600713Y64449293D01*
X58607282Y64455860D01*
X58608220Y64454922D01*
X58656242Y64491384D01*
X58700366Y64499500D01*
X59012134Y64499500D01*
X59079173Y64479815D01*
X59104980Y64455623D01*
X59105218Y64455860D01*
X59111789Y64449289D01*
X59218023Y64370885D01*
X59218024Y64370885D01*
X59218025Y64370884D01*
X59342651Y64327275D01*
X59342650Y64327275D01*
X59372240Y64324500D01*
X59372244Y64324500D01*
X59977760Y64324500D01*
X60007349Y64327275D01*
X60044883Y64340409D01*
X60131975Y64370884D01*
X60238211Y64449289D01*
X60316616Y64555525D01*
X60360225Y64680151D01*
X60363000Y64709744D01*
X60363000Y65290256D01*
X60360225Y65319849D01*
X60316616Y65444475D01*
X60238211Y65550711D01*
X60238210Y65550712D01*
X60131976Y65629116D01*
X60007348Y65672726D01*
X60007349Y65672726D01*
X59977760Y65675500D01*
X59977756Y65675500D01*
X59372244Y65675500D01*
X59372240Y65675500D01*
X59342650Y65672726D01*
X59218023Y65629116D01*
X59111789Y65550712D01*
X59105218Y65544140D01*
X59104279Y65545079D01*
X59056258Y65508616D01*
X59012134Y65500500D01*
X58700366Y65500500D01*
X58633327Y65520185D01*
X58607519Y65544378D01*
X58607282Y65544140D01*
X58600710Y65550712D01*
X58494476Y65629116D01*
X58369848Y65672726D01*
X58369849Y65672726D01*
X58340260Y65675500D01*
X58340256Y65675500D01*
X57659744Y65675500D01*
X57659740Y65675500D01*
X57630150Y65672726D01*
X57505523Y65629116D01*
X57399289Y65550712D01*
X57399288Y65550711D01*
X57320884Y65444477D01*
X57277274Y65319850D01*
X57274500Y65290261D01*
X51000000Y65290261D01*
X51000000Y70000003D01*
X86594506Y70000003D01*
X86594506Y69999998D01*
X86614469Y69631804D01*
X86614470Y69631787D01*
X86674122Y69267932D01*
X86674128Y69267906D01*
X86772768Y68912635D01*
X86772770Y68912629D01*
X86909255Y68570074D01*
X86909261Y68570062D01*
X87081973Y68244292D01*
X87081976Y68244287D01*
X87081978Y68244284D01*
X87288910Y67939083D01*
X87527627Y67658044D01*
X87795330Y67404462D01*
X88088881Y67181310D01*
X88404838Y66991205D01*
X88404840Y66991204D01*
X88404842Y66991203D01*
X88404846Y66991201D01*
X88739486Y66836380D01*
X88739497Y66836375D01*
X89088934Y66718636D01*
X89449052Y66639368D01*
X89815630Y66599500D01*
X89815636Y66599500D01*
X90184364Y66599500D01*
X90184370Y66599500D01*
X90550948Y66639368D01*
X90911066Y66718636D01*
X91260503Y66836375D01*
X91595162Y66991205D01*
X91911119Y67181310D01*
X92204670Y67404462D01*
X92472373Y67658044D01*
X92711090Y67939083D01*
X92918022Y68244284D01*
X93090743Y68570070D01*
X93227227Y68912621D01*
X93325875Y69267919D01*
X93385531Y69631801D01*
X93405494Y70000000D01*
X93385531Y70368199D01*
X93325875Y70732081D01*
X93227227Y71087379D01*
X93090743Y71429930D01*
X92918022Y71755716D01*
X92711090Y72060917D01*
X92472373Y72341956D01*
X92204670Y72595538D01*
X91911119Y72818690D01*
X91595162Y73008795D01*
X91595161Y73008796D01*
X91595157Y73008798D01*
X91595153Y73008800D01*
X91260513Y73163621D01*
X91260508Y73163623D01*
X91260503Y73163625D01*
X91090172Y73221017D01*
X90911065Y73281365D01*
X90550946Y73360633D01*
X90184371Y73400500D01*
X90184370Y73400500D01*
X89815630Y73400500D01*
X89815628Y73400500D01*
X89449053Y73360633D01*
X89088934Y73281365D01*
X88818812Y73190350D01*
X88739497Y73163625D01*
X88739494Y73163624D01*
X88739486Y73163621D01*
X88404846Y73008800D01*
X88404842Y73008798D01*
X88169538Y72867221D01*
X88088881Y72818690D01*
X87988410Y72742315D01*
X87795330Y72595539D01*
X87795330Y72595538D01*
X87527626Y72341956D01*
X87288909Y72060917D01*
X87081979Y71755718D01*
X87081973Y71755709D01*
X86909261Y71429939D01*
X86909255Y71429927D01*
X86772770Y71087372D01*
X86772768Y71087366D01*
X86674128Y70732095D01*
X86674122Y70732069D01*
X86614470Y70368214D01*
X86614469Y70368197D01*
X86594506Y70000003D01*
X51000000Y70000003D01*
X51000000Y74375500D01*
X51019685Y74442539D01*
X51072489Y74488294D01*
X51124000Y74499500D01*
X94375500Y74499500D01*
X94442539Y74479815D01*
G37*
%TD.AperFunction*%
%TD*%
M02*
