M48
; DRILL file {KiCad 8.0.6} date 2024-11-03T20:55:55+0200
; FORMAT={-:-/ absolute / metric / decimal}
; #@! TF.CreationDate,2024-11-03T20:55:55+02:00
; #@! TF.GenerationSoftware,Kicad,Pcbnew,8.0.6
; #@! TF.FileFunction,Plated,1,2,PTH
FMAT,2
METRIC
; #@! TA.AperFunction,Plated,PTH,ViaDrill
T1C0.300
; #@! TA.AperFunction,Plated,PTH,ComponentDrill
T2C0.500
; #@! TA.AperFunction,Plated,PTH,ComponentDrill
T3C0.950
; #@! TA.AperFunction,Plated,PTH,ComponentDrill
T4C1.000
; #@! TA.AperFunction,Plated,PTH,ComponentDrill
T5C2.300
; #@! TA.AperFunction,Plated,PTH,ComponentDrill
T6C3.200
%
G90
G05
T1
X0.9Y74.1
X0.9Y73.1
X0.9Y72.1
X0.9Y71.0
X0.9Y70.0
X0.9Y69.0
X0.9Y68.0
X0.9Y67.0
X0.9Y66.0
X0.9Y65.1
X0.9Y64.1
X0.9Y63.1
X0.9Y62.2
X0.9Y61.2
X0.9Y60.2
X0.9Y59.1
X0.9Y58.1
X0.9Y57.1
X0.9Y56.1
X0.9Y55.1
X0.9Y54.1
X0.9Y53.2
X0.9Y52.2
X0.9Y51.2
X0.9Y50.1
X0.9Y49.1
X0.9Y48.1
X0.9Y47.0
X0.9Y46.0
X0.9Y45.0
X0.9Y44.0
X0.9Y43.0
X0.9Y42.0
X0.9Y41.1
X0.9Y40.1
X0.9Y39.1
X0.9Y38.1
X0.9Y37.1
X0.9Y36.1
X0.9Y35.0
X0.9Y34.0
X0.9Y33.0
X0.9Y32.0
X0.9Y31.0
X0.9Y30.0
X0.9Y29.1
X0.9Y28.1
X0.9Y27.1
X0.9Y26.2
X0.9Y25.2
X0.9Y24.2
X0.9Y23.1
X0.9Y22.1
X0.9Y21.1
X0.9Y20.1
X0.9Y19.1
X0.9Y18.1
X0.9Y17.2
X0.9Y16.2
X0.9Y15.2
X0.9Y14.1
X0.9Y13.1
X0.9Y12.1
X0.9Y11.0
X0.9Y10.0
X0.9Y9.0
X0.9Y8.0
X0.9Y7.0
X0.9Y6.0
X0.9Y5.1
X0.9Y4.1
X0.9Y3.1
X0.9Y1.8
X0.9Y0.8
X1.9Y0.8
X2.3Y74.1
X2.9Y0.8
X3.493Y74.108
X4.0Y0.8
X4.6Y74.1
X5.0Y0.8
X5.6Y74.1
X6.0Y0.8
X6.8Y74.1
X7.0Y0.8
X7.8Y74.1
X8.0Y0.8
X8.8Y74.1
X9.0Y0.8
X9.8Y74.1
X9.9Y0.8
X10.8Y74.1
X10.9Y0.8
X11.9Y74.1
X11.9Y0.8
X12.8Y0.8
X12.9Y74.1
X13.8Y21.5
X13.8Y0.8
X13.9Y74.1
X14.8Y0.8
X14.9Y74.1
X15.9Y74.1
X15.9Y0.8
X16.9Y74.1
X16.9Y0.8
X17.8Y74.1
X17.9Y0.8
X18.8Y74.1
X18.9Y0.8
X19.8Y74.1
X19.9Y0.8
X20.7Y74.1
X20.9Y0.8
X21.7Y74.1
X21.8Y0.8
X22.7Y74.1
X22.8Y0.8
X23.8Y74.1
X23.8Y0.8
X24.8Y74.1
X24.9Y0.8
X25.8Y74.1
X25.9Y0.8
X26.8Y74.1
X26.9Y0.8
X27.8Y74.1
X28.0Y0.8
X28.8Y74.1
X29.0Y0.8
X29.7Y74.1
X30.0Y0.8
X30.7Y74.1
X31.0Y0.8
X31.7Y74.1
X32.0Y0.8
X32.8Y74.1
X33.0Y0.8
X33.8Y74.1
X33.9Y0.8
X34.8Y74.1
X34.9Y0.8
X35.3Y57.1
X35.4Y55.9
X35.9Y74.1
X35.9Y0.8
X36.4Y34.3
X36.447Y33.27
X36.5Y55.8
X36.9Y74.1
X37.0Y0.8
X37.5Y33.0
X37.6Y55.9
X37.7Y57.1
X37.9Y74.1
X38.0Y0.8
X38.5Y33.1
X38.6Y55.9
X38.6Y34.3
X38.9Y74.1
X39.0Y0.8
X39.4Y34.3
X39.5Y55.9
X39.5Y33.2
X39.9Y74.1
X40.1Y0.8
X40.5Y56.0
X40.5Y33.0
X40.6Y57.1
X40.9Y74.1
X41.1Y0.8
X41.375Y60.175
X41.375Y57.575
X41.375Y56.375
X41.375Y55.075
X41.375Y53.8
X41.375Y52.5
X41.5Y33.2
X41.6Y34.3
X41.8Y74.1
X41.9Y51.4
X42.1Y0.8
X42.7Y51.4
X42.8Y74.1
X42.9Y37.3
X43.1Y0.8
X43.5Y51.4
X43.6Y5.1
X43.6Y4.3
X43.612Y7.6
X43.612Y6.1
X43.8Y74.1
X43.8Y3.6
X44.1Y0.8
X44.25Y32.25
X44.25Y31.25
X44.25Y30.25
X44.25Y29.25
X44.25Y28.25
X44.25Y27.25
X44.3Y51.7
X44.4Y51.0
X44.4Y50.2
X44.4Y49.4
X44.4Y48.6
X44.4Y47.8
X44.4Y47.0
X44.4Y46.2
X44.4Y45.4
X44.5Y74.0
X44.5Y73.0
X44.5Y72.0
X44.5Y70.9
X44.5Y69.9
X44.5Y68.9
X44.5Y67.9
X44.5Y66.9
X44.5Y65.9
X44.5Y65.0
X44.5Y64.0
X44.5Y63.0
X44.8Y44.7
X45.1Y0.8
X45.5Y37.1
X45.6Y44.7
X46.0Y0.8
X46.4Y44.7
X46.5Y32.25
X46.5Y31.25
X46.5Y30.25
X46.5Y29.25
X46.5Y28.25
X46.5Y27.25
X46.875Y9.5
X47.0Y0.8
X47.4Y44.7
X47.7Y37.1
X48.0Y0.8
X48.3Y8.5
X48.4Y44.7
X48.6Y10.4
X48.75Y32.25
X48.75Y31.25
X48.75Y30.25
X48.75Y29.25
X48.75Y28.25
X48.75Y27.25
X48.9Y0.8
X49.4Y44.7
X49.7Y14.5
X49.7Y13.5
X49.7Y12.5
X49.8Y10.6
X49.9Y0.8
X50.0Y9.7
X50.0Y8.5
X50.0Y7.4
X50.4Y44.7
X50.5Y34.75
X50.5Y33.75
X50.6Y14.5
X50.9Y0.8
X51.2Y13.5
X51.2Y12.5
X51.3Y74.0
X51.3Y72.7
X51.3Y71.5
X51.3Y70.15
X51.3Y68.9
X51.3Y67.9
X51.3Y66.6
X51.3Y65.4
X51.3Y64.05
X51.3Y62.8
X51.3Y44.7
X51.4Y50.4
X51.4Y6.2
X51.5Y33.75
X51.7Y51.6
X51.9Y62.4
X52.0Y0.8
X52.3Y44.7
X52.5Y51.6
X52.6Y74.1
X52.6Y8.4
X52.6Y6.4
X52.7Y62.4
X52.7Y50.4
X53.0Y0.8
X53.3Y51.6
X53.3Y44.7
X53.4Y62.4
X53.4Y40.0
X53.8Y74.1
X53.9Y50.4
X54.0Y0.8
X54.1Y62.3
X54.1Y51.6
X54.4Y61.4
X54.4Y60.2
X54.4Y56.4
X54.4Y55.1
X54.4Y53.9
X54.4Y52.55
X54.4Y44.7
X54.4Y11.5
X54.9Y60.8
X55.0Y0.8
X55.15Y74.1
X55.25Y50.4
X55.3Y65.0
X55.4Y44.7
X56.0Y61.9
X56.0Y57.9
X56.0Y0.8
X56.4Y74.1
X56.4Y44.7
X56.5Y50.4
X56.7Y36.0
X56.7Y33.6
X57.0Y60.8
X57.0Y0.8
X57.25Y29.75
X57.25Y28.75
X57.5Y44.7
X57.6Y57.5
X57.75Y74.1
X57.85Y50.4
X57.9Y0.8
X58.0Y60.8
X58.5Y44.7
X58.5Y31.25
X58.5Y27.0
X58.9Y0.8
X58.938Y41.25
X58.95Y74.1
X59.0Y62.0
X59.05Y50.4
X59.5Y44.7
X59.5Y31.25
X59.5Y27.0
X59.9Y0.8
X60.0Y57.4
X60.1Y60.9
X60.25Y74.1
X60.35Y50.4
X60.5Y44.7
X60.7Y58.2
X60.7Y30.1
X60.8Y28.1
X61.0Y0.8
X61.4Y74.1
X61.5Y50.4
X61.5Y44.7
X62.0Y0.8
X62.5Y44.7
X62.7Y74.1
X62.8Y50.4
X63.0Y0.8
X63.4Y44.7
X63.9Y74.1
X64.0Y50.4
X64.1Y0.8
X64.4Y44.7
X65.1Y0.8
X65.25Y74.1
X65.35Y50.4
X65.4Y44.7
X66.1Y0.8
X66.4Y44.7
X66.5Y74.1
X66.6Y50.4
X67.1Y0.8
X67.4Y44.7
X67.85Y74.1
X67.95Y50.4
X68.1Y0.8
X68.4Y44.7
X69.05Y74.1
X69.1Y0.8
X69.15Y50.4
X69.5Y44.7
X70.0Y0.8
X70.35Y74.1
X70.45Y50.4
X70.5Y44.7
X71.0Y0.8
X71.5Y74.1
X71.5Y44.7
X71.6Y50.4
X72.0Y0.8
X72.5Y44.7
X72.8Y74.1
X72.9Y50.4
X73.0Y0.8
X73.5Y44.7
X74.0Y74.1
X74.0Y0.8
X74.1Y50.4
X74.5Y44.7
X75.0Y0.8
X75.35Y74.1
X75.4Y44.7
X75.45Y50.4
X76.1Y0.8
X76.4Y44.7
X76.6Y74.1
X76.7Y50.4
X77.1Y0.8
X77.4Y44.7
X77.95Y74.1
X78.05Y50.4
X78.1Y0.8
X78.3Y44.7
X79.1Y0.8
X79.15Y74.1
X79.25Y50.4
X79.3Y44.7
X80.1Y0.8
X80.3Y44.7
X80.45Y74.1
X80.55Y50.4
X81.1Y0.8
X81.4Y44.7
X81.5Y74.1
X81.6Y50.4
X82.0Y0.8
X82.4Y44.7
X82.8Y74.1
X82.9Y50.4
X83.0Y0.8
X83.4Y44.7
X84.0Y74.1
X84.0Y0.8
X84.1Y50.4
X84.3Y44.7
X84.9Y0.8
X85.3Y44.7
X85.35Y74.1
X85.45Y50.4
X85.9Y0.8
X86.3Y44.7
X86.6Y74.1
X86.7Y50.4
X86.9Y0.8
X87.3Y44.7
X87.95Y74.1
X88.0Y0.8
X88.05Y50.4
X88.4Y44.7
X89.0Y0.8
X89.1Y44.7
X89.15Y74.1
X89.25Y50.4
X89.9Y44.7
X90.0Y0.8
X90.45Y74.1
X90.55Y50.4
X90.9Y44.7
X91.0Y0.8
X91.4Y74.1
X91.5Y50.4
X91.9Y44.7
X92.0Y0.8
X92.6Y74.1
X92.7Y50.4
X92.8Y44.7
X93.0Y0.8
X93.8Y44.7
X93.9Y74.1
X93.9Y0.8
X94.0Y72.5
X94.0Y71.55
X94.0Y70.25
X94.0Y69.05
X94.0Y67.7
X94.0Y66.45
X94.0Y65.1
X94.0Y63.9
X94.0Y62.7
X94.0Y61.4
X94.0Y60.2
X94.0Y59.25
X94.0Y57.95
X94.0Y56.75
X94.0Y55.4
X94.0Y54.15
X94.0Y52.8
X94.0Y51.6
X94.0Y50.4
X94.1Y44.1
X94.1Y43.2
X94.1Y42.2
X94.1Y41.3
X94.1Y40.3
X94.1Y39.4
X94.1Y38.4
X94.1Y37.4
X94.1Y36.5
X94.1Y35.5
X94.1Y34.5
X94.1Y33.6
X94.1Y32.6
X94.1Y31.6
X94.1Y30.6
X94.1Y29.6
X94.1Y28.6
X94.1Y27.5
X94.1Y26.5
X94.1Y25.5
X94.1Y24.4
X94.1Y23.4
X94.1Y22.4
X94.1Y21.5
X94.1Y20.5
X94.1Y19.5
X94.1Y18.5
X94.1Y17.5
X94.1Y16.5
X94.1Y15.4
X94.1Y14.4
X94.1Y13.4
X94.1Y12.5
X94.1Y11.5
X94.1Y10.5
X94.1Y9.6
X94.1Y8.6
X94.1Y7.6
X94.1Y6.6
X94.1Y5.6
X94.1Y4.6
X94.1Y3.5
X94.1Y2.5
X94.1Y1.5
T2
X2.6Y70.0
X2.6Y5.0
X3.303Y71.697
X3.303Y68.303
X3.303Y6.697
X3.303Y3.303
X5.0Y72.4
X5.0Y67.6
X5.0Y7.4
X5.0Y2.6
X6.697Y71.697
X6.697Y68.303
X6.697Y6.697
X6.697Y3.303
X7.4Y70.0
X7.4Y5.0
X87.6Y70.0
X87.6Y5.0
X88.303Y71.697
X88.303Y68.303
X88.303Y6.697
X88.303Y3.303
X90.0Y72.4
X90.0Y67.6
X90.0Y7.4
X90.0Y2.6
X91.697Y71.697
X91.697Y68.303
X91.697Y6.697
X91.697Y3.303
X92.4Y70.0
X92.4Y5.0
T3
X13.36Y40.75
X13.36Y38.25
X15.36Y40.75
X15.36Y38.25
T4
X5.46Y14.0
X8.0Y14.0
X11.96Y5.0
X14.5Y5.0
X28.96Y36.0
X29.0Y57.975
X31.5Y36.0
X31.54Y57.975
X40.01Y13.175
X42.55Y13.175
X62.5Y6.5
X62.525Y13.0
X62.96Y29.15
X63.0Y59.08
X63.0Y56.54
X63.0Y54.0
X63.25Y35.675
X65.04Y6.5
X65.065Y13.0
X65.5Y29.15
X65.79Y35.675
X69.5Y62.5
X69.5Y54.0
X72.04Y62.5
X72.04Y54.0
T5
X10.5Y45.5
X10.5Y33.5
T6
X5.0Y70.0
X5.0Y5.0
X90.0Y70.0
X90.0Y5.0
M30
