%TF.GenerationSoftware,KiCad,Pcbnew,8.0.6*%
%TF.CreationDate,2024-11-03T20:55:09+02:00*%
%TF.ProjectId,G11_EMB_PCB1,4731315f-454d-4425-9f50-4342312e6b69,rev?*%
%TF.SameCoordinates,PX5f7e1b2PY7735940*%
%TF.FileFunction,Paste,Top*%
%TF.FilePolarity,Positive*%
%FSLAX46Y46*%
G04 Gerber Fmt 4.6, Leading zero omitted, Abs format (unit mm)*
G04 Created by KiCad (PCBNEW 8.0.6) date 2024-11-03 20:55:09*
%MOMM*%
%LPD*%
G01*
G04 APERTURE LIST*
G04 Aperture macros list*
%AMRoundRect*
0 Rectangle with rounded corners*
0 $1 Rounding radius*
0 $2 $3 $4 $5 $6 $7 $8 $9 X,Y pos of 4 corners*
0 Add a 4 corners polygon primitive as box body*
4,1,4,$2,$3,$4,$5,$6,$7,$8,$9,$2,$3,0*
0 Add four circle primitives for the rounded corners*
1,1,$1+$1,$2,$3*
1,1,$1+$1,$4,$5*
1,1,$1+$1,$6,$7*
1,1,$1+$1,$8,$9*
0 Add four rect primitives between the rounded corners*
20,1,$1+$1,$2,$3,$4,$5,0*
20,1,$1+$1,$4,$5,$6,$7,0*
20,1,$1+$1,$6,$7,$8,$9,0*
20,1,$1+$1,$8,$9,$2,$3,0*%
G04 Aperture macros list end*
%ADD10RoundRect,0.237500X-0.287500X-0.237500X0.287500X-0.237500X0.287500X0.237500X-0.287500X0.237500X0*%
%ADD11RoundRect,0.237500X0.237500X-0.300000X0.237500X0.300000X-0.237500X0.300000X-0.237500X-0.300000X0*%
%ADD12RoundRect,0.237500X0.250000X0.237500X-0.250000X0.237500X-0.250000X-0.237500X0.250000X-0.237500X0*%
%ADD13RoundRect,0.162500X0.617500X0.162500X-0.617500X0.162500X-0.617500X-0.162500X0.617500X-0.162500X0*%
%ADD14RoundRect,0.237500X-0.250000X-0.237500X0.250000X-0.237500X0.250000X0.237500X-0.250000X0.237500X0*%
%ADD15RoundRect,0.250000X-0.350000X0.850000X-0.350000X-0.850000X0.350000X-0.850000X0.350000X0.850000X0*%
%ADD16RoundRect,0.250000X-1.125000X1.275000X-1.125000X-1.275000X1.125000X-1.275000X1.125000X1.275000X0*%
%ADD17RoundRect,0.250000X-0.787500X-1.025000X0.787500X-1.025000X0.787500X1.025000X-0.787500X1.025000X0*%
%ADD18RoundRect,0.237500X-0.237500X0.300000X-0.237500X-0.300000X0.237500X-0.300000X0.237500X0.300000X0*%
%ADD19R,0.980000X3.400000*%
%ADD20RoundRect,0.237500X-0.300000X-0.237500X0.300000X-0.237500X0.300000X0.237500X-0.300000X0.237500X0*%
%ADD21RoundRect,0.250000X1.500000X0.650000X-1.500000X0.650000X-1.500000X-0.650000X1.500000X-0.650000X0*%
%ADD22R,2.100000X0.600000*%
%ADD23RoundRect,0.237500X-0.237500X0.250000X-0.237500X-0.250000X0.237500X-0.250000X0.237500X0.250000X0*%
%ADD24RoundRect,0.237500X0.300000X0.237500X-0.300000X0.237500X-0.300000X-0.237500X0.300000X-0.237500X0*%
%ADD25RoundRect,0.250000X-1.500000X-0.650000X1.500000X-0.650000X1.500000X0.650000X-1.500000X0.650000X0*%
%ADD26RoundRect,0.237500X0.237500X-0.250000X0.237500X0.250000X-0.237500X0.250000X-0.237500X-0.250000X0*%
G04 APERTURE END LIST*
D10*
%TO.C,D3*%
X60687500Y41250000D03*
X62437500Y41250000D03*
%TD*%
%TO.C,D7*%
X56250000Y65000000D03*
X58000000Y65000000D03*
%TD*%
D11*
%TO.C,C11*%
X56000000Y59000000D03*
X56000000Y60725000D03*
%TD*%
D12*
%TO.C,R7*%
X46612500Y4600000D03*
X44787500Y4600000D03*
%TD*%
D13*
%TO.C,U2*%
X51400000Y7600000D03*
X51400000Y8550000D03*
X51400000Y9500000D03*
X48700000Y9500000D03*
X48700000Y7600000D03*
%TD*%
D12*
%TO.C,R4*%
X20500000Y21500000D03*
X18675000Y21500000D03*
%TD*%
D14*
%TO.C,R6*%
X44787500Y6100000D03*
X46612500Y6100000D03*
%TD*%
D15*
%TO.C,U1*%
X48777500Y36125000D03*
D16*
X48022500Y31500000D03*
X44972500Y31500000D03*
X48022500Y28150000D03*
X44972500Y28150000D03*
D15*
X44217500Y36125000D03*
%TD*%
D17*
%TO.C,C3*%
X52887500Y29150000D03*
X59112500Y29150000D03*
%TD*%
D11*
%TO.C,C12*%
X59000000Y59137500D03*
X59000000Y60862500D03*
%TD*%
D18*
%TO.C,C2*%
X40500000Y36000000D03*
X40500000Y34275000D03*
%TD*%
D12*
%TO.C,R8*%
X61500000Y65000000D03*
X59675000Y65000000D03*
%TD*%
D19*
%TO.C,L1*%
X54315000Y8100000D03*
X56685000Y8100000D03*
%TD*%
D20*
%TO.C,C4*%
X46837500Y11500000D03*
X48562500Y11500000D03*
%TD*%
D10*
%TO.C,D6*%
X51450000Y14500000D03*
X53200000Y14500000D03*
%TD*%
D20*
%TO.C,C5*%
X46837500Y13000000D03*
X48562500Y13000000D03*
%TD*%
D21*
%TO.C,D2*%
X20500000Y28000000D03*
X15360000Y28000000D03*
%TD*%
D12*
%TO.C,R5*%
X57112500Y14500000D03*
X55287500Y14500000D03*
%TD*%
%TO.C,R2*%
X66075000Y41250000D03*
X64250000Y41250000D03*
%TD*%
D18*
%TO.C,C1*%
X37500000Y36000000D03*
X37500000Y34275000D03*
%TD*%
%TO.C,C9*%
X36500000Y58862500D03*
X36500000Y57137500D03*
%TD*%
D22*
%TO.C,U3*%
X43350000Y61445000D03*
X43350000Y60175000D03*
X43350000Y58905000D03*
X43350000Y57635000D03*
X43350000Y56365000D03*
X43350000Y55095000D03*
X43350000Y53825000D03*
X43350000Y52555000D03*
X52650000Y52555000D03*
X52650000Y53825000D03*
X52650000Y55095000D03*
X52650000Y56365000D03*
X52650000Y57635000D03*
X52650000Y58905000D03*
X52650000Y60175000D03*
X52650000Y61445000D03*
%TD*%
D20*
%TO.C,C7*%
X44837500Y7600000D03*
X46562500Y7600000D03*
%TD*%
D23*
%TO.C,R3*%
X51500000Y36650000D03*
X51500000Y34825000D03*
%TD*%
D24*
%TO.C,C8*%
X53225000Y11500000D03*
X51500000Y11500000D03*
%TD*%
D25*
%TO.C,D1*%
X46000000Y41000000D03*
X51000000Y41000000D03*
%TD*%
D21*
%TO.C,D5*%
X20500000Y14000000D03*
X15500000Y14000000D03*
%TD*%
D18*
%TO.C,C10*%
X39500000Y58862500D03*
X39500000Y57137500D03*
%TD*%
D20*
%TO.C,C6*%
X46837500Y14500000D03*
X48562500Y14500000D03*
%TD*%
D10*
%TO.C,D4*%
X15025000Y21500000D03*
X16775000Y21500000D03*
%TD*%
D26*
%TO.C,R1*%
X53500000Y34825000D03*
X53500000Y36650000D03*
%TD*%
M02*
