%TF.GenerationSoftware,KiCad,Pcbnew,8.0.6*%
%TF.CreationDate,2024-11-03T20:55:08+02:00*%
%TF.ProjectId,G11_EMB_PCB1,4731315f-454d-4425-9f50-4342312e6b69,rev?*%
%TF.SameCoordinates,PX5f7e1b2PY7735940*%
%TF.FileFunction,Copper,L2,Bot*%
%TF.FilePolarity,Positive*%
%FSLAX46Y46*%
G04 Gerber Fmt 4.6, Leading zero omitted, Abs format (unit mm)*
G04 Created by KiCad (PCBNEW 8.0.6) date 2024-11-03 20:55:08*
%MOMM*%
%LPD*%
G01*
G04 APERTURE LIST*
%TA.AperFunction,ComponentPad*%
%ADD10C,0.800000*%
%TD*%
%TA.AperFunction,ComponentPad*%
%ADD11C,6.400000*%
%TD*%
%TA.AperFunction,ComponentPad*%
%ADD12R,1.700000X1.700000*%
%TD*%
%TA.AperFunction,ComponentPad*%
%ADD13O,1.700000X1.700000*%
%TD*%
%TA.AperFunction,ComponentPad*%
%ADD14R,1.600000X1.600000*%
%TD*%
%TA.AperFunction,ComponentPad*%
%ADD15C,1.600000*%
%TD*%
%TA.AperFunction,ComponentPad*%
%ADD16C,4.000000*%
%TD*%
%TA.AperFunction,ViaPad*%
%ADD17C,0.500000*%
%TD*%
%TA.AperFunction,ViaPad*%
%ADD18C,0.600000*%
%TD*%
%TA.AperFunction,Conductor*%
%ADD19C,0.600000*%
%TD*%
G04 APERTURE END LIST*
D10*
%TO.P,REF\u002A\u002A,1*%
%TO.N,N/C*%
X2600000Y5000000D03*
X3302944Y6697056D03*
X3302944Y3302944D03*
X5000000Y7400000D03*
D11*
X5000000Y5000000D03*
D10*
X5000000Y2600000D03*
X6697056Y6697056D03*
X6697056Y3302944D03*
X7400000Y5000000D03*
%TD*%
%TO.P,REF\u002A\u002A,1*%
%TO.N,N/C*%
X87600000Y70000000D03*
X88302944Y71697056D03*
X88302944Y68302944D03*
X90000000Y72400000D03*
D11*
X90000000Y70000000D03*
D10*
X90000000Y67600000D03*
X91697056Y71697056D03*
X91697056Y68302944D03*
X92400000Y70000000D03*
%TD*%
D12*
%TO.P,J10,1,Pin_1*%
%TO.N,Net-(J10-Pin_1)*%
X31540000Y57975000D03*
D13*
%TO.P,J10,2,Pin_2*%
%TO.N,VIN*%
X29000000Y57975000D03*
%TD*%
D12*
%TO.P,J2,1,Pin_1*%
%TO.N,VCC_LM*%
X63250000Y35675000D03*
D13*
%TO.P,J2,2,Pin_2*%
X65790000Y35675000D03*
%TD*%
D12*
%TO.P,J7,1,Pin_1*%
%TO.N,VCC_SY*%
X62525000Y13000000D03*
D13*
%TO.P,J7,2,Pin_2*%
X65065000Y13000000D03*
%TD*%
D12*
%TO.P,J6,1,Pin_1*%
%TO.N,Net-(D5-A)*%
X5460000Y14000000D03*
D13*
%TO.P,J6,2,Pin_2*%
X8000000Y14000000D03*
%TD*%
D12*
%TO.P,J1,1,Pin_1*%
%TO.N,Net-(D1-K)*%
X31500000Y36000000D03*
D13*
%TO.P,J1,2,Pin_2*%
%TO.N,VIN*%
X28960000Y36000000D03*
%TD*%
D10*
%TO.P,REF\u002A\u002A,1*%
%TO.N,N/C*%
X2600000Y70000000D03*
X3302944Y71697056D03*
X3302944Y68302944D03*
X5000000Y72400000D03*
D11*
X5000000Y70000000D03*
D10*
X5000000Y67600000D03*
X6697056Y71697056D03*
X6697056Y68302944D03*
X7400000Y70000000D03*
%TD*%
D12*
%TO.P,J13,1,Pin_1*%
%TO.N,GND_ISO*%
X69500000Y54000000D03*
D13*
%TO.P,J13,2,Pin_2*%
X72040000Y54000000D03*
%TD*%
D12*
%TO.P,J11,1,Pin_1*%
%TO.N,VCC_ISO*%
X69500000Y62500000D03*
D13*
%TO.P,J11,2,Pin_2*%
X72040000Y62500000D03*
%TD*%
D10*
%TO.P,REF\u002A\u002A,1*%
%TO.N,N/C*%
X87600000Y5000000D03*
X88302944Y6697056D03*
X88302944Y3302944D03*
X90000000Y7400000D03*
D11*
X90000000Y5000000D03*
D10*
X90000000Y2600000D03*
X91697056Y6697056D03*
X91697056Y3302944D03*
X92400000Y5000000D03*
%TD*%
D14*
%TO.P,J3,1,VBUS*%
%TO.N,Net-(D2-A)*%
X15360000Y38250000D03*
D15*
%TO.P,J3,2,D-*%
%TO.N,unconnected-(J3-D--Pad2)*%
X15360000Y40750000D03*
%TO.P,J3,3,D+*%
%TO.N,unconnected-(J3-D+-Pad3)*%
X13360000Y40750000D03*
%TO.P,J3,4,GND*%
%TO.N,GND*%
X13360000Y38250000D03*
D16*
%TO.P,J3,5,Shield*%
X10500000Y33500000D03*
X10500000Y45500000D03*
%TD*%
D12*
%TO.P,J8,1,Pin_1*%
%TO.N,GND*%
X11960000Y5000000D03*
D13*
%TO.P,J8,2,Pin_2*%
X14500000Y5000000D03*
%TD*%
D12*
%TO.P,J9,1,Pin_1*%
%TO.N,GND*%
X62500000Y6500000D03*
D13*
%TO.P,J9,2,Pin_2*%
X65040000Y6500000D03*
%TD*%
D12*
%TO.P,J4,1,Pin_1*%
%TO.N,GND*%
X62960000Y29150000D03*
D13*
%TO.P,J4,2,Pin_2*%
X65500000Y29150000D03*
%TD*%
D12*
%TO.P,J12,1,Pin_1*%
%TO.N,VCC_ISO*%
X63000000Y59080000D03*
D13*
%TO.P,J12,2,Pin_2*%
%TO.N,Net-(J12-Pin_2)*%
X63000000Y56540000D03*
%TO.P,J12,3,Pin_3*%
%TO.N,GND_ISO*%
X63000000Y54000000D03*
%TD*%
D12*
%TO.P,J5,1,Pin_1*%
%TO.N,Net-(J5-Pin_1)*%
X42550000Y13175000D03*
D13*
%TO.P,J5,2,Pin_2*%
%TO.N,VIN*%
X40010000Y13175000D03*
%TD*%
D17*
%TO.N,GND*%
X900000Y1800000D03*
X92000000Y800000D03*
X900000Y59100000D03*
X4600000Y74100000D03*
X20700000Y74100000D03*
X91000000Y800000D03*
X44500000Y63000000D03*
X32000000Y800000D03*
X44400000Y50200000D03*
X9800000Y74100000D03*
X52300000Y44700000D03*
D18*
X51200000Y13500000D03*
D17*
X900000Y73100000D03*
X67400000Y44700000D03*
X900000Y55100000D03*
X57500000Y44700000D03*
X900000Y25200000D03*
X94100000Y8600000D03*
X86300000Y44700000D03*
X900000Y42000000D03*
X48400000Y44700000D03*
X11900000Y74100000D03*
D18*
X37500000Y33000000D03*
D17*
X53000000Y800000D03*
D18*
X37700000Y57100000D03*
X39500000Y55900000D03*
D17*
X94100000Y36500000D03*
X94100000Y25500000D03*
D18*
X56700000Y33600000D03*
D17*
X84900000Y800000D03*
X41100000Y800000D03*
X36900000Y74100000D03*
X900000Y27100000D03*
D18*
X41375000Y60175000D03*
X43600000Y4300000D03*
X59500000Y31250000D03*
D17*
X94100000Y15400000D03*
X46400000Y44700000D03*
X77100000Y800000D03*
X44400000Y47000000D03*
D18*
X60800000Y28100000D03*
D17*
X50900000Y800000D03*
X900000Y61200000D03*
D18*
X50500000Y34750000D03*
D17*
X40100000Y800000D03*
X14800000Y800000D03*
X94100000Y29600000D03*
X44500000Y73000000D03*
X13900000Y74100000D03*
X1900000Y800000D03*
X71500000Y44700000D03*
X66100000Y800000D03*
X94100000Y32600000D03*
X22700000Y74100000D03*
X31700000Y74100000D03*
X94100000Y10500000D03*
D18*
X38500000Y33100000D03*
D17*
X900000Y34000000D03*
X900000Y35000000D03*
X58900000Y800000D03*
X92800000Y44700000D03*
X94100000Y24400000D03*
X9900000Y800000D03*
X43500000Y51400000D03*
X22800000Y800000D03*
X44400000Y49400000D03*
X47400000Y44700000D03*
X900000Y68000000D03*
X30000000Y800000D03*
X900000Y8000000D03*
X5000000Y800000D03*
X94100000Y35500000D03*
X89000000Y800000D03*
X83000000Y800000D03*
X8000000Y800000D03*
X43100000Y800000D03*
X94100000Y22400000D03*
X900000Y36100000D03*
X37900000Y74100000D03*
X88000000Y800000D03*
X21700000Y74100000D03*
X94100000Y17500000D03*
X48900000Y800000D03*
X900000Y66000000D03*
X44400000Y48600000D03*
X70000000Y800000D03*
X55400000Y44700000D03*
X71000000Y800000D03*
D18*
X49800000Y10600000D03*
X41375000Y52500000D03*
D17*
X30700000Y74100000D03*
X900000Y4100000D03*
X900000Y11000000D03*
X70500000Y44700000D03*
X69500000Y44700000D03*
X73500000Y44700000D03*
X18800000Y74100000D03*
X15900000Y800000D03*
X900000Y32000000D03*
X64100000Y800000D03*
X93800000Y44700000D03*
X900000Y48100000D03*
D18*
X13800000Y21500000D03*
D17*
X57900000Y800000D03*
X53400000Y40000000D03*
X94100000Y33600000D03*
X900000Y26200000D03*
X94100000Y9600000D03*
X90900000Y44700000D03*
X80300000Y44700000D03*
X84000000Y800000D03*
X77400000Y44700000D03*
X94100000Y16500000D03*
X42800000Y74100000D03*
X900000Y6000000D03*
X900000Y21100000D03*
D18*
X41375000Y57575000D03*
D17*
X84300000Y44700000D03*
X94100000Y1500000D03*
D18*
X49700000Y12500000D03*
D17*
X54400000Y44700000D03*
X44500000Y68900000D03*
X82400000Y44700000D03*
X27800000Y74100000D03*
X16900000Y74100000D03*
X900000Y49100000D03*
X91900000Y44700000D03*
X900000Y9000000D03*
X90000000Y800000D03*
X900000Y57100000D03*
X900000Y5100000D03*
X73000000Y800000D03*
X34800000Y74100000D03*
X40900000Y74100000D03*
X61000000Y800000D03*
X94100000Y19500000D03*
X94100000Y14400000D03*
X57000000Y800000D03*
D18*
X36500000Y55800000D03*
X38600000Y55900000D03*
D17*
X900000Y47000000D03*
D18*
X52600000Y6400000D03*
D17*
X94100000Y41300000D03*
X7800000Y74100000D03*
X34900000Y800000D03*
X44500000Y64000000D03*
X6000000Y800000D03*
D18*
X41600000Y34300000D03*
X40500000Y56000000D03*
D17*
X900000Y45000000D03*
X25900000Y800000D03*
X9000000Y800000D03*
X900000Y53200000D03*
X82000000Y800000D03*
X49900000Y800000D03*
X900000Y58100000D03*
X81100000Y800000D03*
D18*
X56700000Y36000000D03*
D17*
X44500000Y74000000D03*
X93000000Y800000D03*
X900000Y38100000D03*
D18*
X57250000Y28750000D03*
X37600000Y55900000D03*
D17*
X76100000Y800000D03*
X46000000Y800000D03*
X900000Y67000000D03*
X44100000Y800000D03*
X44300000Y51700000D03*
D18*
X51500000Y33750000D03*
D17*
X900000Y22100000D03*
X78300000Y44700000D03*
X37000000Y800000D03*
X63400000Y44700000D03*
X94100000Y4600000D03*
D18*
X51200000Y12500000D03*
X43800000Y3600000D03*
D17*
X900000Y7000000D03*
X75400000Y44700000D03*
X13800000Y800000D03*
X17900000Y800000D03*
X24900000Y800000D03*
X94100000Y38400000D03*
X68100000Y800000D03*
X900000Y65100000D03*
D18*
X49700000Y13500000D03*
D17*
X94100000Y26500000D03*
X900000Y17200000D03*
D18*
X50000000Y8500000D03*
D17*
X900000Y70000000D03*
X33000000Y800000D03*
X94100000Y21500000D03*
X24800000Y74100000D03*
X47700000Y37100000D03*
X79300000Y44700000D03*
X62000000Y800000D03*
X38000000Y800000D03*
X43800000Y74100000D03*
X900000Y74100000D03*
X61500000Y44700000D03*
X2300000Y74100000D03*
X15900000Y74100000D03*
X85900000Y800000D03*
X94100000Y30600000D03*
X19900000Y800000D03*
X12800000Y800000D03*
X20900000Y800000D03*
X900000Y69000000D03*
X65400000Y44700000D03*
X69100000Y800000D03*
X94100000Y7600000D03*
X89100000Y44700000D03*
X94100000Y34500000D03*
X67100000Y800000D03*
X56400000Y44700000D03*
X94100000Y23400000D03*
D18*
X41375000Y53800000D03*
X41500000Y33200000D03*
D17*
X94100000Y13400000D03*
X900000Y19100000D03*
X10800000Y74100000D03*
X44400000Y46200000D03*
X93900000Y800000D03*
D18*
X49700000Y14500000D03*
D17*
X900000Y56100000D03*
X900000Y10000000D03*
X900000Y62200000D03*
D18*
X48600000Y10400000D03*
D17*
X86900000Y800000D03*
X94100000Y3500000D03*
X88400000Y44700000D03*
X29700000Y74100000D03*
X900000Y37100000D03*
X900000Y41100000D03*
X900000Y72100000D03*
D18*
X40600000Y57100000D03*
D17*
X94100000Y12500000D03*
X12900000Y74100000D03*
X10900000Y800000D03*
D18*
X57250000Y29750000D03*
D17*
X26900000Y800000D03*
X94100000Y27500000D03*
X80100000Y800000D03*
X94100000Y44100000D03*
X900000Y71000000D03*
X44500000Y65900000D03*
D18*
X36400000Y34300000D03*
D17*
X50400000Y44700000D03*
X65100000Y800000D03*
X75000000Y800000D03*
X7000000Y800000D03*
X59900000Y800000D03*
X44800000Y44700000D03*
X28800000Y74100000D03*
D18*
X52600000Y8400000D03*
D17*
X16900000Y800000D03*
D18*
X50600000Y14500000D03*
D17*
X3493007Y74107902D03*
X900000Y64100000D03*
X62500000Y44700000D03*
D18*
X50500000Y33750000D03*
X41375000Y56375000D03*
D17*
X79100000Y800000D03*
D18*
X58500000Y31250000D03*
D17*
X94100000Y2500000D03*
X87300000Y44700000D03*
X31000000Y800000D03*
D18*
X60700000Y30100000D03*
D17*
X52000000Y800000D03*
X35900000Y800000D03*
X33900000Y800000D03*
X74000000Y800000D03*
X68400000Y44700000D03*
X44500000Y65000000D03*
X94100000Y5600000D03*
X900000Y20100000D03*
X900000Y44000000D03*
X900000Y43000000D03*
X900000Y23100000D03*
X38900000Y74100000D03*
X76400000Y44700000D03*
X94100000Y18500000D03*
X63000000Y800000D03*
X41900000Y51400000D03*
X4000000Y800000D03*
X8800000Y74100000D03*
X59500000Y44700000D03*
X53300000Y44700000D03*
X6800000Y74100000D03*
X21800000Y800000D03*
X72500000Y44700000D03*
X900000Y39100000D03*
X94100000Y20500000D03*
X60500000Y44700000D03*
X94100000Y39400000D03*
X78100000Y800000D03*
X14900000Y74100000D03*
X48000000Y800000D03*
X26800000Y74100000D03*
X900000Y28100000D03*
D18*
X41375000Y55075000D03*
D17*
X56000000Y800000D03*
X44400000Y51000000D03*
X32800000Y74100000D03*
X44400000Y45400000D03*
X900000Y50100000D03*
X900000Y54100000D03*
X66400000Y44700000D03*
X45600000Y44700000D03*
X900000Y52200000D03*
X94100000Y11500000D03*
X44500000Y66900000D03*
X29000000Y800000D03*
D18*
X59500000Y27000000D03*
D17*
X900000Y13100000D03*
D18*
X38600000Y34300000D03*
X58500000Y27000000D03*
X58937500Y41250000D03*
D17*
X94100000Y42200000D03*
X74500000Y44700000D03*
D18*
X35300000Y57100000D03*
D17*
X81400000Y44700000D03*
X900000Y16200000D03*
D18*
X50000000Y7400000D03*
D17*
X23800000Y800000D03*
X900000Y24200000D03*
X900000Y12100000D03*
X900000Y33000000D03*
X900000Y800000D03*
X2900000Y800000D03*
X900000Y40100000D03*
D18*
X35400000Y55900000D03*
D17*
X900000Y29100000D03*
X23800000Y74100000D03*
X44500000Y70900000D03*
X42100000Y800000D03*
X900000Y18100000D03*
D18*
X43600000Y5100000D03*
D17*
X51300000Y44700000D03*
X18900000Y800000D03*
X94100000Y43200000D03*
X45100000Y800000D03*
X44500000Y72000000D03*
X900000Y30000000D03*
X41800000Y74100000D03*
X49400000Y44700000D03*
X85300000Y44700000D03*
X900000Y14100000D03*
X44500000Y69900000D03*
X94100000Y28600000D03*
X5600000Y74100000D03*
D18*
X40500000Y33000000D03*
D17*
X900000Y46000000D03*
X89900000Y44700000D03*
X58500000Y44700000D03*
D18*
X39500000Y33200000D03*
D17*
X39900000Y74100000D03*
D18*
X48300000Y8500000D03*
D17*
X17800000Y74100000D03*
X44500000Y67900000D03*
X94100000Y6600000D03*
X44400000Y47800000D03*
X11900000Y800000D03*
D18*
X39400000Y34300000D03*
D17*
X39000000Y800000D03*
X19800000Y74100000D03*
X900000Y15200000D03*
X54000000Y800000D03*
X64400000Y44700000D03*
X94100000Y31600000D03*
D18*
X36447211Y33270079D03*
D17*
X72000000Y800000D03*
X47000000Y800000D03*
X900000Y31000000D03*
X900000Y63100000D03*
X25800000Y74100000D03*
X900000Y60200000D03*
X42700000Y51400000D03*
X55000000Y800000D03*
X83400000Y44700000D03*
X900000Y3100000D03*
X45500000Y37100000D03*
D18*
X50000000Y9700000D03*
D17*
X28000000Y800000D03*
X94100000Y40300000D03*
X900000Y51200000D03*
X42900000Y37300000D03*
X94100000Y37400000D03*
X33800000Y74100000D03*
X35900000Y74100000D03*
D18*
%TO.N,VCC_SY*%
X43612500Y7600000D03*
X54400000Y11500000D03*
X43612500Y6100000D03*
%TO.N,Net-(J5-Pin_1)*%
X51400000Y6200000D03*
X46875000Y9500000D03*
%TO.N,VCC_LM*%
X48750000Y29250000D03*
X48750000Y28250000D03*
X46500000Y32250000D03*
X48750000Y32250000D03*
X44250000Y32250000D03*
X44250000Y29250000D03*
X46500000Y28250000D03*
X44250000Y28250000D03*
X48750000Y31250000D03*
X46500000Y27250000D03*
X46500000Y31250000D03*
X44250000Y30250000D03*
X48750000Y27250000D03*
X46500000Y29250000D03*
X44250000Y31250000D03*
X48750000Y30250000D03*
X44250000Y27250000D03*
X46500000Y30250000D03*
D17*
%TO.N,GND_ISO*%
X94000000Y50400000D03*
X94000000Y51600000D03*
X57850000Y50400000D03*
X56000000Y57900000D03*
X51300000Y72700000D03*
X60350000Y50400000D03*
X61500000Y50400000D03*
X61400000Y74100000D03*
X79250000Y50400000D03*
X94000000Y60200000D03*
X51300000Y71500000D03*
X70450000Y50400000D03*
X57750000Y74100000D03*
X60100000Y60900000D03*
X94000000Y54150000D03*
X86600000Y74100000D03*
X91500000Y50400000D03*
X51300000Y67900000D03*
X54400000Y61400000D03*
X52500000Y51600000D03*
X84100000Y50400000D03*
X54400000Y53900000D03*
X77950000Y74100000D03*
X51900000Y62400000D03*
X55150000Y74100000D03*
X53900000Y50400000D03*
X60000000Y57400000D03*
X72800000Y74100000D03*
X69050000Y74100000D03*
X54100000Y62300000D03*
X94000000Y72500000D03*
X85350000Y74100000D03*
X76600000Y74100000D03*
X78050000Y50400000D03*
X56400000Y74100000D03*
X51300000Y66600000D03*
X89150000Y74100000D03*
X66500000Y74100000D03*
X94000000Y59250000D03*
X57000000Y60800000D03*
X64000000Y50400000D03*
X71600000Y50400000D03*
X60700000Y58200000D03*
X65250000Y74100000D03*
X59050000Y50400000D03*
X63900000Y74100000D03*
X51300000Y65400000D03*
X94000000Y52800000D03*
X56000000Y61900000D03*
X90450000Y74100000D03*
X94000000Y63900000D03*
X94000000Y65100000D03*
X54400000Y52550000D03*
X94000000Y66450000D03*
X69150000Y50400000D03*
X51400000Y50400000D03*
X51300000Y64050000D03*
X81600000Y50400000D03*
X94000000Y67700000D03*
X51300000Y62800000D03*
X67950000Y50400000D03*
X51700000Y51600000D03*
X52700000Y50400000D03*
X62700000Y74100000D03*
X65350000Y50400000D03*
X93900000Y74100000D03*
X57600000Y57500000D03*
X54900000Y60800000D03*
X75350000Y74100000D03*
X94000000Y61400000D03*
X70350000Y74100000D03*
X58950000Y74100000D03*
X52700000Y62400000D03*
X82800000Y74100000D03*
X71500000Y74100000D03*
X72900000Y50400000D03*
X87950000Y74100000D03*
X89250000Y50400000D03*
X94000000Y70250000D03*
X94000000Y69050000D03*
X92600000Y74100000D03*
X60250000Y74100000D03*
X54400000Y56400000D03*
X52600000Y74100000D03*
X94000000Y57950000D03*
X51300000Y74000000D03*
X92700000Y50400000D03*
X94000000Y55400000D03*
X53400000Y62400000D03*
X54100000Y51600000D03*
X94000000Y56750000D03*
X62800000Y50400000D03*
X58000000Y60800000D03*
X94000000Y62700000D03*
X86700000Y50400000D03*
X66600000Y50400000D03*
X85450000Y50400000D03*
X88050000Y50400000D03*
X67850000Y74100000D03*
X53800000Y74100000D03*
X90550000Y50400000D03*
X75450000Y50400000D03*
X80450000Y74100000D03*
X84000000Y74100000D03*
X51300000Y70150000D03*
X59000000Y62000000D03*
X91400000Y74100000D03*
X54400000Y55100000D03*
X54400000Y60200000D03*
X80550000Y50400000D03*
X55250000Y50400000D03*
X56500000Y50400000D03*
X94000000Y71550000D03*
X79150000Y74100000D03*
X82900000Y50400000D03*
X55300000Y65000000D03*
X76700000Y50400000D03*
X74000000Y74100000D03*
X81500000Y74100000D03*
X74100000Y50400000D03*
X53300000Y51600000D03*
X51300000Y68900000D03*
%TD*%
D19*
%TO.N,VCC_SY*%
X45312500Y11500000D02*
X43612500Y9800000D01*
X43612500Y9800000D02*
X43612500Y7600000D01*
X54400000Y11500000D02*
X45312500Y11500000D01*
X43612500Y7600000D02*
X43612500Y6100000D01*
%TO.N,Net-(J5-Pin_1)*%
X46875000Y8325000D02*
X49000000Y6200000D01*
X46875000Y9500000D02*
X46875000Y8325000D01*
X49000000Y6200000D02*
X51400000Y6200000D01*
%TD*%
%TA.AperFunction,Conductor*%
%TO.N,GND*%
G36*
X14034075Y5192993D02*
G01*
X14000000Y5065826D01*
X14000000Y4934174D01*
X14034075Y4807007D01*
X14066988Y4750000D01*
X12393012Y4750000D01*
X12425925Y4807007D01*
X12460000Y4934174D01*
X12460000Y5065826D01*
X12425925Y5192993D01*
X12393012Y5250000D01*
X14066988Y5250000D01*
X14034075Y5192993D01*
G37*
%TD.AperFunction*%
%TA.AperFunction,Conductor*%
G36*
X64574075Y6692993D02*
G01*
X64540000Y6565826D01*
X64540000Y6434174D01*
X64574075Y6307007D01*
X64606988Y6250000D01*
X62933012Y6250000D01*
X62965925Y6307007D01*
X63000000Y6434174D01*
X63000000Y6565826D01*
X62965925Y6692993D01*
X62933012Y6750000D01*
X64606988Y6750000D01*
X64574075Y6692993D01*
G37*
%TD.AperFunction*%
%TA.AperFunction,Conductor*%
G36*
X65034075Y29342993D02*
G01*
X65000000Y29215826D01*
X65000000Y29084174D01*
X65034075Y28957007D01*
X65066988Y28900000D01*
X63393012Y28900000D01*
X63425925Y28957007D01*
X63460000Y29084174D01*
X63460000Y29215826D01*
X63425925Y29342993D01*
X63393012Y29400000D01*
X65066988Y29400000D01*
X65034075Y29342993D01*
G37*
%TD.AperFunction*%
%TA.AperFunction,Conductor*%
G36*
X44754157Y74479815D02*
G01*
X44796474Y74433955D01*
X44818122Y74393456D01*
X44827424Y74370999D01*
X44877240Y74206776D01*
X44881982Y74182935D01*
X44899403Y74006062D01*
X44900000Y73993908D01*
X44900000Y45100000D01*
X93896128Y45100000D01*
X93908264Y45099406D01*
X94084900Y45082033D01*
X94108702Y45077305D01*
X94272718Y45027627D01*
X94295144Y45018351D01*
X94433878Y44944319D01*
X94483756Y44895391D01*
X94499500Y44834921D01*
X94499500Y624500D01*
X94479815Y557461D01*
X94427011Y511706D01*
X94375500Y500500D01*
X624500Y500500D01*
X557461Y520185D01*
X511706Y572989D01*
X500500Y624500D01*
X500500Y5000000D01*
X1594506Y5000000D01*
X1608060Y4750000D01*
X1614469Y4631804D01*
X1614470Y4631787D01*
X1674122Y4267932D01*
X1674128Y4267906D01*
X1772768Y3912635D01*
X1772770Y3912629D01*
X1772772Y3912623D01*
X1772773Y3912621D01*
X1774651Y3907907D01*
X1909255Y3570074D01*
X1909261Y3570062D01*
X2081973Y3244292D01*
X2081976Y3244287D01*
X2081978Y3244284D01*
X2288910Y2939083D01*
X2527627Y2658044D01*
X2795330Y2404462D01*
X3088881Y2181310D01*
X3404838Y1991205D01*
X3404840Y1991204D01*
X3404842Y1991203D01*
X3404846Y1991201D01*
X3739486Y1836380D01*
X3739497Y1836375D01*
X4088934Y1718636D01*
X4449052Y1639368D01*
X4815630Y1599500D01*
X4815636Y1599500D01*
X5184364Y1599500D01*
X5184370Y1599500D01*
X5550948Y1639368D01*
X5911066Y1718636D01*
X6260503Y1836375D01*
X6595162Y1991205D01*
X6911119Y2181310D01*
X7204670Y2404462D01*
X7472373Y2658044D01*
X7711090Y2939083D01*
X7918022Y3244284D01*
X8090743Y3570070D01*
X8227227Y3912621D01*
X8325875Y4267919D01*
X8363923Y4500000D01*
X8385529Y4631787D01*
X8385529Y4631790D01*
X8385531Y4631801D01*
X8405494Y5000000D01*
X8385531Y5368199D01*
X8380301Y5400099D01*
X8325877Y5732069D01*
X8325876Y5732070D01*
X8325875Y5732081D01*
X8287282Y5871080D01*
X8279851Y5897845D01*
X10610000Y5897845D01*
X10610000Y5250000D01*
X11526988Y5250000D01*
X11494075Y5192993D01*
X11460000Y5065826D01*
X11460000Y4934174D01*
X11494075Y4807007D01*
X11526988Y4750000D01*
X10610000Y4750000D01*
X10610000Y4102156D01*
X10616401Y4042628D01*
X10616403Y4042621D01*
X10666645Y3907914D01*
X10666649Y3907907D01*
X10752809Y3792813D01*
X10752812Y3792810D01*
X10867906Y3706650D01*
X10867913Y3706646D01*
X11002620Y3656404D01*
X11002627Y3656402D01*
X11062155Y3650001D01*
X11062172Y3650000D01*
X11710000Y3650000D01*
X11710000Y4566988D01*
X11767007Y4534075D01*
X11894174Y4500000D01*
X12025826Y4500000D01*
X12152993Y4534075D01*
X12210000Y4566988D01*
X12210000Y3650000D01*
X12857828Y3650000D01*
X12857844Y3650001D01*
X12917372Y3656402D01*
X12917379Y3656404D01*
X13052086Y3706646D01*
X13052093Y3706650D01*
X13167187Y3792810D01*
X13167190Y3792813D01*
X13253350Y3907907D01*
X13253354Y3907914D01*
X13302614Y4039987D01*
X13344485Y4095921D01*
X13409949Y4120338D01*
X13478222Y4105487D01*
X13506477Y4084335D01*
X13628917Y3961895D01*
X13822421Y3826400D01*
X14036507Y3726571D01*
X14036516Y3726567D01*
X14250000Y3669366D01*
X14250000Y4566988D01*
X14307007Y4534075D01*
X14434174Y4500000D01*
X14565826Y4500000D01*
X14692993Y4534075D01*
X14750000Y4566988D01*
X14750000Y3669367D01*
X14963483Y3726567D01*
X14963492Y3726571D01*
X15177578Y3826400D01*
X15371082Y3961895D01*
X15538105Y4128918D01*
X15673600Y4322422D01*
X15773429Y4536508D01*
X15773432Y4536514D01*
X15830636Y4750000D01*
X14933012Y4750000D01*
X14965925Y4807007D01*
X15000000Y4934174D01*
X15000000Y5000000D01*
X86594506Y5000000D01*
X86608060Y4750000D01*
X86614469Y4631804D01*
X86614470Y4631787D01*
X86674122Y4267932D01*
X86674128Y4267906D01*
X86772768Y3912635D01*
X86772770Y3912629D01*
X86772772Y3912623D01*
X86772773Y3912621D01*
X86774651Y3907907D01*
X86909255Y3570074D01*
X86909261Y3570062D01*
X87081973Y3244292D01*
X87081976Y3244287D01*
X87081978Y3244284D01*
X87288910Y2939083D01*
X87527627Y2658044D01*
X87795330Y2404462D01*
X88088881Y2181310D01*
X88404838Y1991205D01*
X88404840Y1991204D01*
X88404842Y1991203D01*
X88404846Y1991201D01*
X88739486Y1836380D01*
X88739497Y1836375D01*
X89088934Y1718636D01*
X89449052Y1639368D01*
X89815630Y1599500D01*
X89815636Y1599500D01*
X90184364Y1599500D01*
X90184370Y1599500D01*
X90550948Y1639368D01*
X90911066Y1718636D01*
X91260503Y1836375D01*
X91595162Y1991205D01*
X91911119Y2181310D01*
X92204670Y2404462D01*
X92472373Y2658044D01*
X92711090Y2939083D01*
X92918022Y3244284D01*
X93090743Y3570070D01*
X93227227Y3912621D01*
X93325875Y4267919D01*
X93363923Y4500000D01*
X93385529Y4631787D01*
X93385529Y4631790D01*
X93385531Y4631801D01*
X93405494Y5000000D01*
X93385531Y5368199D01*
X93380301Y5400099D01*
X93325877Y5732069D01*
X93325876Y5732070D01*
X93325875Y5732081D01*
X93287282Y5871080D01*
X93227231Y6087366D01*
X93227229Y6087372D01*
X93227228Y6087373D01*
X93227227Y6087379D01*
X93090743Y6429930D01*
X92985158Y6629085D01*
X92918026Y6755709D01*
X92918024Y6755712D01*
X92918022Y6755716D01*
X92711090Y7060917D01*
X92472373Y7341956D01*
X92204670Y7595538D01*
X92198800Y7600000D01*
X92101980Y7673601D01*
X91911119Y7818690D01*
X91595162Y8008795D01*
X91595161Y8008796D01*
X91595157Y8008798D01*
X91595153Y8008800D01*
X91260513Y8163621D01*
X91260508Y8163623D01*
X91260503Y8163625D01*
X91090172Y8221017D01*
X90911065Y8281365D01*
X90550946Y8360633D01*
X90184371Y8400500D01*
X90184370Y8400500D01*
X89815630Y8400500D01*
X89815628Y8400500D01*
X89449053Y8360633D01*
X89088934Y8281365D01*
X88818812Y8190350D01*
X88739497Y8163625D01*
X88739494Y8163624D01*
X88739486Y8163621D01*
X88404846Y8008800D01*
X88404842Y8008798D01*
X88169538Y7867221D01*
X88088881Y7818690D01*
X88029347Y7773433D01*
X87795330Y7595539D01*
X87795330Y7595538D01*
X87527626Y7341956D01*
X87288909Y7060917D01*
X87081979Y6755718D01*
X87081973Y6755709D01*
X86909261Y6429939D01*
X86909255Y6429927D01*
X86772770Y6087372D01*
X86772768Y6087366D01*
X86674128Y5732095D01*
X86674122Y5732069D01*
X86614470Y5368214D01*
X86614469Y5368201D01*
X86614469Y5368199D01*
X86594506Y5000000D01*
X15000000Y5000000D01*
X15000000Y5065826D01*
X14965925Y5192993D01*
X14933012Y5250000D01*
X15830636Y5250000D01*
X15830635Y5250001D01*
X15773432Y5463487D01*
X15773429Y5463493D01*
X15673600Y5677578D01*
X15673599Y5677580D01*
X15538113Y5871074D01*
X15538108Y5871080D01*
X15371082Y6038106D01*
X15177578Y6173601D01*
X14963492Y6273430D01*
X14963486Y6273433D01*
X14750000Y6330636D01*
X14750000Y5433012D01*
X14692993Y5465925D01*
X14565826Y5500000D01*
X14434174Y5500000D01*
X14307007Y5465925D01*
X14250000Y5433012D01*
X14250000Y6330636D01*
X14249999Y6330636D01*
X14036513Y6273433D01*
X14036507Y6273430D01*
X13822422Y6173601D01*
X13822420Y6173600D01*
X13628926Y6038114D01*
X13506477Y5915665D01*
X13445154Y5882181D01*
X13375462Y5887165D01*
X13319529Y5929037D01*
X13302614Y5960014D01*
X13253354Y6092087D01*
X13253350Y6092094D01*
X13167190Y6207188D01*
X13167187Y6207191D01*
X13052093Y6293351D01*
X13052086Y6293355D01*
X12917379Y6343597D01*
X12917372Y6343599D01*
X12857844Y6350000D01*
X12210000Y6350000D01*
X12210000Y5433012D01*
X12152993Y5465925D01*
X12025826Y5500000D01*
X11894174Y5500000D01*
X11767007Y5465925D01*
X11710000Y5433012D01*
X11710000Y6350000D01*
X11062155Y6350000D01*
X11002627Y6343599D01*
X11002620Y6343597D01*
X10867913Y6293355D01*
X10867906Y6293351D01*
X10752812Y6207191D01*
X10752809Y6207188D01*
X10666649Y6092094D01*
X10666645Y6092087D01*
X10616403Y5957380D01*
X10616401Y5957373D01*
X10610000Y5897845D01*
X8279851Y5897845D01*
X8227231Y6087366D01*
X8227229Y6087372D01*
X8227228Y6087373D01*
X8227227Y6087379D01*
X8090743Y6429930D01*
X7985158Y6629085D01*
X7918026Y6755709D01*
X7918024Y6755712D01*
X7918022Y6755716D01*
X7711090Y7060917D01*
X7472373Y7341956D01*
X7204670Y7595538D01*
X7198800Y7600000D01*
X43106853Y7600000D01*
X43107495Y7595538D01*
X43110738Y7572980D01*
X43112000Y7555333D01*
X43112000Y6144669D01*
X43110738Y6127023D01*
X43106853Y6100001D01*
X43110738Y6072980D01*
X43112000Y6055333D01*
X43112000Y6034106D01*
X43119423Y6006404D01*
X43122385Y5991963D01*
X43127335Y5957544D01*
X43127337Y5957536D01*
X43135569Y5939511D01*
X43142550Y5920093D01*
X43146107Y5906817D01*
X43146110Y5906810D01*
X43164181Y5875509D01*
X43169586Y5865026D01*
X43187123Y5826627D01*
X43194722Y5817857D01*
X43195194Y5817313D01*
X43208868Y5798110D01*
X43211997Y5792690D01*
X43212001Y5792685D01*
X43242822Y5761864D01*
X43248854Y5755385D01*
X43281370Y5717859D01*
X43281374Y5717855D01*
X43285428Y5715250D01*
X43300711Y5702934D01*
X43305184Y5699502D01*
X43305186Y5699500D01*
X43349387Y5673981D01*
X43354371Y5670944D01*
X43402447Y5640047D01*
X43402450Y5640046D01*
X43402452Y5640045D01*
X43403494Y5639569D01*
X43413121Y5636173D01*
X43419311Y5633610D01*
X43419314Y5633608D01*
X43468841Y5620338D01*
X43475761Y5618484D01*
X43478598Y5617688D01*
X43540539Y5599500D01*
X43684463Y5599500D01*
X43684463Y5599501D01*
X43722726Y5610737D01*
X43746402Y5617688D01*
X43749181Y5618469D01*
X43805686Y5633608D01*
X43805689Y5633611D01*
X43811867Y5636168D01*
X43821496Y5639566D01*
X43822545Y5640045D01*
X43822553Y5640047D01*
X43870587Y5670918D01*
X43875602Y5673975D01*
X43919814Y5699500D01*
X43919821Y5699508D01*
X43924328Y5702965D01*
X43939567Y5715248D01*
X43943628Y5717857D01*
X43976153Y5755395D01*
X43982173Y5761860D01*
X43994300Y5773987D01*
X44013000Y5792686D01*
X44016128Y5798106D01*
X44029806Y5817313D01*
X44037877Y5826627D01*
X44055412Y5865026D01*
X44060811Y5875498D01*
X44078892Y5906814D01*
X44082452Y5920102D01*
X44089434Y5939521D01*
X44097587Y5957373D01*
X44097665Y5957543D01*
X44102611Y5991947D01*
X44105574Y6006394D01*
X44109245Y6020096D01*
X44113000Y6034108D01*
X44113000Y6055333D01*
X44114262Y6072980D01*
X44118147Y6100001D01*
X44114262Y6127023D01*
X44113000Y6144669D01*
X44113000Y7555333D01*
X44114262Y7572980D01*
X44117505Y7595538D01*
X44118147Y7600000D01*
X44114262Y7627023D01*
X44113000Y7644669D01*
X44113000Y9500001D01*
X46369353Y9500001D01*
X46373238Y9472980D01*
X46374500Y9455333D01*
X46374500Y8259109D01*
X46408608Y8131813D01*
X46441554Y8074750D01*
X46474500Y8017686D01*
X48599500Y5892686D01*
X48692686Y5799500D01*
X48769109Y5755377D01*
X48801574Y5736633D01*
X48806814Y5733608D01*
X48934108Y5699500D01*
X48934110Y5699500D01*
X51471963Y5699500D01*
X51471963Y5699501D01*
X51510226Y5710737D01*
X51533902Y5717688D01*
X51536681Y5718469D01*
X51593186Y5733608D01*
X51593189Y5733611D01*
X51599367Y5736168D01*
X51608996Y5739566D01*
X51610045Y5740045D01*
X51610053Y5740047D01*
X51658087Y5770918D01*
X51663102Y5773975D01*
X51707314Y5799500D01*
X51707321Y5799508D01*
X51711828Y5802965D01*
X51727067Y5815248D01*
X51731128Y5817857D01*
X51763653Y5855395D01*
X51769673Y5861860D01*
X51783326Y5875513D01*
X51800500Y5892686D01*
X51803628Y5898106D01*
X51817304Y5917312D01*
X51825377Y5926627D01*
X51842912Y5965026D01*
X51848311Y5975498D01*
X51866392Y6006814D01*
X51869952Y6020102D01*
X51876934Y6039521D01*
X51885164Y6057541D01*
X51885163Y6057541D01*
X51885165Y6057543D01*
X51890111Y6091947D01*
X51893074Y6106394D01*
X51894263Y6110835D01*
X51900500Y6134108D01*
X51900500Y6155333D01*
X51901762Y6172980D01*
X51901851Y6173601D01*
X51905647Y6200000D01*
X51901762Y6227023D01*
X51900500Y6244669D01*
X51900500Y6265890D01*
X51900500Y6265892D01*
X51893073Y6293610D01*
X51890111Y6308054D01*
X51885165Y6342457D01*
X51876928Y6360491D01*
X51869949Y6379909D01*
X51866392Y6393186D01*
X51848316Y6424494D01*
X51842911Y6434980D01*
X51825380Y6473367D01*
X51825379Y6473369D01*
X51825377Y6473373D01*
X51825372Y6473379D01*
X51817306Y6482688D01*
X51803628Y6501896D01*
X51800499Y6507315D01*
X51769677Y6538137D01*
X51763659Y6544599D01*
X51731128Y6582143D01*
X51731125Y6582146D01*
X51727066Y6584754D01*
X51711793Y6597063D01*
X51707318Y6600496D01*
X51707314Y6600500D01*
X51695404Y6607377D01*
X51663121Y6626016D01*
X51658085Y6629085D01*
X51657879Y6629218D01*
X51610053Y6659953D01*
X51610051Y6659954D01*
X51610049Y6659955D01*
X51609004Y6660433D01*
X51599375Y6663829D01*
X51593192Y6666390D01*
X51593187Y6666392D01*
X51593186Y6666392D01*
X51536701Y6681527D01*
X51533862Y6682325D01*
X51471963Y6700500D01*
X51471961Y6700500D01*
X51465892Y6700500D01*
X49258676Y6700500D01*
X49191637Y6720185D01*
X49170995Y6736819D01*
X48509969Y7397845D01*
X61150000Y7397845D01*
X61150000Y6750000D01*
X62066988Y6750000D01*
X62034075Y6692993D01*
X62000000Y6565826D01*
X62000000Y6434174D01*
X62034075Y6307007D01*
X62066988Y6250000D01*
X61150000Y6250000D01*
X61150000Y5602156D01*
X61156401Y5542628D01*
X61156403Y5542621D01*
X61206645Y5407914D01*
X61206649Y5407907D01*
X61292809Y5292813D01*
X61292812Y5292810D01*
X61407906Y5206650D01*
X61407913Y5206646D01*
X61542620Y5156404D01*
X61542627Y5156402D01*
X61602155Y5150001D01*
X61602172Y5150000D01*
X62250000Y5150000D01*
X62250000Y6066988D01*
X62307007Y6034075D01*
X62434174Y6000000D01*
X62565826Y6000000D01*
X62692993Y6034075D01*
X62750000Y6066988D01*
X62750000Y5150000D01*
X63397828Y5150000D01*
X63397844Y5150001D01*
X63457372Y5156402D01*
X63457379Y5156404D01*
X63592086Y5206646D01*
X63592093Y5206650D01*
X63707187Y5292810D01*
X63707190Y5292813D01*
X63793350Y5407907D01*
X63793354Y5407914D01*
X63842614Y5539987D01*
X63884485Y5595921D01*
X63949949Y5620338D01*
X64018222Y5605487D01*
X64046477Y5584335D01*
X64168917Y5461895D01*
X64362421Y5326400D01*
X64576507Y5226571D01*
X64576516Y5226567D01*
X64790000Y5169366D01*
X64790000Y6066988D01*
X64847007Y6034075D01*
X64974174Y6000000D01*
X65105826Y6000000D01*
X65232993Y6034075D01*
X65290000Y6066988D01*
X65290000Y5169367D01*
X65503483Y5226567D01*
X65503492Y5226571D01*
X65717578Y5326400D01*
X65911082Y5461895D01*
X66078105Y5628918D01*
X66213600Y5822422D01*
X66313429Y6036508D01*
X66313432Y6036514D01*
X66370636Y6250000D01*
X65473012Y6250000D01*
X65505925Y6307007D01*
X65540000Y6434174D01*
X65540000Y6565826D01*
X65505925Y6692993D01*
X65473012Y6750000D01*
X66370636Y6750000D01*
X66370635Y6750001D01*
X66313432Y6963487D01*
X66313429Y6963493D01*
X66213600Y7177578D01*
X66213599Y7177580D01*
X66078113Y7371074D01*
X66078108Y7371080D01*
X65911082Y7538106D01*
X65717578Y7673601D01*
X65503492Y7773430D01*
X65503486Y7773433D01*
X65290000Y7830636D01*
X65290000Y6933012D01*
X65232993Y6965925D01*
X65105826Y7000000D01*
X64974174Y7000000D01*
X64847007Y6965925D01*
X64790000Y6933012D01*
X64790000Y7830636D01*
X64789999Y7830636D01*
X64576513Y7773433D01*
X64576507Y7773430D01*
X64362422Y7673601D01*
X64362420Y7673600D01*
X64168926Y7538114D01*
X64046477Y7415665D01*
X63985154Y7382181D01*
X63915462Y7387165D01*
X63859529Y7429037D01*
X63842614Y7460014D01*
X63793354Y7592087D01*
X63793350Y7592094D01*
X63707190Y7707188D01*
X63707187Y7707191D01*
X63592093Y7793351D01*
X63592086Y7793355D01*
X63457379Y7843597D01*
X63457372Y7843599D01*
X63397844Y7850000D01*
X62750000Y7850000D01*
X62750000Y6933012D01*
X62692993Y6965925D01*
X62565826Y7000000D01*
X62434174Y7000000D01*
X62307007Y6965925D01*
X62250000Y6933012D01*
X62250000Y7850000D01*
X61602155Y7850000D01*
X61542627Y7843599D01*
X61542620Y7843597D01*
X61407913Y7793355D01*
X61407906Y7793351D01*
X61292812Y7707191D01*
X61292809Y7707188D01*
X61206649Y7592094D01*
X61206645Y7592087D01*
X61156403Y7457380D01*
X61156401Y7457373D01*
X61150000Y7397845D01*
X48509969Y7397845D01*
X47411819Y8495995D01*
X47378334Y8557318D01*
X47375500Y8583676D01*
X47375500Y9455333D01*
X47376762Y9472980D01*
X47380647Y9500001D01*
X47376762Y9527023D01*
X47375500Y9544669D01*
X47375500Y9565890D01*
X47375500Y9565892D01*
X47368073Y9593610D01*
X47365111Y9608054D01*
X47360165Y9642455D01*
X47360165Y9642457D01*
X47351928Y9660491D01*
X47344949Y9679909D01*
X47341392Y9693186D01*
X47323316Y9724494D01*
X47317911Y9734980D01*
X47300380Y9773367D01*
X47300379Y9773369D01*
X47300377Y9773373D01*
X47300372Y9773379D01*
X47292306Y9782688D01*
X47278628Y9801896D01*
X47275499Y9807315D01*
X47244677Y9838137D01*
X47238659Y9844599D01*
X47206128Y9882143D01*
X47206125Y9882146D01*
X47202066Y9884754D01*
X47186793Y9897063D01*
X47182318Y9900496D01*
X47182314Y9900500D01*
X47170404Y9907377D01*
X47138121Y9926016D01*
X47133085Y9929085D01*
X47132879Y9929218D01*
X47085053Y9959953D01*
X47085051Y9959954D01*
X47085049Y9959955D01*
X47084004Y9960433D01*
X47074375Y9963829D01*
X47068192Y9966390D01*
X47068187Y9966392D01*
X47068186Y9966392D01*
X47011701Y9981527D01*
X47008862Y9982325D01*
X46946963Y10000500D01*
X46946961Y10000500D01*
X46803039Y10000500D01*
X46741145Y9982327D01*
X46738307Y9981531D01*
X46681817Y9966394D01*
X46675609Y9963823D01*
X46665985Y9960428D01*
X46664949Y9959955D01*
X46616915Y9929086D01*
X46611880Y9926017D01*
X46567689Y9900503D01*
X46563266Y9897108D01*
X46547945Y9884762D01*
X46543877Y9882148D01*
X46543868Y9882140D01*
X46511355Y9844617D01*
X46505324Y9838140D01*
X46474498Y9807314D01*
X46471364Y9801885D01*
X46457701Y9782697D01*
X46449623Y9773374D01*
X46449623Y9773373D01*
X46432088Y9734981D01*
X46426687Y9724505D01*
X46408607Y9693187D01*
X46408606Y9693184D01*
X46405046Y9679897D01*
X46398069Y9660489D01*
X46389835Y9642459D01*
X46384886Y9608044D01*
X46381925Y9593606D01*
X46374500Y9565895D01*
X46374500Y9544669D01*
X46373238Y9527023D01*
X46369353Y9500001D01*
X44113000Y9500001D01*
X44113000Y9541324D01*
X44132685Y9608363D01*
X44149319Y9629005D01*
X45483495Y10963181D01*
X45544818Y10996666D01*
X45571176Y10999500D01*
X54471963Y10999500D01*
X54471963Y10999501D01*
X54510226Y11010737D01*
X54533902Y11017688D01*
X54536681Y11018469D01*
X54593186Y11033608D01*
X54593189Y11033611D01*
X54599367Y11036168D01*
X54608996Y11039566D01*
X54610045Y11040045D01*
X54610053Y11040047D01*
X54658087Y11070918D01*
X54663102Y11073975D01*
X54707314Y11099500D01*
X54707321Y11099508D01*
X54711828Y11102965D01*
X54727067Y11115248D01*
X54731128Y11117857D01*
X54763653Y11155395D01*
X54769673Y11161860D01*
X54800500Y11192686D01*
X54803628Y11198106D01*
X54817304Y11217312D01*
X54825377Y11226627D01*
X54842912Y11265026D01*
X54848311Y11275498D01*
X54866392Y11306814D01*
X54869952Y11320102D01*
X54876934Y11339521D01*
X54885164Y11357541D01*
X54885163Y11357541D01*
X54885165Y11357543D01*
X54890111Y11391947D01*
X54893074Y11406394D01*
X54894263Y11410835D01*
X54900500Y11434108D01*
X54900500Y11455333D01*
X54901762Y11472980D01*
X54905647Y11500001D01*
X54901762Y11527023D01*
X54900500Y11544669D01*
X54900500Y11565890D01*
X54900500Y11565892D01*
X54893073Y11593610D01*
X54890111Y11608054D01*
X54885165Y11642455D01*
X54885165Y11642457D01*
X54876928Y11660491D01*
X54869949Y11679909D01*
X54866392Y11693186D01*
X54848316Y11724494D01*
X54842911Y11734980D01*
X54825380Y11773367D01*
X54825379Y11773369D01*
X54825377Y11773373D01*
X54825372Y11773379D01*
X54817306Y11782688D01*
X54803628Y11801896D01*
X54800499Y11807315D01*
X54769677Y11838137D01*
X54763659Y11844599D01*
X54731128Y11882143D01*
X54731125Y11882146D01*
X54727066Y11884754D01*
X54711793Y11897063D01*
X54707318Y11900496D01*
X54707314Y11900500D01*
X54695404Y11907377D01*
X54663121Y11926016D01*
X54658085Y11929085D01*
X54657879Y11929218D01*
X54610053Y11959953D01*
X54610051Y11959954D01*
X54610049Y11959955D01*
X54609004Y11960433D01*
X54599375Y11963829D01*
X54593192Y11966390D01*
X54593187Y11966392D01*
X54593186Y11966392D01*
X54536701Y11981527D01*
X54533862Y11982325D01*
X54471963Y12000500D01*
X54471961Y12000500D01*
X54465892Y12000500D01*
X45378392Y12000500D01*
X45246608Y12000500D01*
X45119312Y11966392D01*
X45005186Y11900500D01*
X45005183Y11900498D01*
X43212002Y10107317D01*
X43212000Y10107314D01*
X43146108Y9993188D01*
X43112000Y9865892D01*
X43112000Y7644669D01*
X43110738Y7627023D01*
X43106853Y7600000D01*
X7198800Y7600000D01*
X7101980Y7673601D01*
X6911119Y7818690D01*
X6595162Y8008795D01*
X6595161Y8008796D01*
X6595157Y8008798D01*
X6595153Y8008800D01*
X6260513Y8163621D01*
X6260508Y8163623D01*
X6260503Y8163625D01*
X6090172Y8221017D01*
X5911065Y8281365D01*
X5550946Y8360633D01*
X5184371Y8400500D01*
X5184370Y8400500D01*
X4815630Y8400500D01*
X4815628Y8400500D01*
X4449053Y8360633D01*
X4088934Y8281365D01*
X3818812Y8190350D01*
X3739497Y8163625D01*
X3739494Y8163624D01*
X3739486Y8163621D01*
X3404846Y8008800D01*
X3404842Y8008798D01*
X3169538Y7867221D01*
X3088881Y7818690D01*
X3029347Y7773433D01*
X2795330Y7595539D01*
X2795330Y7595538D01*
X2527626Y7341956D01*
X2288909Y7060917D01*
X2081979Y6755718D01*
X2081973Y6755709D01*
X1909261Y6429939D01*
X1909255Y6429927D01*
X1772770Y6087372D01*
X1772768Y6087366D01*
X1674128Y5732095D01*
X1674122Y5732069D01*
X1614470Y5368214D01*
X1614469Y5368201D01*
X1614469Y5368199D01*
X1594506Y5000000D01*
X500500Y5000000D01*
X500500Y14869753D01*
X4409500Y14869753D01*
X4409500Y13130248D01*
X4421131Y13071771D01*
X4421132Y13071770D01*
X4465447Y13005448D01*
X4531769Y12961133D01*
X4531770Y12961132D01*
X4590247Y12949501D01*
X4590250Y12949500D01*
X4590252Y12949500D01*
X6329750Y12949500D01*
X6329751Y12949501D01*
X6344568Y12952448D01*
X6388229Y12961132D01*
X6388229Y12961133D01*
X6388231Y12961133D01*
X6454552Y13005448D01*
X6498867Y13071769D01*
X6498867Y13071771D01*
X6498868Y13071771D01*
X6510499Y13130248D01*
X6510500Y13130250D01*
X6510500Y14000000D01*
X6944417Y14000000D01*
X6964699Y13794068D01*
X6964700Y13794066D01*
X7024768Y13596046D01*
X7122315Y13413550D01*
X7122317Y13413548D01*
X7253589Y13253590D01*
X7349353Y13175000D01*
X7413550Y13122315D01*
X7596046Y13024768D01*
X7794066Y12964700D01*
X7794065Y12964700D01*
X7812529Y12962882D01*
X8000000Y12944417D01*
X8205934Y12964700D01*
X8403954Y13024768D01*
X8586450Y13122315D01*
X8650647Y13175000D01*
X38954417Y13175000D01*
X38974699Y12969068D01*
X38980635Y12949501D01*
X39034768Y12771046D01*
X39132315Y12588550D01*
X39132317Y12588548D01*
X39263589Y12428590D01*
X39360209Y12349298D01*
X39423550Y12297315D01*
X39606046Y12199768D01*
X39804066Y12139700D01*
X39804065Y12139700D01*
X39822529Y12137882D01*
X40010000Y12119417D01*
X40215934Y12139700D01*
X40413954Y12199768D01*
X40596450Y12297315D01*
X40756410Y12428590D01*
X40887685Y12588550D01*
X40985232Y12771046D01*
X41045300Y12969066D01*
X41065583Y13175000D01*
X41045300Y13380934D01*
X40985232Y13578954D01*
X40887685Y13761450D01*
X40798808Y13869748D01*
X40756410Y13921411D01*
X40617634Y14035300D01*
X40606115Y14044753D01*
X41499500Y14044753D01*
X41499500Y12305248D01*
X41511131Y12246771D01*
X41511132Y12246770D01*
X41555447Y12180448D01*
X41621769Y12136133D01*
X41621770Y12136132D01*
X41680247Y12124501D01*
X41680250Y12124500D01*
X41680252Y12124500D01*
X43419750Y12124500D01*
X43419751Y12124501D01*
X43434568Y12127448D01*
X43478229Y12136132D01*
X43478229Y12136133D01*
X43478231Y12136133D01*
X43544552Y12180448D01*
X43588867Y12246769D01*
X43588867Y12246771D01*
X43588868Y12246771D01*
X43600499Y12305248D01*
X43600500Y12305250D01*
X43600500Y13869753D01*
X61474500Y13869753D01*
X61474500Y12130248D01*
X61486131Y12071771D01*
X61486132Y12071770D01*
X61530447Y12005448D01*
X61596769Y11961133D01*
X61596770Y11961132D01*
X61655247Y11949501D01*
X61655250Y11949500D01*
X61655252Y11949500D01*
X63394750Y11949500D01*
X63394751Y11949501D01*
X63409568Y11952448D01*
X63453229Y11961132D01*
X63453229Y11961133D01*
X63453231Y11961133D01*
X63519552Y12005448D01*
X63563867Y12071769D01*
X63563867Y12071771D01*
X63563868Y12071771D01*
X63575499Y12130248D01*
X63575500Y12130250D01*
X63575500Y13000000D01*
X64009417Y13000000D01*
X64029699Y12794068D01*
X64059734Y12695056D01*
X64089768Y12596046D01*
X64187315Y12413550D01*
X64187317Y12413548D01*
X64318589Y12253590D01*
X64407714Y12180448D01*
X64478550Y12122315D01*
X64661046Y12024768D01*
X64859066Y11964700D01*
X64859065Y11964700D01*
X64867909Y11963829D01*
X65065000Y11944417D01*
X65270934Y11964700D01*
X65468954Y12024768D01*
X65651450Y12122315D01*
X65811410Y12253590D01*
X65942685Y12413550D01*
X66040232Y12596046D01*
X66100300Y12794066D01*
X66120583Y13000000D01*
X66100300Y13205934D01*
X66040232Y13403954D01*
X65942685Y13586450D01*
X65890702Y13649791D01*
X65811410Y13746411D01*
X65661121Y13869748D01*
X65651450Y13877685D01*
X65468954Y13975232D01*
X65270934Y14035300D01*
X65270932Y14035301D01*
X65270934Y14035301D01*
X65065000Y14055583D01*
X64859067Y14035301D01*
X64661043Y13975231D01*
X64573114Y13928231D01*
X64478550Y13877685D01*
X64478548Y13877684D01*
X64478547Y13877683D01*
X64318589Y13746411D01*
X64187317Y13586453D01*
X64187315Y13586450D01*
X64148643Y13514102D01*
X64089769Y13403957D01*
X64029699Y13205933D01*
X64009417Y13000000D01*
X63575500Y13000000D01*
X63575500Y13869751D01*
X63575499Y13869753D01*
X63563868Y13928230D01*
X63563867Y13928231D01*
X63519552Y13994553D01*
X63453230Y14038868D01*
X63453229Y14038869D01*
X63394752Y14050500D01*
X63394748Y14050500D01*
X61655252Y14050500D01*
X61655247Y14050500D01*
X61596770Y14038869D01*
X61596769Y14038868D01*
X61530447Y13994553D01*
X61486132Y13928231D01*
X61486131Y13928230D01*
X61474500Y13869753D01*
X43600500Y13869753D01*
X43600500Y14044751D01*
X43600499Y14044753D01*
X43588868Y14103230D01*
X43588867Y14103231D01*
X43544552Y14169553D01*
X43478230Y14213868D01*
X43478229Y14213869D01*
X43419752Y14225500D01*
X43419748Y14225500D01*
X41680252Y14225500D01*
X41680247Y14225500D01*
X41621770Y14213869D01*
X41621769Y14213868D01*
X41555447Y14169553D01*
X41511132Y14103231D01*
X41511131Y14103230D01*
X41499500Y14044753D01*
X40606115Y14044753D01*
X40596450Y14052685D01*
X40413954Y14150232D01*
X40215934Y14210300D01*
X40215932Y14210301D01*
X40215934Y14210301D01*
X40010000Y14230583D01*
X39804067Y14210301D01*
X39606043Y14150231D01*
X39518114Y14103231D01*
X39423550Y14052685D01*
X39423548Y14052684D01*
X39423547Y14052683D01*
X39263589Y13921411D01*
X39132317Y13761453D01*
X39132315Y13761450D01*
X39124276Y13746410D01*
X39034769Y13578957D01*
X38974699Y13380933D01*
X38954417Y13175000D01*
X8650647Y13175000D01*
X8746410Y13253590D01*
X8877685Y13413550D01*
X8975232Y13596046D01*
X9035300Y13794066D01*
X9055583Y14000000D01*
X9035300Y14205934D01*
X8975232Y14403954D01*
X8877685Y14586450D01*
X8825702Y14649791D01*
X8746410Y14746411D01*
X8596121Y14869748D01*
X8586450Y14877685D01*
X8403954Y14975232D01*
X8205934Y15035300D01*
X8205932Y15035301D01*
X8205934Y15035301D01*
X8000000Y15055583D01*
X7794067Y15035301D01*
X7596043Y14975231D01*
X7508114Y14928231D01*
X7413550Y14877685D01*
X7413548Y14877684D01*
X7413547Y14877683D01*
X7253589Y14746411D01*
X7122317Y14586453D01*
X7024769Y14403957D01*
X6964699Y14205933D01*
X6944417Y14000000D01*
X6510500Y14000000D01*
X6510500Y14869751D01*
X6510499Y14869753D01*
X6498868Y14928230D01*
X6498867Y14928231D01*
X6454552Y14994553D01*
X6388230Y15038868D01*
X6388229Y15038869D01*
X6329752Y15050500D01*
X6329748Y15050500D01*
X4590252Y15050500D01*
X4590247Y15050500D01*
X4531770Y15038869D01*
X4531769Y15038868D01*
X4465447Y14994553D01*
X4421132Y14928231D01*
X4421131Y14928230D01*
X4409500Y14869753D01*
X500500Y14869753D01*
X500500Y33500006D01*
X7995057Y33500006D01*
X7995057Y33499995D01*
X8014807Y33186058D01*
X8014808Y33186051D01*
X8073755Y32877042D01*
X8170963Y32577868D01*
X8170965Y32577863D01*
X8304900Y32293239D01*
X8304903Y32293233D01*
X8473457Y32027633D01*
X8473460Y32027629D01*
X8564286Y31917840D01*
X9527913Y32881467D01*
X9622829Y32750825D01*
X9750825Y32622829D01*
X9881465Y32527914D01*
X8914971Y31561421D01*
X8914972Y31561419D01*
X9157772Y31385015D01*
X9157790Y31385004D01*
X9433447Y31233460D01*
X9433455Y31233456D01*
X9725926Y31117660D01*
X10030620Y31039427D01*
X10030629Y31039425D01*
X10342701Y31000001D01*
X10342715Y31000000D01*
X10657285Y31000000D01*
X10657298Y31000001D01*
X10969370Y31039425D01*
X10969379Y31039427D01*
X11274073Y31117660D01*
X11566544Y31233456D01*
X11566552Y31233460D01*
X11842209Y31385004D01*
X11842219Y31385010D01*
X12085026Y31561421D01*
X12085027Y31561421D01*
X11118533Y32527914D01*
X11249175Y32622829D01*
X11377171Y32750825D01*
X11472086Y32881466D01*
X12435712Y31917840D01*
X12526544Y32027636D01*
X12695096Y32293233D01*
X12695099Y32293239D01*
X12829034Y32577863D01*
X12829036Y32577868D01*
X12926244Y32877042D01*
X12983273Y33175997D01*
X43194500Y33175997D01*
X43194500Y26523993D01*
X43199197Y26480314D01*
X43210397Y26428826D01*
X43212890Y26418628D01*
X43212891Y26418625D01*
X43255899Y26337917D01*
X43255901Y26337914D01*
X43301660Y26285105D01*
X43319242Y26267161D01*
X43319246Y26267157D01*
X43319247Y26267156D01*
X43319249Y26267155D01*
X43399059Y26222512D01*
X43399063Y26222510D01*
X43466102Y26202825D01*
X43524000Y26194500D01*
X43524004Y26194500D01*
X49475991Y26194500D01*
X49476000Y26194500D01*
X49519684Y26199197D01*
X49548875Y26205548D01*
X49571174Y26210398D01*
X49571190Y26210402D01*
X49571195Y26210403D01*
X49581373Y26212890D01*
X49662085Y26255900D01*
X49714889Y26301655D01*
X49732843Y26319246D01*
X49777490Y26399063D01*
X49797175Y26466102D01*
X49805500Y26524000D01*
X49805500Y30047845D01*
X61610000Y30047845D01*
X61610000Y29400000D01*
X62526988Y29400000D01*
X62494075Y29342993D01*
X62460000Y29215826D01*
X62460000Y29084174D01*
X62494075Y28957007D01*
X62526988Y28900000D01*
X61610000Y28900000D01*
X61610000Y28252156D01*
X61616401Y28192628D01*
X61616403Y28192621D01*
X61666645Y28057914D01*
X61666649Y28057907D01*
X61752809Y27942813D01*
X61752812Y27942810D01*
X61867906Y27856650D01*
X61867913Y27856646D01*
X62002620Y27806404D01*
X62002627Y27806402D01*
X62062155Y27800001D01*
X62062172Y27800000D01*
X62710000Y27800000D01*
X62710000Y28716988D01*
X62767007Y28684075D01*
X62894174Y28650000D01*
X63025826Y28650000D01*
X63152993Y28684075D01*
X63210000Y28716988D01*
X63210000Y27800000D01*
X63857828Y27800000D01*
X63857844Y27800001D01*
X63917372Y27806402D01*
X63917379Y27806404D01*
X64052086Y27856646D01*
X64052093Y27856650D01*
X64167187Y27942810D01*
X64167190Y27942813D01*
X64253350Y28057907D01*
X64253354Y28057914D01*
X64302614Y28189987D01*
X64344485Y28245921D01*
X64409949Y28270338D01*
X64478222Y28255487D01*
X64506477Y28234335D01*
X64628917Y28111895D01*
X64822421Y27976400D01*
X65036507Y27876571D01*
X65036516Y27876567D01*
X65250000Y27819366D01*
X65250000Y28716988D01*
X65307007Y28684075D01*
X65434174Y28650000D01*
X65565826Y28650000D01*
X65692993Y28684075D01*
X65750000Y28716988D01*
X65750000Y27819367D01*
X65963483Y27876567D01*
X65963492Y27876571D01*
X66177578Y27976400D01*
X66371082Y28111895D01*
X66538105Y28278918D01*
X66673600Y28472422D01*
X66773429Y28686508D01*
X66773432Y28686514D01*
X66830636Y28900000D01*
X65933012Y28900000D01*
X65965925Y28957007D01*
X66000000Y29084174D01*
X66000000Y29215826D01*
X65965925Y29342993D01*
X65933012Y29400000D01*
X66830636Y29400000D01*
X66830635Y29400001D01*
X66773432Y29613487D01*
X66773429Y29613493D01*
X66673600Y29827578D01*
X66673599Y29827580D01*
X66538113Y30021074D01*
X66538108Y30021080D01*
X66371082Y30188106D01*
X66177578Y30323601D01*
X65963492Y30423430D01*
X65963486Y30423433D01*
X65750000Y30480636D01*
X65750000Y29583012D01*
X65692993Y29615925D01*
X65565826Y29650000D01*
X65434174Y29650000D01*
X65307007Y29615925D01*
X65250000Y29583012D01*
X65250000Y30480636D01*
X65249999Y30480636D01*
X65036513Y30423433D01*
X65036507Y30423430D01*
X64822422Y30323601D01*
X64822420Y30323600D01*
X64628926Y30188114D01*
X64506477Y30065665D01*
X64445154Y30032181D01*
X64375462Y30037165D01*
X64319529Y30079037D01*
X64302614Y30110014D01*
X64253354Y30242087D01*
X64253350Y30242094D01*
X64167190Y30357188D01*
X64167187Y30357191D01*
X64052093Y30443351D01*
X64052086Y30443355D01*
X63917379Y30493597D01*
X63917372Y30493599D01*
X63857844Y30500000D01*
X63210000Y30500000D01*
X63210000Y29583012D01*
X63152993Y29615925D01*
X63025826Y29650000D01*
X62894174Y29650000D01*
X62767007Y29615925D01*
X62710000Y29583012D01*
X62710000Y30500000D01*
X62062155Y30500000D01*
X62002627Y30493599D01*
X62002620Y30493597D01*
X61867913Y30443355D01*
X61867906Y30443351D01*
X61752812Y30357191D01*
X61752809Y30357188D01*
X61666649Y30242094D01*
X61666645Y30242087D01*
X61616403Y30107380D01*
X61616401Y30107373D01*
X61610000Y30047845D01*
X49805500Y30047845D01*
X49805500Y33176000D01*
X49800803Y33219684D01*
X49796897Y33237636D01*
X49789602Y33271175D01*
X49789348Y33272211D01*
X49787110Y33281373D01*
X49744100Y33362085D01*
X49698345Y33414889D01*
X49698339Y33414896D01*
X49680757Y33432840D01*
X49680756Y33432841D01*
X49680754Y33432843D01*
X49680752Y33432844D01*
X49680750Y33432846D01*
X49600940Y33477489D01*
X49600935Y33477491D01*
X49533903Y33497174D01*
X49533899Y33497175D01*
X49533898Y33497175D01*
X49476000Y33505500D01*
X43524000Y33505500D01*
X43523992Y33505500D01*
X43480313Y33500803D01*
X43428825Y33489603D01*
X43418627Y33487110D01*
X43418624Y33487109D01*
X43337916Y33444101D01*
X43337913Y33444099D01*
X43285104Y33398340D01*
X43267160Y33380758D01*
X43267154Y33380751D01*
X43222511Y33300941D01*
X43222509Y33300936D01*
X43202826Y33233904D01*
X43202825Y33233899D01*
X43202825Y33233898D01*
X43194502Y33176008D01*
X43194500Y33175997D01*
X12983273Y33175997D01*
X12985191Y33186051D01*
X12985192Y33186058D01*
X13004943Y33499995D01*
X13004943Y33500006D01*
X12985192Y33813943D01*
X12985191Y33813950D01*
X12926244Y34122959D01*
X12829036Y34422133D01*
X12829034Y34422138D01*
X12695099Y34706762D01*
X12695096Y34706768D01*
X12526542Y34972368D01*
X12526539Y34972372D01*
X12435712Y35082162D01*
X11472085Y34118535D01*
X11377171Y34249175D01*
X11249175Y34377171D01*
X11118533Y34472087D01*
X12085027Y35438581D01*
X12085026Y35438583D01*
X11842227Y35614986D01*
X11842209Y35614997D01*
X11566552Y35766541D01*
X11566544Y35766545D01*
X11274073Y35882341D01*
X10969379Y35960574D01*
X10969370Y35960576D01*
X10657298Y36000000D01*
X27904417Y36000000D01*
X27924699Y35794068D01*
X27954734Y35695056D01*
X27984768Y35596046D01*
X28082315Y35413550D01*
X28082317Y35413548D01*
X28213589Y35253590D01*
X28310209Y35174298D01*
X28373550Y35122315D01*
X28556046Y35024768D01*
X28754066Y34964700D01*
X28754065Y34964700D01*
X28772529Y34962882D01*
X28960000Y34944417D01*
X29165934Y34964700D01*
X29363954Y35024768D01*
X29546450Y35122315D01*
X29706410Y35253590D01*
X29837685Y35413550D01*
X29935232Y35596046D01*
X29995300Y35794066D01*
X30015583Y36000000D01*
X29995300Y36205934D01*
X29935232Y36403954D01*
X29837685Y36586450D01*
X29785341Y36650232D01*
X29706410Y36746411D01*
X29556121Y36869748D01*
X29556115Y36869753D01*
X30449500Y36869753D01*
X30449500Y35130248D01*
X30461131Y35071771D01*
X30461132Y35071770D01*
X30505447Y35005448D01*
X30571769Y34961133D01*
X30571770Y34961132D01*
X30630247Y34949501D01*
X30630250Y34949500D01*
X30630252Y34949500D01*
X32369750Y34949500D01*
X32369751Y34949501D01*
X32384568Y34952448D01*
X32428229Y34961132D01*
X32428229Y34961133D01*
X32428231Y34961133D01*
X32494552Y35005448D01*
X32538867Y35071769D01*
X32538867Y35071771D01*
X32538868Y35071771D01*
X32550499Y35130248D01*
X32550500Y35130250D01*
X32550500Y36544753D01*
X62199500Y36544753D01*
X62199500Y34805248D01*
X62211131Y34746771D01*
X62211132Y34746770D01*
X62255447Y34680448D01*
X62321769Y34636133D01*
X62321770Y34636132D01*
X62380247Y34624501D01*
X62380250Y34624500D01*
X62380252Y34624500D01*
X64119750Y34624500D01*
X64119751Y34624501D01*
X64134568Y34627448D01*
X64178229Y34636132D01*
X64178229Y34636133D01*
X64178231Y34636133D01*
X64244552Y34680448D01*
X64288867Y34746769D01*
X64288867Y34746771D01*
X64288868Y34746771D01*
X64300499Y34805248D01*
X64300500Y34805250D01*
X64300500Y35675000D01*
X64734417Y35675000D01*
X64754699Y35469068D01*
X64754700Y35469066D01*
X64814768Y35271046D01*
X64912315Y35088550D01*
X64926085Y35071771D01*
X65043589Y34928590D01*
X65140209Y34849298D01*
X65203550Y34797315D01*
X65386046Y34699768D01*
X65584066Y34639700D01*
X65584065Y34639700D01*
X65602529Y34637882D01*
X65790000Y34619417D01*
X65995934Y34639700D01*
X66193954Y34699768D01*
X66376450Y34797315D01*
X66536410Y34928590D01*
X66667685Y35088550D01*
X66765232Y35271046D01*
X66825300Y35469066D01*
X66845583Y35675000D01*
X66825300Y35880934D01*
X66765232Y36078954D01*
X66667685Y36261450D01*
X66550736Y36403954D01*
X66536410Y36421411D01*
X66386121Y36544748D01*
X66376450Y36552685D01*
X66193954Y36650232D01*
X65995934Y36710300D01*
X65995932Y36710301D01*
X65995934Y36710301D01*
X65790000Y36730583D01*
X65584067Y36710301D01*
X65386043Y36650231D01*
X65298114Y36603231D01*
X65203550Y36552685D01*
X65203548Y36552684D01*
X65203547Y36552683D01*
X65043589Y36421411D01*
X64912317Y36261453D01*
X64814769Y36078957D01*
X64754699Y35880933D01*
X64734417Y35675000D01*
X64300500Y35675000D01*
X64300500Y36544751D01*
X64300499Y36544753D01*
X64288868Y36603230D01*
X64288867Y36603231D01*
X64244552Y36669553D01*
X64178230Y36713868D01*
X64178229Y36713869D01*
X64119752Y36725500D01*
X64119748Y36725500D01*
X62380252Y36725500D01*
X62380247Y36725500D01*
X62321770Y36713869D01*
X62321769Y36713868D01*
X62255447Y36669553D01*
X62211132Y36603231D01*
X62211131Y36603230D01*
X62199500Y36544753D01*
X32550500Y36544753D01*
X32550500Y36869751D01*
X32550499Y36869753D01*
X32538868Y36928230D01*
X32538867Y36928231D01*
X32494552Y36994553D01*
X32428230Y37038868D01*
X32428229Y37038869D01*
X32369752Y37050500D01*
X32369748Y37050500D01*
X30630252Y37050500D01*
X30630247Y37050500D01*
X30571770Y37038869D01*
X30571769Y37038868D01*
X30505447Y36994553D01*
X30461132Y36928231D01*
X30461131Y36928230D01*
X30449500Y36869753D01*
X29556115Y36869753D01*
X29546450Y36877685D01*
X29363954Y36975232D01*
X29165934Y37035300D01*
X29165932Y37035301D01*
X29165934Y37035301D01*
X28960000Y37055583D01*
X28754067Y37035301D01*
X28556043Y36975231D01*
X28468114Y36928231D01*
X28373550Y36877685D01*
X28373548Y36877684D01*
X28373547Y36877683D01*
X28213589Y36746411D01*
X28082317Y36586453D01*
X27984769Y36403957D01*
X27924699Y36205933D01*
X27904417Y36000000D01*
X10657298Y36000000D01*
X10342701Y36000000D01*
X10030629Y35960576D01*
X10030620Y35960574D01*
X9725926Y35882341D01*
X9433455Y35766545D01*
X9433447Y35766541D01*
X9157787Y35614996D01*
X9157782Y35614993D01*
X8914972Y35438582D01*
X8914971Y35438581D01*
X9881466Y34472087D01*
X9750825Y34377171D01*
X9622829Y34249175D01*
X9527913Y34118535D01*
X8564286Y35082162D01*
X8564285Y35082162D01*
X8473459Y34972371D01*
X8473457Y34972368D01*
X8304903Y34706768D01*
X8304900Y34706762D01*
X8170965Y34422138D01*
X8170963Y34422133D01*
X8073755Y34122959D01*
X8014808Y33813950D01*
X8014807Y33813943D01*
X7995057Y33500006D01*
X500500Y33500006D01*
X500500Y38250003D01*
X12055034Y38250003D01*
X12055034Y38249998D01*
X12074858Y38023401D01*
X12074860Y38023390D01*
X12133730Y37803683D01*
X12133735Y37803669D01*
X12229863Y37597522D01*
X12280974Y37524528D01*
X12897449Y38141003D01*
X12917370Y38066657D01*
X12979905Y37958343D01*
X13068343Y37869905D01*
X13176657Y37807370D01*
X13251002Y37787450D01*
X12634526Y37170975D01*
X12707513Y37119868D01*
X12707521Y37119864D01*
X12913668Y37023736D01*
X12913682Y37023731D01*
X13133389Y36964861D01*
X13133400Y36964859D01*
X13359998Y36945034D01*
X13360002Y36945034D01*
X13586599Y36964859D01*
X13586610Y36964861D01*
X13806317Y37023731D01*
X13806331Y37023736D01*
X14012478Y37119864D01*
X14085471Y37170976D01*
X13468997Y37787450D01*
X13543343Y37807370D01*
X13651657Y37869905D01*
X13740095Y37958343D01*
X13802630Y38066657D01*
X13822550Y38141003D01*
X14323181Y37640372D01*
X14356666Y37579049D01*
X14359500Y37552691D01*
X14359500Y37430248D01*
X14371131Y37371771D01*
X14371132Y37371770D01*
X14415447Y37305448D01*
X14481769Y37261133D01*
X14481770Y37261132D01*
X14540247Y37249501D01*
X14540250Y37249500D01*
X14540252Y37249500D01*
X16179750Y37249500D01*
X16179751Y37249501D01*
X16194568Y37252448D01*
X16238229Y37261132D01*
X16238229Y37261133D01*
X16238231Y37261133D01*
X16304552Y37305448D01*
X16348867Y37371769D01*
X16348867Y37371771D01*
X16348868Y37371771D01*
X16360499Y37430248D01*
X16360500Y37430250D01*
X16360500Y39069751D01*
X16360499Y39069753D01*
X16348868Y39128230D01*
X16348867Y39128231D01*
X16304552Y39194553D01*
X16238230Y39238868D01*
X16238229Y39238869D01*
X16179752Y39250500D01*
X16179748Y39250500D01*
X14540252Y39250500D01*
X14540247Y39250500D01*
X14481770Y39238869D01*
X14481769Y39238868D01*
X14415447Y39194553D01*
X14371132Y39128231D01*
X14371131Y39128230D01*
X14359500Y39069753D01*
X14359500Y38947309D01*
X14339815Y38880270D01*
X14323181Y38859628D01*
X13822550Y38358998D01*
X13802630Y38433343D01*
X13740095Y38541657D01*
X13651657Y38630095D01*
X13543343Y38692630D01*
X13468998Y38712551D01*
X14085472Y39329026D01*
X14012478Y39380137D01*
X13806331Y39476265D01*
X13806320Y39476269D01*
X13589300Y39534419D01*
X13529640Y39570784D01*
X13499111Y39633631D01*
X13507406Y39703007D01*
X13551891Y39756885D01*
X13585393Y39772853D01*
X13744727Y39821186D01*
X13918538Y39914090D01*
X14070883Y40039117D01*
X14195910Y40191462D01*
X14208657Y40215310D01*
X14250642Y40293857D01*
X14299604Y40343701D01*
X14367742Y40359162D01*
X14433421Y40335330D01*
X14469358Y40293857D01*
X14524086Y40191468D01*
X14524090Y40191461D01*
X14649116Y40039117D01*
X14801460Y39914091D01*
X14801467Y39914087D01*
X14975266Y39821189D01*
X14975269Y39821189D01*
X14975273Y39821186D01*
X15163868Y39763976D01*
X15360000Y39744659D01*
X15556132Y39763976D01*
X15744727Y39821186D01*
X15918538Y39914090D01*
X16070883Y40039117D01*
X16195910Y40191462D01*
X16288814Y40365273D01*
X16346024Y40553868D01*
X16365341Y40750000D01*
X16346024Y40946132D01*
X16288814Y41134727D01*
X16288811Y41134731D01*
X16288811Y41134734D01*
X16195913Y41308533D01*
X16195909Y41308540D01*
X16070883Y41460884D01*
X15918539Y41585910D01*
X15918532Y41585914D01*
X15744733Y41678812D01*
X15744727Y41678814D01*
X15556132Y41736024D01*
X15556129Y41736025D01*
X15360000Y41755341D01*
X15163870Y41736025D01*
X14975266Y41678812D01*
X14801467Y41585914D01*
X14801460Y41585910D01*
X14649116Y41460884D01*
X14524090Y41308540D01*
X14524085Y41308533D01*
X14469358Y41206144D01*
X14420396Y41156299D01*
X14352258Y41140839D01*
X14286578Y41164671D01*
X14250642Y41206144D01*
X14195914Y41308533D01*
X14195909Y41308540D01*
X14070883Y41460884D01*
X13918539Y41585910D01*
X13918532Y41585914D01*
X13744733Y41678812D01*
X13744727Y41678814D01*
X13556132Y41736024D01*
X13556129Y41736025D01*
X13360000Y41755341D01*
X13163870Y41736025D01*
X12975266Y41678812D01*
X12801467Y41585914D01*
X12801460Y41585910D01*
X12649116Y41460884D01*
X12524090Y41308540D01*
X12524086Y41308533D01*
X12431188Y41134734D01*
X12373975Y40946130D01*
X12354659Y40750000D01*
X12373975Y40553871D01*
X12431188Y40365267D01*
X12524086Y40191468D01*
X12524090Y40191461D01*
X12649116Y40039117D01*
X12801460Y39914091D01*
X12801467Y39914087D01*
X12975268Y39821188D01*
X12975270Y39821188D01*
X12975273Y39821186D01*
X13134601Y39772854D01*
X13193039Y39734557D01*
X13221495Y39670745D01*
X13210935Y39601678D01*
X13164711Y39549284D01*
X13130699Y39534419D01*
X12913680Y39476269D01*
X12913673Y39476266D01*
X12707516Y39380134D01*
X12707512Y39380132D01*
X12634526Y39329027D01*
X12634526Y39329026D01*
X13251002Y38712551D01*
X13176657Y38692630D01*
X13068343Y38630095D01*
X12979905Y38541657D01*
X12917370Y38433343D01*
X12897449Y38358999D01*
X12280974Y38975474D01*
X12280973Y38975474D01*
X12229868Y38902488D01*
X12229866Y38902484D01*
X12133734Y38696327D01*
X12133730Y38696318D01*
X12074860Y38476611D01*
X12074858Y38476600D01*
X12055034Y38250003D01*
X500500Y38250003D01*
X500500Y45500006D01*
X7995057Y45500006D01*
X7995057Y45499995D01*
X8014807Y45186058D01*
X8014808Y45186051D01*
X8073755Y44877042D01*
X8170963Y44577868D01*
X8170965Y44577863D01*
X8304900Y44293239D01*
X8304903Y44293233D01*
X8473457Y44027633D01*
X8473460Y44027629D01*
X8564286Y43917840D01*
X9527913Y44881467D01*
X9622829Y44750825D01*
X9750825Y44622829D01*
X9881465Y44527914D01*
X8914971Y43561421D01*
X8914972Y43561419D01*
X9157772Y43385015D01*
X9157790Y43385004D01*
X9433447Y43233460D01*
X9433455Y43233456D01*
X9725926Y43117660D01*
X10030620Y43039427D01*
X10030629Y43039425D01*
X10342701Y43000001D01*
X10342715Y43000000D01*
X10657285Y43000000D01*
X10657298Y43000001D01*
X10969370Y43039425D01*
X10969379Y43039427D01*
X11274073Y43117660D01*
X11566544Y43233456D01*
X11566552Y43233460D01*
X11842209Y43385004D01*
X11842219Y43385010D01*
X12085026Y43561421D01*
X12085027Y43561421D01*
X11118533Y44527914D01*
X11249175Y44622829D01*
X11377171Y44750825D01*
X11472086Y44881466D01*
X12435712Y43917840D01*
X12526544Y44027636D01*
X12695096Y44293233D01*
X12695099Y44293239D01*
X12829034Y44577863D01*
X12829036Y44577868D01*
X12926244Y44877042D01*
X12985191Y45186051D01*
X12985192Y45186058D01*
X13004943Y45499995D01*
X13004943Y45500006D01*
X12985192Y45813943D01*
X12985191Y45813950D01*
X12926244Y46122959D01*
X12829036Y46422133D01*
X12829034Y46422138D01*
X12695099Y46706762D01*
X12695096Y46706768D01*
X12526542Y46972368D01*
X12526539Y46972372D01*
X12435712Y47082162D01*
X11472085Y46118535D01*
X11377171Y46249175D01*
X11249175Y46377171D01*
X11118533Y46472087D01*
X12085027Y47438581D01*
X12085026Y47438583D01*
X11842227Y47614986D01*
X11842209Y47614997D01*
X11566552Y47766541D01*
X11566544Y47766545D01*
X11274073Y47882341D01*
X10969379Y47960574D01*
X10969370Y47960576D01*
X10657298Y48000000D01*
X10342701Y48000000D01*
X10030629Y47960576D01*
X10030620Y47960574D01*
X9725926Y47882341D01*
X9433455Y47766545D01*
X9433447Y47766541D01*
X9157787Y47614996D01*
X9157782Y47614993D01*
X8914972Y47438582D01*
X8914971Y47438581D01*
X9881466Y46472087D01*
X9750825Y46377171D01*
X9622829Y46249175D01*
X9527913Y46118535D01*
X8564286Y47082162D01*
X8564285Y47082162D01*
X8473459Y46972371D01*
X8473457Y46972368D01*
X8304903Y46706768D01*
X8304900Y46706762D01*
X8170965Y46422138D01*
X8170963Y46422133D01*
X8073755Y46122959D01*
X8014808Y45813950D01*
X8014807Y45813943D01*
X7995057Y45500006D01*
X500500Y45500006D01*
X500500Y57975000D01*
X27944417Y57975000D01*
X27964699Y57769068D01*
X27964700Y57769066D01*
X28024768Y57571046D01*
X28122315Y57388550D01*
X28122317Y57388548D01*
X28253589Y57228590D01*
X28350209Y57149298D01*
X28413550Y57097315D01*
X28596046Y56999768D01*
X28794066Y56939700D01*
X28794065Y56939700D01*
X28812529Y56937882D01*
X29000000Y56919417D01*
X29205934Y56939700D01*
X29403954Y56999768D01*
X29586450Y57097315D01*
X29746410Y57228590D01*
X29877685Y57388550D01*
X29975232Y57571046D01*
X30035300Y57769066D01*
X30055583Y57975000D01*
X30035300Y58180934D01*
X29975232Y58378954D01*
X29877685Y58561450D01*
X29825702Y58624791D01*
X29746410Y58721411D01*
X29596121Y58844748D01*
X29596115Y58844753D01*
X30489500Y58844753D01*
X30489500Y57105248D01*
X30501131Y57046771D01*
X30501132Y57046770D01*
X30545447Y56980448D01*
X30611769Y56936133D01*
X30611770Y56936132D01*
X30670247Y56924501D01*
X30670250Y56924500D01*
X30670252Y56924500D01*
X32409750Y56924500D01*
X32409751Y56924501D01*
X32424568Y56927448D01*
X32468229Y56936132D01*
X32468229Y56936133D01*
X32468231Y56936133D01*
X32534552Y56980448D01*
X32578867Y57046769D01*
X32578867Y57046771D01*
X32578868Y57046771D01*
X32590499Y57105248D01*
X32590500Y57105250D01*
X32590500Y58844751D01*
X32590499Y58844753D01*
X32578868Y58903230D01*
X32578867Y58903231D01*
X32534552Y58969553D01*
X32468230Y59013868D01*
X32468229Y59013869D01*
X32409752Y59025500D01*
X32409748Y59025500D01*
X30670252Y59025500D01*
X30670247Y59025500D01*
X30611770Y59013869D01*
X30611769Y59013868D01*
X30545447Y58969553D01*
X30501132Y58903231D01*
X30501131Y58903230D01*
X30489500Y58844753D01*
X29596115Y58844753D01*
X29586450Y58852685D01*
X29403954Y58950232D01*
X29205934Y59010300D01*
X29205932Y59010301D01*
X29205934Y59010301D01*
X29000000Y59030583D01*
X28794067Y59010301D01*
X28596043Y58950231D01*
X28508114Y58903231D01*
X28413550Y58852685D01*
X28413548Y58852684D01*
X28413547Y58852683D01*
X28253589Y58721411D01*
X28122317Y58561453D01*
X28024769Y58378957D01*
X27964699Y58180933D01*
X27944417Y57975000D01*
X500500Y57975000D01*
X500500Y70000003D01*
X1594506Y70000003D01*
X1594506Y69999998D01*
X1614469Y69631804D01*
X1614470Y69631787D01*
X1674122Y69267932D01*
X1674128Y69267906D01*
X1772768Y68912635D01*
X1772770Y68912629D01*
X1909255Y68570074D01*
X1909261Y68570062D01*
X2081973Y68244292D01*
X2081976Y68244287D01*
X2081978Y68244284D01*
X2288910Y67939083D01*
X2527627Y67658044D01*
X2795330Y67404462D01*
X3088881Y67181310D01*
X3404838Y66991205D01*
X3404840Y66991204D01*
X3404842Y66991203D01*
X3404846Y66991201D01*
X3739486Y66836380D01*
X3739497Y66836375D01*
X4088934Y66718636D01*
X4449052Y66639368D01*
X4815630Y66599500D01*
X4815636Y66599500D01*
X5184364Y66599500D01*
X5184370Y66599500D01*
X5550948Y66639368D01*
X5911066Y66718636D01*
X6260503Y66836375D01*
X6595162Y66991205D01*
X6911119Y67181310D01*
X7204670Y67404462D01*
X7472373Y67658044D01*
X7711090Y67939083D01*
X7918022Y68244284D01*
X8090743Y68570070D01*
X8227227Y68912621D01*
X8325875Y69267919D01*
X8385531Y69631801D01*
X8405494Y70000000D01*
X8385531Y70368199D01*
X8325875Y70732081D01*
X8227227Y71087379D01*
X8090743Y71429930D01*
X7918022Y71755716D01*
X7711090Y72060917D01*
X7472373Y72341956D01*
X7204670Y72595538D01*
X6911119Y72818690D01*
X6595162Y73008795D01*
X6595161Y73008796D01*
X6595157Y73008798D01*
X6595153Y73008800D01*
X6260513Y73163621D01*
X6260508Y73163623D01*
X6260503Y73163625D01*
X6090172Y73221017D01*
X5911065Y73281365D01*
X5550946Y73360633D01*
X5184371Y73400500D01*
X5184370Y73400500D01*
X4815630Y73400500D01*
X4815628Y73400500D01*
X4449053Y73360633D01*
X4088934Y73281365D01*
X3818812Y73190350D01*
X3739497Y73163625D01*
X3739494Y73163624D01*
X3739486Y73163621D01*
X3404846Y73008800D01*
X3404842Y73008798D01*
X3169538Y72867221D01*
X3088881Y72818690D01*
X2988410Y72742315D01*
X2795330Y72595539D01*
X2795330Y72595538D01*
X2527626Y72341956D01*
X2288909Y72060917D01*
X2081979Y71755718D01*
X2081973Y71755709D01*
X1909261Y71429939D01*
X1909255Y71429927D01*
X1772770Y71087372D01*
X1772768Y71087366D01*
X1674128Y70732095D01*
X1674122Y70732069D01*
X1614470Y70368214D01*
X1614469Y70368197D01*
X1594506Y70000003D01*
X500500Y70000003D01*
X500500Y74375500D01*
X520185Y74442539D01*
X572989Y74488294D01*
X624500Y74499500D01*
X44687118Y74499500D01*
X44754157Y74479815D01*
G37*
%TD.AperFunction*%
%TD*%
%TA.AperFunction,Conductor*%
%TO.N,GND_ISO*%
G36*
X71574075Y54192993D02*
G01*
X71540000Y54065826D01*
X71540000Y53934174D01*
X71574075Y53807007D01*
X71606988Y53750000D01*
X69933012Y53750000D01*
X69965925Y53807007D01*
X70000000Y53934174D01*
X70000000Y54065826D01*
X69965925Y54192993D01*
X69933012Y54250000D01*
X71606988Y54250000D01*
X71574075Y54192993D01*
G37*
%TD.AperFunction*%
%TA.AperFunction,Conductor*%
G36*
X94442539Y74479815D02*
G01*
X94488294Y74427011D01*
X94499500Y74375500D01*
X94499500Y50222582D01*
X94479815Y50155543D01*
X94427011Y50109788D01*
X94375782Y50098583D01*
X60101136Y50020685D01*
X59787042Y50019972D01*
X51509275Y50001158D01*
X51493064Y50002185D01*
X51387717Y50015831D01*
X51356389Y50024162D01*
X51265772Y50061516D01*
X51237673Y50077682D01*
X51159832Y50137248D01*
X51136884Y50160144D01*
X51077141Y50237850D01*
X51060913Y50265906D01*
X51023347Y50356452D01*
X51014949Y50387751D01*
X51001064Y50493069D01*
X51000000Y50509276D01*
X51000000Y54250001D01*
X61669364Y54250001D01*
X61669364Y54250000D01*
X62566988Y54250000D01*
X62534075Y54192993D01*
X62500000Y54065826D01*
X62500000Y53934174D01*
X62534075Y53807007D01*
X62566988Y53750000D01*
X61669364Y53750000D01*
X61726567Y53536514D01*
X61726570Y53536508D01*
X61826399Y53322422D01*
X61961894Y53128918D01*
X62128917Y52961895D01*
X62322421Y52826400D01*
X62536507Y52726571D01*
X62536516Y52726567D01*
X62750000Y52669366D01*
X62750000Y53566988D01*
X62807007Y53534075D01*
X62934174Y53500000D01*
X63065826Y53500000D01*
X63192993Y53534075D01*
X63250000Y53566988D01*
X63250000Y52669367D01*
X63463483Y52726567D01*
X63463492Y52726571D01*
X63677578Y52826400D01*
X63871082Y52961895D01*
X64038105Y53128918D01*
X64173600Y53322422D01*
X64273429Y53536508D01*
X64273432Y53536514D01*
X64330636Y53750000D01*
X63433012Y53750000D01*
X63465925Y53807007D01*
X63500000Y53934174D01*
X63500000Y54065826D01*
X63465925Y54192993D01*
X63433012Y54250000D01*
X64330636Y54250000D01*
X64330635Y54250001D01*
X64273432Y54463487D01*
X64273429Y54463493D01*
X64173600Y54677578D01*
X64173599Y54677580D01*
X64038113Y54871074D01*
X64038108Y54871080D01*
X64011343Y54897845D01*
X68150000Y54897845D01*
X68150000Y54250000D01*
X69066988Y54250000D01*
X69034075Y54192993D01*
X69000000Y54065826D01*
X69000000Y53934174D01*
X69034075Y53807007D01*
X69066988Y53750000D01*
X68150000Y53750000D01*
X68150000Y53102156D01*
X68156401Y53042628D01*
X68156403Y53042621D01*
X68206645Y52907914D01*
X68206649Y52907907D01*
X68292809Y52792813D01*
X68292812Y52792810D01*
X68407906Y52706650D01*
X68407913Y52706646D01*
X68542620Y52656404D01*
X68542627Y52656402D01*
X68602155Y52650001D01*
X68602172Y52650000D01*
X69250000Y52650000D01*
X69250000Y53566988D01*
X69307007Y53534075D01*
X69434174Y53500000D01*
X69565826Y53500000D01*
X69692993Y53534075D01*
X69750000Y53566988D01*
X69750000Y52650000D01*
X70397828Y52650000D01*
X70397844Y52650001D01*
X70457372Y52656402D01*
X70457379Y52656404D01*
X70592086Y52706646D01*
X70592093Y52706650D01*
X70707187Y52792810D01*
X70707190Y52792813D01*
X70793350Y52907907D01*
X70793354Y52907914D01*
X70842614Y53039987D01*
X70884485Y53095921D01*
X70949949Y53120338D01*
X71018222Y53105487D01*
X71046477Y53084335D01*
X71168917Y52961895D01*
X71362421Y52826400D01*
X71576507Y52726571D01*
X71576516Y52726567D01*
X71790000Y52669366D01*
X71790000Y53566988D01*
X71847007Y53534075D01*
X71974174Y53500000D01*
X72105826Y53500000D01*
X72232993Y53534075D01*
X72290000Y53566988D01*
X72290000Y52669367D01*
X72503483Y52726567D01*
X72503492Y52726571D01*
X72717578Y52826400D01*
X72911082Y52961895D01*
X73078105Y53128918D01*
X73213600Y53322422D01*
X73313429Y53536508D01*
X73313432Y53536514D01*
X73370636Y53750000D01*
X72473012Y53750000D01*
X72505925Y53807007D01*
X72540000Y53934174D01*
X72540000Y54065826D01*
X72505925Y54192993D01*
X72473012Y54250000D01*
X73370636Y54250000D01*
X73370635Y54250001D01*
X73313432Y54463487D01*
X73313429Y54463493D01*
X73213600Y54677578D01*
X73213599Y54677580D01*
X73078113Y54871074D01*
X73078108Y54871080D01*
X72911082Y55038106D01*
X72717578Y55173601D01*
X72503492Y55273430D01*
X72503486Y55273433D01*
X72290000Y55330636D01*
X72290000Y54433012D01*
X72232993Y54465925D01*
X72105826Y54500000D01*
X71974174Y54500000D01*
X71847007Y54465925D01*
X71790000Y54433012D01*
X71790000Y55330636D01*
X71789999Y55330636D01*
X71576513Y55273433D01*
X71576507Y55273430D01*
X71362422Y55173601D01*
X71362420Y55173600D01*
X71168926Y55038114D01*
X71046477Y54915665D01*
X70985154Y54882181D01*
X70915462Y54887165D01*
X70859529Y54929037D01*
X70842614Y54960014D01*
X70793354Y55092087D01*
X70793350Y55092094D01*
X70707190Y55207188D01*
X70707187Y55207191D01*
X70592093Y55293351D01*
X70592086Y55293355D01*
X70457379Y55343597D01*
X70457372Y55343599D01*
X70397844Y55350000D01*
X69750000Y55350000D01*
X69750000Y54433012D01*
X69692993Y54465925D01*
X69565826Y54500000D01*
X69434174Y54500000D01*
X69307007Y54465925D01*
X69250000Y54433012D01*
X69250000Y55350000D01*
X68602155Y55350000D01*
X68542627Y55343599D01*
X68542620Y55343597D01*
X68407913Y55293355D01*
X68407906Y55293351D01*
X68292812Y55207191D01*
X68292809Y55207188D01*
X68206649Y55092094D01*
X68206645Y55092087D01*
X68156403Y54957380D01*
X68156401Y54957373D01*
X68150000Y54897845D01*
X64011343Y54897845D01*
X63871082Y55038106D01*
X63677578Y55173601D01*
X63463492Y55273430D01*
X63463486Y55273433D01*
X63341349Y55306159D01*
X63281689Y55342524D01*
X63251160Y55405371D01*
X63259455Y55474747D01*
X63303940Y55528625D01*
X63337444Y55544593D01*
X63403954Y55564768D01*
X63586450Y55662315D01*
X63746410Y55793590D01*
X63877685Y55953550D01*
X63975232Y56136046D01*
X64035300Y56334066D01*
X64055583Y56540000D01*
X64035300Y56745934D01*
X63975232Y56943954D01*
X63877685Y57126450D01*
X63825702Y57189791D01*
X63746410Y57286411D01*
X63586452Y57417683D01*
X63586453Y57417683D01*
X63586450Y57417685D01*
X63403954Y57515232D01*
X63205934Y57575300D01*
X63205932Y57575301D01*
X63205934Y57575301D01*
X63000000Y57595583D01*
X62794067Y57575301D01*
X62596043Y57515231D01*
X62485898Y57456357D01*
X62413550Y57417685D01*
X62413548Y57417684D01*
X62413547Y57417683D01*
X62253589Y57286411D01*
X62122317Y57126453D01*
X62024769Y56943957D01*
X61964699Y56745933D01*
X61944417Y56540000D01*
X61964699Y56334068D01*
X61964700Y56334066D01*
X62024768Y56136046D01*
X62122315Y55953550D01*
X62122317Y55953548D01*
X62253589Y55793590D01*
X62350209Y55714298D01*
X62413550Y55662315D01*
X62596046Y55564768D01*
X62662551Y55544595D01*
X62720989Y55506298D01*
X62749446Y55442486D01*
X62738887Y55373419D01*
X62692663Y55321025D01*
X62658650Y55306159D01*
X62536514Y55273433D01*
X62536507Y55273430D01*
X62322422Y55173601D01*
X62322420Y55173600D01*
X62128926Y55038114D01*
X62128920Y55038109D01*
X61961891Y54871080D01*
X61961886Y54871074D01*
X61826400Y54677580D01*
X61826399Y54677578D01*
X61726570Y54463493D01*
X61726567Y54463487D01*
X61669364Y54250001D01*
X51000000Y54250001D01*
X51000000Y59949753D01*
X61949500Y59949753D01*
X61949500Y58210248D01*
X61961131Y58151771D01*
X61961132Y58151770D01*
X62005447Y58085448D01*
X62071769Y58041133D01*
X62071770Y58041132D01*
X62130247Y58029501D01*
X62130250Y58029500D01*
X62130252Y58029500D01*
X63869750Y58029500D01*
X63869751Y58029501D01*
X63884568Y58032448D01*
X63928229Y58041132D01*
X63928229Y58041133D01*
X63928231Y58041133D01*
X63994552Y58085448D01*
X64038867Y58151769D01*
X64038867Y58151771D01*
X64038868Y58151771D01*
X64050499Y58210248D01*
X64050500Y58210250D01*
X64050500Y59949751D01*
X64050499Y59949753D01*
X64038868Y60008230D01*
X64038867Y60008231D01*
X63994552Y60074553D01*
X63928230Y60118868D01*
X63928229Y60118869D01*
X63869752Y60130500D01*
X63869748Y60130500D01*
X62130252Y60130500D01*
X62130247Y60130500D01*
X62071770Y60118869D01*
X62071769Y60118868D01*
X62005447Y60074553D01*
X61961132Y60008231D01*
X61961131Y60008230D01*
X61949500Y59949753D01*
X51000000Y59949753D01*
X51000000Y63369753D01*
X68449500Y63369753D01*
X68449500Y61630248D01*
X68461131Y61571771D01*
X68461132Y61571770D01*
X68505447Y61505448D01*
X68571769Y61461133D01*
X68571770Y61461132D01*
X68630247Y61449501D01*
X68630250Y61449500D01*
X68630252Y61449500D01*
X70369750Y61449500D01*
X70369751Y61449501D01*
X70384568Y61452448D01*
X70428229Y61461132D01*
X70428229Y61461133D01*
X70428231Y61461133D01*
X70494552Y61505448D01*
X70538867Y61571769D01*
X70538867Y61571771D01*
X70538868Y61571771D01*
X70550499Y61630248D01*
X70550500Y61630250D01*
X70550500Y62500000D01*
X70984417Y62500000D01*
X71004699Y62294068D01*
X71004700Y62294066D01*
X71064768Y62096046D01*
X71162315Y61913550D01*
X71162317Y61913548D01*
X71293589Y61753590D01*
X71390209Y61674298D01*
X71453550Y61622315D01*
X71636046Y61524768D01*
X71834066Y61464700D01*
X71834065Y61464700D01*
X71852529Y61462882D01*
X72040000Y61444417D01*
X72245934Y61464700D01*
X72443954Y61524768D01*
X72626450Y61622315D01*
X72786410Y61753590D01*
X72917685Y61913550D01*
X73015232Y62096046D01*
X73075300Y62294066D01*
X73095583Y62500000D01*
X73075300Y62705934D01*
X73015232Y62903954D01*
X72917685Y63086450D01*
X72865702Y63149791D01*
X72786410Y63246411D01*
X72636121Y63369748D01*
X72626450Y63377685D01*
X72443954Y63475232D01*
X72245934Y63535300D01*
X72245932Y63535301D01*
X72245934Y63535301D01*
X72040000Y63555583D01*
X71834067Y63535301D01*
X71636043Y63475231D01*
X71548114Y63428231D01*
X71453550Y63377685D01*
X71453548Y63377684D01*
X71453547Y63377683D01*
X71293589Y63246411D01*
X71162317Y63086453D01*
X71064769Y62903957D01*
X71004699Y62705933D01*
X70984417Y62500000D01*
X70550500Y62500000D01*
X70550500Y63369751D01*
X70550499Y63369753D01*
X70538868Y63428230D01*
X70538867Y63428231D01*
X70494552Y63494553D01*
X70428230Y63538868D01*
X70428229Y63538869D01*
X70369752Y63550500D01*
X70369748Y63550500D01*
X68630252Y63550500D01*
X68630247Y63550500D01*
X68571770Y63538869D01*
X68571769Y63538868D01*
X68505447Y63494553D01*
X68461132Y63428231D01*
X68461131Y63428230D01*
X68449500Y63369753D01*
X51000000Y63369753D01*
X51000000Y70000003D01*
X86594506Y70000003D01*
X86594506Y69999998D01*
X86614469Y69631804D01*
X86614470Y69631787D01*
X86674122Y69267932D01*
X86674128Y69267906D01*
X86772768Y68912635D01*
X86772770Y68912629D01*
X86909255Y68570074D01*
X86909261Y68570062D01*
X87081973Y68244292D01*
X87081976Y68244287D01*
X87081978Y68244284D01*
X87288910Y67939083D01*
X87527627Y67658044D01*
X87795330Y67404462D01*
X88088881Y67181310D01*
X88404838Y66991205D01*
X88404840Y66991204D01*
X88404842Y66991203D01*
X88404846Y66991201D01*
X88739486Y66836380D01*
X88739497Y66836375D01*
X89088934Y66718636D01*
X89449052Y66639368D01*
X89815630Y66599500D01*
X89815636Y66599500D01*
X90184364Y66599500D01*
X90184370Y66599500D01*
X90550948Y66639368D01*
X90911066Y66718636D01*
X91260503Y66836375D01*
X91595162Y66991205D01*
X91911119Y67181310D01*
X92204670Y67404462D01*
X92472373Y67658044D01*
X92711090Y67939083D01*
X92918022Y68244284D01*
X93090743Y68570070D01*
X93227227Y68912621D01*
X93325875Y69267919D01*
X93385531Y69631801D01*
X93405494Y70000000D01*
X93385531Y70368199D01*
X93325875Y70732081D01*
X93227227Y71087379D01*
X93090743Y71429930D01*
X92918022Y71755716D01*
X92711090Y72060917D01*
X92472373Y72341956D01*
X92204670Y72595538D01*
X91911119Y72818690D01*
X91595162Y73008795D01*
X91595161Y73008796D01*
X91595157Y73008798D01*
X91595153Y73008800D01*
X91260513Y73163621D01*
X91260508Y73163623D01*
X91260503Y73163625D01*
X91090172Y73221017D01*
X90911065Y73281365D01*
X90550946Y73360633D01*
X90184371Y73400500D01*
X90184370Y73400500D01*
X89815630Y73400500D01*
X89815628Y73400500D01*
X89449053Y73360633D01*
X89088934Y73281365D01*
X88818812Y73190350D01*
X88739497Y73163625D01*
X88739494Y73163624D01*
X88739486Y73163621D01*
X88404846Y73008800D01*
X88404842Y73008798D01*
X88169538Y72867221D01*
X88088881Y72818690D01*
X87988410Y72742315D01*
X87795330Y72595539D01*
X87795330Y72595538D01*
X87527626Y72341956D01*
X87288909Y72060917D01*
X87081979Y71755718D01*
X87081973Y71755709D01*
X86909261Y71429939D01*
X86909255Y71429927D01*
X86772770Y71087372D01*
X86772768Y71087366D01*
X86674128Y70732095D01*
X86674122Y70732069D01*
X86614470Y70368214D01*
X86614469Y70368197D01*
X86594506Y70000003D01*
X51000000Y70000003D01*
X51000000Y74375500D01*
X51019685Y74442539D01*
X51072489Y74488294D01*
X51124000Y74499500D01*
X94375500Y74499500D01*
X94442539Y74479815D01*
G37*
%TD.AperFunction*%
%TD*%
%TA.AperFunction,Conductor*%
%TO.N,VCC_LM*%
G36*
X49543039Y33280315D02*
G01*
X49588794Y33227511D01*
X49600000Y33176000D01*
X49600000Y26524000D01*
X49580315Y26456961D01*
X49527511Y26411206D01*
X49476000Y26400000D01*
X43524000Y26400000D01*
X43456961Y26419685D01*
X43411206Y26472489D01*
X43400000Y26524000D01*
X43400000Y33176000D01*
X43419685Y33243039D01*
X43472489Y33288794D01*
X43524000Y33300000D01*
X49476000Y33300000D01*
X49543039Y33280315D01*
G37*
%TD.AperFunction*%
%TD*%
M02*
