%TF.GenerationSoftware,KiCad,Pcbnew,8.0.6*%
%TF.CreationDate,2024-11-03T20:55:09+02:00*%
%TF.ProjectId,G11_EMB_PCB1,4731315f-454d-4425-9f50-4342312e6b69,rev?*%
%TF.SameCoordinates,PX5f7e1b2PY7735940*%
%TF.FileFunction,Soldermask,Bot*%
%TF.FilePolarity,Negative*%
%FSLAX46Y46*%
G04 Gerber Fmt 4.6, Leading zero omitted, Abs format (unit mm)*
G04 Created by KiCad (PCBNEW 8.0.6) date 2024-11-03 20:55:09*
%MOMM*%
%LPD*%
G01*
G04 APERTURE LIST*
%ADD10C,1.000000*%
%ADD11C,0.800000*%
%ADD12C,6.400000*%
%ADD13R,1.700000X1.700000*%
%ADD14O,1.700000X1.700000*%
%ADD15R,1.600000X1.600000*%
%ADD16C,1.600000*%
%ADD17C,4.000000*%
G04 APERTURE END LIST*
D10*
X95000000Y75000000D02*
X0Y75000000D01*
X0Y0D02*
X0Y75000000D01*
X95000000Y0D02*
X95000000Y75000000D01*
X95000000Y0D02*
X0Y0D01*
D11*
%TO.C,REF\u002A\u002A*%
X2600000Y5000000D03*
X3302944Y6697056D03*
X3302944Y3302944D03*
X5000000Y7400000D03*
D12*
X5000000Y5000000D03*
D11*
X5000000Y2600000D03*
X6697056Y6697056D03*
X6697056Y3302944D03*
X7400000Y5000000D03*
%TD*%
%TO.C,REF\u002A\u002A*%
X87600000Y70000000D03*
X88302944Y71697056D03*
X88302944Y68302944D03*
X90000000Y72400000D03*
D12*
X90000000Y70000000D03*
D11*
X90000000Y67600000D03*
X91697056Y71697056D03*
X91697056Y68302944D03*
X92400000Y70000000D03*
%TD*%
D13*
%TO.C,J10*%
X31540000Y57975000D03*
D14*
X29000000Y57975000D03*
%TD*%
D13*
%TO.C,J2*%
X63250000Y35675000D03*
D14*
X65790000Y35675000D03*
%TD*%
D13*
%TO.C,J7*%
X62525000Y13000000D03*
D14*
X65065000Y13000000D03*
%TD*%
D13*
%TO.C,J6*%
X5460000Y14000000D03*
D14*
X8000000Y14000000D03*
%TD*%
D13*
%TO.C,J1*%
X31500000Y36000000D03*
D14*
X28960000Y36000000D03*
%TD*%
D11*
%TO.C,REF\u002A\u002A*%
X2600000Y70000000D03*
X3302944Y71697056D03*
X3302944Y68302944D03*
X5000000Y72400000D03*
D12*
X5000000Y70000000D03*
D11*
X5000000Y67600000D03*
X6697056Y71697056D03*
X6697056Y68302944D03*
X7400000Y70000000D03*
%TD*%
D13*
%TO.C,J13*%
X69500000Y54000000D03*
D14*
X72040000Y54000000D03*
%TD*%
D13*
%TO.C,J11*%
X69500000Y62500000D03*
D14*
X72040000Y62500000D03*
%TD*%
D11*
%TO.C,REF\u002A\u002A*%
X87600000Y5000000D03*
X88302944Y6697056D03*
X88302944Y3302944D03*
X90000000Y7400000D03*
D12*
X90000000Y5000000D03*
D11*
X90000000Y2600000D03*
X91697056Y6697056D03*
X91697056Y3302944D03*
X92400000Y5000000D03*
%TD*%
D15*
%TO.C,J3*%
X15360000Y38250000D03*
D16*
X15360000Y40750000D03*
X13360000Y40750000D03*
X13360000Y38250000D03*
D17*
X10500000Y33500000D03*
X10500000Y45500000D03*
%TD*%
D13*
%TO.C,J8*%
X11960000Y5000000D03*
D14*
X14500000Y5000000D03*
%TD*%
D13*
%TO.C,J9*%
X62500000Y6500000D03*
D14*
X65040000Y6500000D03*
%TD*%
D13*
%TO.C,J4*%
X62960000Y29150000D03*
D14*
X65500000Y29150000D03*
%TD*%
D13*
%TO.C,J12*%
X63000000Y59080000D03*
D14*
X63000000Y56540000D03*
X63000000Y54000000D03*
%TD*%
D13*
%TO.C,J5*%
X42550000Y13175000D03*
D14*
X40010000Y13175000D03*
%TD*%
G36*
X49543039Y33280315D02*
G01*
X49588794Y33227511D01*
X49600000Y33176000D01*
X49600000Y26524000D01*
X49580315Y26456961D01*
X49527511Y26411206D01*
X49476000Y26400000D01*
X43524000Y26400000D01*
X43456961Y26419685D01*
X43411206Y26472489D01*
X43400000Y26524000D01*
X43400000Y33176000D01*
X43419685Y33243039D01*
X43472489Y33288794D01*
X43524000Y33300000D01*
X49476000Y33300000D01*
X49543039Y33280315D01*
G37*
M02*
